<svg width="125" height="126" viewBox="0 0 125 126" fill="none" xmlns="http://www.w3.org/2000/svg">
<path d="M40.9337 22.9963L57.3134 27.4357V2.43636L40.9337 6.87579V22.9963ZM24.9425 73.7035H33.0236V36.6137L24.9425 44.7999V73.7035ZM50.8486 75.1991H18.5398L11.7175 82.1101H50.8486V75.1991ZM73.3512 52.813L52.3094 58.5276V82.1101H73.4445L73.3512 52.813ZM34.5155 43.7294L46.8702 47.0826L46.8236 73.7035H50.8486V57.3783L64.4931 53.6788V30.9464L34.5155 22.8074V43.7294ZM93.3052 35.2756L80.9661 29.0258V82.0944H93.3052V35.2756ZM94.7816 76.6789V82.0944H109.654L104.308 76.6789H94.7816ZM0.155405 82.1101H9.63512L17.9337 73.7035H23.4817V44.186L33.0391 34.5042V20.8553L39.4574 22.6027V5.74232C45.8911 3.99488 52.3404 2.24744 58.7742 0.5V11.2208L69.6681 14.1804L69.6526 52.3092L73.3512 51.3017V42.2654L79.5053 40.5966V26.6329L94.7816 34.3625V75.1833H104.914L111.736 82.0944H124.635V83.5899H0V82.0944H0.155405V82.1101Z" fill="#A1A1A1"/>
<path d="M36.7671 107.664C37.8484 107.895 38.7169 108.435 39.3728 109.286C40.0287 110.119 40.3566 111.077 40.3566 112.158C40.3566 113.718 39.8071 114.959 38.7081 115.88C37.6268 116.784 36.1112 117.236 34.1614 117.236H25.4669V98.571H33.8689C35.7656 98.571 37.2457 99.0053 38.3092 99.8739C39.3905 100.742 39.9312 101.921 39.9312 103.41C39.9312 104.509 39.6387 105.422 39.0537 106.149C38.4865 106.876 37.7243 107.381 36.7671 107.664ZM30.0135 106.122H32.9915C33.736 106.122 34.3032 105.963 34.6932 105.644C35.1009 105.307 35.3047 104.819 35.3047 104.181C35.3047 103.543 35.1009 103.056 34.6932 102.719C34.3032 102.382 33.736 102.214 32.9915 102.214H30.0135V106.122ZM33.3637 113.567C34.1259 113.567 34.7109 113.399 35.1186 113.062C35.544 112.707 35.7567 112.202 35.7567 111.546C35.7567 110.89 35.5351 110.376 35.092 110.004C34.6666 109.632 34.0728 109.446 33.3106 109.446H30.0135V113.567H33.3637ZM48.6039 104.873C49.1357 104.057 49.8004 103.419 50.598 102.958C51.3957 102.48 52.282 102.24 53.2569 102.24V107.053H52.0072C50.8728 107.053 50.0219 107.301 49.4547 107.797C48.8875 108.276 48.6039 109.127 48.6039 110.35V117.236H44.0572V102.4H48.6039V104.873ZM55.5897 109.791C55.5897 108.267 55.8733 106.929 56.4405 105.777C57.0255 104.624 57.8143 103.738 58.8069 103.118C59.7996 102.497 60.9074 102.187 62.1305 102.187C63.1054 102.187 63.9917 102.391 64.7894 102.799C65.6048 103.206 66.2429 103.756 66.7038 104.447V97.5606H71.2505V117.236H66.7038V115.109C66.2784 115.818 65.6668 116.385 64.8691 116.811C64.0892 117.236 63.1763 117.449 62.1305 117.449C60.9074 117.449 59.7996 117.139 58.8069 116.518C57.8143 115.88 57.0255 114.985 56.4405 113.833C55.8733 112.663 55.5897 111.316 55.5897 109.791ZM66.7038 109.818C66.7038 108.684 66.3847 107.788 65.7466 107.133C65.1262 106.477 64.364 106.149 63.4599 106.149C62.5559 106.149 61.7848 106.477 61.1467 107.133C60.5263 107.771 60.2161 108.657 60.2161 109.791C60.2161 110.926 60.5263 111.83 61.1467 112.504C61.7848 113.159 62.5559 113.487 63.4599 113.487C64.364 113.487 65.1262 113.159 65.7466 112.504C66.3847 111.848 66.7038 110.953 66.7038 109.818ZM81.2402 102.187C82.286 102.187 83.1989 102.4 83.9788 102.825C84.7765 103.251 85.388 103.809 85.8134 104.5V102.4H90.3601V117.21C90.3601 118.575 90.0854 119.807 89.5359 120.906C89.0041 122.022 88.1798 122.909 87.0631 123.564C85.9641 124.22 84.5903 124.548 82.9418 124.548C80.7438 124.548 78.9624 124.025 77.5975 122.98C76.2326 121.951 75.4527 120.551 75.2577 118.778H79.7512C79.893 119.346 80.2298 119.789 80.7616 120.108C81.2933 120.445 81.9492 120.613 82.7291 120.613C83.6686 120.613 84.4131 120.338 84.9626 119.789C85.5298 119.257 85.8134 118.397 85.8134 117.21V115.109C85.3703 115.801 84.7587 116.368 83.9788 116.811C83.1989 117.236 82.286 117.449 81.2402 117.449C80.0171 117.449 78.9092 117.139 77.9166 116.518C76.9239 115.88 76.1351 114.985 75.5502 113.833C74.9829 112.663 74.6993 111.316 74.6993 109.791C74.6993 108.267 74.9829 106.929 75.5502 105.777C76.1351 104.624 76.9239 103.738 77.9166 103.118C78.9092 102.497 80.0171 102.187 81.2402 102.187ZM85.8134 109.818C85.8134 108.684 85.4944 107.788 84.8562 107.133C84.2358 106.477 83.4736 106.149 82.5696 106.149C81.6656 106.149 80.8945 106.477 80.2564 107.133C79.636 107.771 79.3258 108.657 79.3258 109.791C79.3258 110.926 79.636 111.83 80.2564 112.504C80.8945 113.159 81.6656 113.487 82.5696 113.487C83.4736 113.487 84.2358 113.159 84.8562 112.504C85.4944 111.848 85.8134 110.953 85.8134 109.818ZM96.8401 117.449C96.0424 117.449 95.3866 117.219 94.8725 116.758C94.3762 116.279 94.128 115.694 94.128 115.003C94.128 114.294 94.3762 113.7 94.8725 113.221C95.3866 112.743 96.0424 112.504 96.8401 112.504C97.62 112.504 98.2581 112.743 98.7545 113.221C99.2685 113.7 99.5255 114.294 99.5255 115.003C99.5255 115.694 99.2685 116.279 98.7545 116.758C98.2581 117.219 97.62 117.449 96.8401 117.449Z" fill="#A1A1A1"/>
</svg>
