<svg width="203" height="126" viewBox="0 0 203 126" fill="none" xmlns="http://www.w3.org/2000/svg">
<path fill-rule="evenodd" clip-rule="evenodd" d="M72.2222 62.7461L78.449 58.967V31.6734L72.2222 35.4525V62.7461ZM89.4458 25.0222V53.2227H106.653V14.5919L89.4458 25.0222ZM87.0608 53.7602V26.4667L80.834 30.2458V57.5393L87.0608 53.7602ZM110.543 2.64989L64.3308 30.6489V71.9335H151.489V74.4193H64.3308V83.5899H61.9617V74.4361H53.2859V71.9503H61.9617V32.0933L52.9658 37.552L51.7812 35.4021L61.9617 29.238V17.8335H64.3308V27.7935L109.375 0.5L110.543 2.64989ZM109.022 63.653H111.391V6.81531L118.499 11.1319V63.6698H120.868C120.868 44.7239 120.868 25.778 120.868 6.8321L127.975 11.1487V63.6866H130.344C130.344 44.7407 130.344 25.7948 130.344 6.84889L137.451 11.1655V63.7034H143.374V66.1892H69.8212V34.0249L108.99 10.2921V63.653H109.022Z" fill="white"/>
<path d="M2.58219 109.942V98.6729H6.02263V109.942C6.02263 112.902 7.53729 114.382 10.5666 114.382C13.5959 114.382 15.1106 112.902 15.1106 109.942V98.6729H18.551V109.942C18.551 114.893 15.8896 117.368 10.5666 117.368C5.24366 117.368 2.58219 114.893 2.58219 109.942ZM23.1849 117.238V103.606H25.8463L26.2748 105.606C27.5817 104.273 29.0704 103.606 30.7408 103.606C33.9692 103.606 35.5834 105.285 35.5834 108.644V117.238H32.143V108.644C32.143 107.138 31.3943 106.385 29.897 106.385C28.7804 106.385 27.6899 106.83 26.6253 107.722V117.238H23.1849ZM48.5392 107.164C47.8295 106.696 46.938 106.463 45.8648 106.463C43.7269 106.463 42.658 107.661 42.658 110.059C42.658 112.906 43.7702 114.33 45.9946 114.33C46.8947 114.33 47.7429 114.205 48.5392 113.954V107.164ZM51.9797 116.42C49.8938 116.966 47.8555 117.238 45.8648 117.238C41.4593 117.238 39.2565 114.875 39.2565 110.15C39.2565 105.787 41.4117 103.606 45.722 103.606C46.6394 103.606 47.5785 103.823 48.5392 104.255V98.6729H51.9797V116.42ZM62.0403 103.606C66.1775 103.606 68.2461 105.718 68.2461 109.942C68.2461 110.505 68.2071 111.067 68.1292 111.63H59.0802C59.0802 113.551 60.491 114.512 63.3126 114.512C64.6888 114.512 66.065 114.382 67.4411 114.122V116.849C66.2381 117.108 64.7753 117.238 63.053 117.238C58.1108 117.238 55.6398 114.914 55.6398 110.267C55.6398 105.826 57.7733 103.606 62.0403 103.606ZM59.0802 109.241H64.8965V109.137C64.8965 107.25 63.9444 106.307 62.0403 106.307C60.2227 106.307 59.236 107.285 59.0802 109.241ZM71.8932 117.238V103.606H74.5547L74.9831 105.346C76.1775 104.186 77.4412 103.606 78.7741 103.606V106.385C77.4931 106.385 76.3463 106.917 75.3336 107.982V117.238H71.8932ZM101.154 98.6729V101.659H95.8314V117.238H92.391V101.659H87.068V98.6729H101.154ZM103.854 117.238V98.6729H107.294V105.346C108.367 104.186 109.739 103.606 111.41 103.606C114.638 103.606 116.252 105.285 116.252 108.644V117.238H112.812V108.644C112.812 107.138 112.063 106.385 110.566 106.385C109.449 106.385 108.359 106.83 107.294 107.722V117.238H103.854ZM126.326 103.606C130.463 103.606 132.532 105.718 132.532 109.942C132.532 110.505 132.493 111.067 132.415 111.63H123.366C123.366 113.551 124.777 114.512 127.598 114.512C128.974 114.512 130.351 114.382 131.727 114.122V116.849C130.524 117.108 129.061 117.238 127.339 117.238C122.396 117.238 119.925 114.914 119.925 110.267C119.925 105.826 122.059 103.606 126.326 103.606ZM123.366 109.241H129.182V109.137C129.182 107.25 128.23 106.307 126.326 106.307C124.508 106.307 123.522 107.285 123.366 109.241ZM145.318 117.238H141.786L149.667 98.6729H153.367L161.416 117.238H157.716L155.6 112.175H149.433L150.615 109.189H154.354L151.433 102.217L145.318 117.238ZM164.427 117.238V103.606H167.089L167.517 105.346C168.712 104.186 169.975 103.606 171.308 103.606V106.385C170.027 106.385 168.88 106.917 167.868 107.982V117.238H164.427ZM184.381 116.849C183.256 117.108 182.087 117.238 180.876 117.238C176.029 117.238 173.605 114.88 173.605 110.163C173.605 105.792 176.029 103.606 180.876 103.606C182.087 103.606 183.256 103.736 184.381 103.996V106.722C183.256 106.463 182.174 106.333 181.135 106.333C178.409 106.333 177.046 107.609 177.046 110.163C177.046 113.062 178.409 114.512 181.135 114.512C182.174 114.512 183.256 114.382 184.381 114.122V116.849ZM187.716 117.238V98.6729H191.157V105.346C192.23 104.186 193.602 103.606 195.272 103.606C198.501 103.606 200.115 105.285 200.115 108.644V117.238H196.675V108.644C196.675 107.138 195.926 106.385 194.429 106.385C193.312 106.385 192.221 106.83 191.157 107.722V117.238H187.716Z" fill="white"/>
</svg>
