<svg width="109" height="112" viewBox="0 0 109 112" fill="none" xmlns="http://www.w3.org/2000/svg">
<path d="M47.1538 1.0801C48.9308 1.51827 50.5496 2.78409 52.0101 4.87757C53.4951 6.97104 54.6392 9.55137 55.4425 12.6186C56.2701 15.6857 56.7935 19.1181 57.0126 22.9155C57.256 26.6887 57.0369 30.4861 56.3553 34.308C55.3816 40.0528 53.6289 46.102 51.0973 52.4555C48.59 58.7846 45.6932 64.3956 42.4069 69.2885C40.8003 71.6497 38.6825 74.4248 36.0535 77.6137C33.4245 80.7783 31.4649 82.9326 30.1747 84.0767C28.7628 85.3425 26.9128 86.8153 24.6245 88.4949C22.3607 90.1502 20.5471 91.3795 19.1839 92.1828C16.0194 94.0086 12.7453 95.1892 9.36164 95.7247C5.978 96.2603 3.59241 95.9803 2.20487 94.8849C1.62065 94.398 1.24333 93.8868 1.07294 93.3513C0.926879 92.8158 0.85385 91.7569 0.85385 90.1746C0.878193 88.6166 1.02425 87.3508 1.29202 86.3771C1.55979 85.379 2.13184 83.9793 3.00818 82.178C5.90497 76.287 10.7857 70.0309 17.6503 63.4097C21.2287 59.9774 24.6124 57.1049 27.8013 54.7924C31.0145 52.4555 34.7876 50.1551 39.1207 47.8912C42.5043 46.1142 44.7195 45.0675 45.7662 44.751C46.8373 44.4345 47.4946 44.5928 47.738 45.2257C47.9814 45.8342 47.7988 46.382 47.1903 46.8688C46.5817 47.3557 44.9994 48.2077 42.4434 49.4248C38.0131 51.567 33.5218 54.3299 28.9697 57.7135C24.442 61.0728 20.4011 64.5782 16.847 68.2296C13.3173 71.881 10.3354 75.5811 7.90108 79.3299C5.49114 83.0787 4.07927 86.3771 3.66544 89.2252C3.42201 90.9292 3.59241 92.0368 4.17664 92.548C4.78521 93.0592 6.09971 93.2296 8.12016 93.0592C13.5973 92.5723 19.829 89.1765 26.8154 82.8717C33.8018 76.5426 39.644 69.0207 44.3422 60.306C47.9936 53.5144 50.6713 46.455 52.3753 39.1278C54.1036 31.8007 54.5905 25.2768 53.8359 19.5562C53.2029 14.4686 52.0953 10.5616 50.5131 7.83521C48.9551 5.08448 47.0564 3.70911 44.8169 3.70911C42.0418 3.70911 38.5608 5.42528 34.3738 8.85761C30.2112 12.2656 26.4746 16.4647 23.164 21.455C21.0705 24.6195 18.7823 28.7213 16.2993 33.7602C13.8407 38.7992 11.8933 43.3148 10.4571 47.307C9.06953 51.2749 8.27839 54.9019 8.08365 58.1882C7.88891 61.4014 8.02279 63.0446 8.4853 63.1176C8.72873 63.1663 9.10604 62.8863 9.61724 62.2778C10.1771 61.5475 10.6518 60.5616 11.0413 59.3201C11.5525 57.9083 12.1489 57.1415 12.8305 57.0197C13.3173 56.9467 13.6703 57.3119 13.8894 58.1152C13.9137 58.1395 13.9259 58.1639 13.9259 58.1882C14.145 59.0889 13.9624 60.2208 13.3782 61.584C12.794 62.9229 12.0028 64.0913 11.0048 65.0894C10.0311 66.0631 9.13039 66.5499 8.30273 66.5499C7.40205 66.5499 6.34314 66.1361 5.126 65.3084C3.90887 64.4808 3.14207 63.6531 2.82561 62.8255C1.87625 60.3182 2.21704 54.975 3.84801 46.7958C5.50332 38.5923 8.07148 29.4029 11.5525 19.2276C14.7414 9.90434 17.1148 4.63414 18.6727 3.417C19.5247 2.7354 20.2794 3.01534 20.9366 4.25683C21.5452 5.37659 21.0827 7.99344 19.5491 12.1074C18.0398 16.2213 16.1289 20.0188 13.8164 23.4998C12.8913 24.9117 11.3212 29.4759 9.10604 37.1926C6.89085 44.8849 5.99017 48.9379 6.404 49.3518C6.42834 49.3761 6.46485 49.3518 6.51354 49.2787C6.56223 49.1814 6.62308 49.0597 6.69611 48.9136C6.79348 48.7432 6.89085 48.5485 6.98822 48.3294C7.0856 48.1103 7.18297 47.8547 7.28034 47.5626C7.40205 47.2461 7.52376 46.9297 7.64548 46.6132C7.79154 46.2724 7.92542 45.9073 8.04713 45.5178C8.19319 45.1283 8.33925 44.7267 8.4853 44.3128C9.77547 40.7101 11.589 36.584 13.9259 31.9345C16.2628 27.2851 18.551 23.2563 20.7906 19.8484C22.9814 16.5864 25.6348 13.3488 28.7506 10.1356C31.8665 6.89801 34.5807 4.6098 36.8933 3.27094C38.4999 2.29723 40.2769 1.60347 42.2244 1.18964C44.1961 0.775812 45.8393 0.739297 47.1538 1.0801ZM102.023 68.7408C105.285 66.5743 107.257 65.5519 107.938 65.6736C108.303 65.7223 108.486 66.0509 108.486 66.6595C108.486 67.2924 107.95 68.0592 106.879 68.9599C105.808 69.8605 103.995 71.0777 101.439 72.6113C96.8135 75.3863 93.9897 75.1673 92.9673 71.954C92.8699 71.6132 92.7239 71.3211 92.5291 71.0777C92.3344 70.8099 92.164 70.676 92.018 70.676C91.6528 70.676 90.2531 71.808 87.8188 74.0718C83.4615 78.1858 80.6986 78.9526 79.5301 76.3722C79.0676 75.3742 78.7998 74.0718 78.7268 72.4652C78.6538 70.8586 78.666 69.4954 78.7633 68.3756L78.8729 66.7325C78.7268 66.7325 77.388 68.327 74.8563 71.5159C72.276 74.7291 70.6085 76.6157 69.8539 77.1755C69.0506 77.7354 68.1377 78.0154 67.1153 78.0154C66.0929 77.991 65.3383 77.6989 64.8514 77.139C63.829 75.8489 64.0481 72.0879 65.5087 65.8562C66.239 62.789 66.8232 60.7564 67.2614 59.7583C67.7239 58.7359 68.2838 58.2247 68.941 58.2247C69.3062 58.2247 69.5618 58.2977 69.7078 58.4438C69.8539 58.5655 69.9147 58.9185 69.8904 59.5027C69.866 60.0869 69.7443 60.8537 69.5252 61.8031C69.3305 62.7525 69.0019 64.14 68.5394 65.9657C67.5657 70.0066 67.1397 72.5504 67.2614 73.5972L67.4439 75.4594L69.8174 72.9399C71.6918 70.9195 73.7974 68.3391 76.1343 65.1989C78.8363 61.7422 80.6499 59.6366 81.5749 58.882C82.8651 57.8839 83.7779 57.7135 84.3135 58.3708C84.8977 59.0524 84.776 60.2695 83.9483 62.0222C83.8996 62.0952 83.851 62.1804 83.8023 62.2778C83.145 63.5193 82.6095 65.1381 82.1956 67.1342C81.8062 69.1303 81.6358 70.8829 81.6845 72.3922C81.7331 73.9014 82.0131 74.6561 82.5243 74.6561C82.8651 74.6561 84.2404 73.5363 86.6504 71.2968C89.5228 68.5947 91.8232 67.2802 93.5515 67.3532C94.8174 67.4263 95.4503 68.2783 95.4503 69.9092C95.4503 71.0047 95.8032 71.5524 96.5092 71.5524C97.4099 71.528 99.2477 70.5908 102.023 68.7408Z" fill="#A1A1A1"/>
</svg>
