<svg width="177" height="125" viewBox="0 0 177 125" fill="none" xmlns="http://www.w3.org/2000/svg">
<path fill-rule="evenodd" clip-rule="evenodd" d="M69.9561 33.159V22.8091L62.728 26.9265V37.2764L69.9561 33.159ZM72.0983 21.582V31.9158L94.2404 19.2892V8.93928L72.0983 21.582ZM120.667 22.8091V33.159L127.895 37.2764V26.9265L120.667 22.8091ZM69.9561 63.3692V35.581L62.728 39.6984V63.3692H69.9561ZM94.2404 63.3692V21.7273L72.0983 34.3539V63.3692H94.2404ZM118.525 63.3692V34.3539L96.3826 21.7273V63.3692H118.525ZM69.9561 72.6211V65.4844H62.728V72.6211H69.9561ZM94.2404 72.6211V65.4844H72.0983V72.6211H94.2404ZM127.895 72.6211V65.4844H120.667V72.6211H127.895ZM106.342 2.06085L97.4456 7.13088L130.037 25.7155V74.7363H72.0983V83.3263H69.9561V74.7363H62.728V83.0518H60.5858V74.7363H50.1525V72.6211H60.5858V65.4844H46.9473V63.3692H60.5858V40.9255L53.9464 44.7038L52.8835 42.8792L60.5858 38.4874V28.1375L54.5188 31.5928L53.4558 29.7683L60.5858 25.6994V10.9091H62.728V24.4722L69.9561 20.3549V8.00278H72.0983V19.1439L105.279 0.236328L106.342 2.06085Z" fill="#A1A1A1"/>
<path d="M18.3384 98.749V117.973H14.749V109.571H5.72207V117.973H2.13258V98.749H5.72207V107.018H14.749V98.749H18.3384ZM28.7847 104.12C29.7951 104.12 30.7124 104.284 31.5367 104.612C32.3698 104.94 33.0788 105.405 33.6638 106.008C34.2576 106.61 34.714 107.346 35.0331 108.215C35.3521 109.083 35.5117 110.054 35.5117 111.126C35.5117 112.207 35.3521 113.182 35.0331 114.051C34.714 114.919 34.2576 115.659 33.6638 116.271C33.0788 116.883 32.3698 117.352 31.5367 117.68C30.7124 118.008 29.7951 118.172 28.7847 118.172C27.7655 118.172 26.8393 118.008 26.0062 117.68C25.1731 117.352 24.4596 116.883 23.8658 116.271C23.2808 115.659 22.8244 114.919 22.4965 114.051C22.1774 113.182 22.0179 112.207 22.0179 111.126C22.0179 110.054 22.1774 109.083 22.4965 108.215C22.8244 107.346 23.2808 106.61 23.8658 106.008C24.4596 105.405 25.1731 104.94 26.0062 104.612C26.8393 104.284 27.7655 104.12 28.7847 104.12ZM28.7847 115.646C29.9192 115.646 30.7567 115.265 31.2974 114.503C31.8469 113.741 32.1216 112.624 32.1216 111.153C32.1216 109.681 31.8469 108.56 31.2974 107.789C30.7567 107.018 29.9192 106.633 28.7847 106.633C27.6325 106.633 26.7773 107.023 26.2189 107.802C25.6694 108.574 25.3946 109.69 25.3946 111.153C25.3946 112.615 25.6694 113.732 26.2189 114.503C26.7773 115.265 27.6325 115.646 28.7847 115.646ZM50.8326 104.333V117.973H48.8252C48.3909 117.973 48.1161 117.773 48.0009 117.374L47.7749 116.284C47.2166 116.851 46.6006 117.312 45.927 117.667C45.2534 118.013 44.4602 118.185 43.5473 118.185C42.8028 118.185 42.1425 118.061 41.5664 117.813C40.9992 117.556 40.5206 117.197 40.1306 116.736C39.7407 116.275 39.4438 115.73 39.2399 115.101C39.0449 114.463 38.9474 113.763 38.9474 113.001V104.333H42.2312V113.001C42.2312 113.834 42.4217 114.481 42.8028 114.942C43.1928 115.394 43.7733 115.62 44.5444 115.62C45.1116 115.62 45.6434 115.495 46.1397 115.247C46.636 114.99 47.1058 114.64 47.5489 114.197V104.333H50.8326ZM63.4743 106.991C63.3857 107.133 63.2927 107.235 63.1952 107.297C63.0977 107.35 62.9736 107.377 62.8229 107.377C62.6634 107.377 62.4906 107.333 62.3044 107.244C62.1272 107.155 61.9189 107.058 61.6796 106.952C61.4403 106.836 61.1656 106.734 60.8554 106.646C60.554 106.557 60.1951 106.513 59.7785 106.513C59.1315 106.513 58.6219 106.65 58.2497 106.925C57.8863 107.2 57.7046 107.559 57.7046 108.002C57.7046 108.294 57.7976 108.543 57.9838 108.746C58.1787 108.941 58.4313 109.114 58.7415 109.265C59.0606 109.416 59.4196 109.553 59.8184 109.677C60.2172 109.792 60.6205 109.921 61.0282 110.062C61.4447 110.204 61.8524 110.368 62.2513 110.554C62.6501 110.732 63.0046 110.962 63.3148 111.246C63.6339 111.52 63.8865 111.853 64.0726 112.243C64.2676 112.633 64.3651 113.102 64.3651 113.652C64.3651 114.308 64.2454 114.915 64.0061 115.473C63.7757 116.023 63.43 116.501 62.9692 116.909C62.5083 117.308 61.9366 117.623 61.2542 117.853C60.5806 118.075 59.8007 118.185 58.9144 118.185C58.4446 118.185 57.9838 118.141 57.5318 118.052C57.0886 117.973 56.6588 117.857 56.2422 117.707C55.8345 117.556 55.4534 117.379 55.0989 117.175C54.7532 116.971 54.4475 116.75 54.1816 116.51L54.9393 115.261C55.0368 115.11 55.1521 114.995 55.285 114.915C55.4179 114.835 55.5863 114.795 55.7902 114.795C55.994 114.795 56.1846 114.853 56.3618 114.968C56.548 115.083 56.7607 115.207 57 115.34C57.2393 115.473 57.5185 115.597 57.8375 115.713C58.1655 115.828 58.5776 115.885 59.0739 115.885C59.4639 115.885 59.7962 115.841 60.071 115.752C60.3546 115.655 60.585 115.531 60.7623 115.38C60.9484 115.23 61.0814 115.057 61.1611 114.862C61.2498 114.658 61.2941 114.45 61.2941 114.237C61.2941 113.918 61.1966 113.656 61.0016 113.453C60.8155 113.249 60.5629 113.071 60.2438 112.921C59.9336 112.77 59.5747 112.637 59.167 112.522C58.7681 112.398 58.356 112.265 57.9306 112.123C57.514 111.981 57.1019 111.817 56.6942 111.631C56.2954 111.436 55.9364 111.193 55.6174 110.9C55.3072 110.608 55.0546 110.249 54.8596 109.823C54.6735 109.398 54.5804 108.884 54.5804 108.281C54.5804 107.723 54.6912 107.191 54.9128 106.686C55.1343 106.181 55.4578 105.742 55.8833 105.37C56.3175 104.988 56.8537 104.687 57.4919 104.466C58.1389 104.235 58.8834 104.12 59.7253 104.12C60.6648 104.12 61.5201 104.275 62.2911 104.585C63.0622 104.895 63.7048 105.303 64.2188 105.808L63.4743 106.991ZM76.6877 109.584C76.6877 109.158 76.6257 108.76 76.5016 108.387C76.3864 108.006 76.2091 107.674 75.9698 107.39C75.7305 107.107 75.4248 106.885 75.0525 106.726C74.6891 106.557 74.2637 106.473 73.7763 106.473C72.8279 106.473 72.079 106.743 71.5295 107.284C70.9889 107.825 70.6432 108.591 70.4925 109.584H76.6877ZM70.4261 111.565C70.4792 112.265 70.6033 112.872 70.7983 113.386C70.9933 113.891 71.2503 114.312 71.5694 114.649C71.8885 114.977 72.2651 115.225 72.6994 115.394C73.1426 115.553 73.63 115.633 74.1618 115.633C74.6936 115.633 75.15 115.571 75.5311 115.447C75.9211 115.323 76.2579 115.185 76.5415 115.035C76.834 114.884 77.0866 114.747 77.2993 114.622C77.5208 114.498 77.7336 114.436 77.9374 114.436C78.2122 114.436 78.416 114.538 78.5489 114.742L79.4928 115.939C79.1295 116.364 78.7218 116.723 78.2698 117.015C77.8178 117.299 77.3436 117.53 76.8473 117.707C76.3598 117.875 75.859 117.995 75.345 118.066C74.8398 118.137 74.3479 118.172 73.8693 118.172C72.921 118.172 72.0391 118.017 71.2237 117.707C70.4083 117.388 69.6993 116.922 69.0966 116.311C68.494 115.69 68.0198 114.928 67.6741 114.024C67.3285 113.111 67.1557 112.057 67.1557 110.86C67.1557 109.93 67.3063 109.057 67.6077 108.241C67.909 107.417 68.3389 106.703 68.8972 106.101C69.4644 105.489 70.1513 105.006 70.9578 104.652C71.7732 104.297 72.6905 104.12 73.7098 104.12C74.5695 104.12 75.3627 104.257 76.0895 104.532C76.8162 104.807 77.4411 105.21 77.964 105.742C78.4869 106.265 78.8946 106.912 79.1871 107.683C79.4884 108.445 79.6391 109.318 79.6391 110.302C79.6391 110.798 79.5859 111.135 79.4795 111.312C79.3732 111.481 79.1693 111.565 78.868 111.565H70.4261ZM108.284 108.361C108.284 109.77 108.049 111.064 107.58 112.243C107.11 113.422 106.45 114.436 105.599 115.287C104.748 116.138 103.724 116.798 102.528 117.268C101.331 117.738 100.002 117.973 98.5395 117.973H91.2143V98.749H98.5395C100.002 98.749 101.331 98.9883 102.528 99.4669C103.724 99.9366 104.748 100.597 105.599 101.448C106.45 102.29 107.11 103.3 107.58 104.479C108.049 105.658 108.284 106.952 108.284 108.361ZM104.615 108.361C104.615 107.306 104.473 106.362 104.19 105.529C103.915 104.687 103.512 103.978 102.98 103.402C102.457 102.817 101.819 102.369 101.065 102.059C100.321 101.749 99.479 101.594 98.5395 101.594H94.8038V115.128H98.5395C99.479 115.128 100.321 114.973 101.065 114.662C101.819 114.352 102.457 113.909 102.98 113.333C103.512 112.748 103.915 112.039 104.19 111.206C104.473 110.364 104.615 109.416 104.615 108.361ZM120.592 109.584C120.592 109.158 120.53 108.76 120.406 108.387C120.291 108.006 120.114 107.674 119.875 107.39C119.635 107.107 119.329 106.885 118.957 106.726C118.594 106.557 118.168 106.473 117.681 106.473C116.733 106.473 115.984 106.743 115.434 107.284C114.894 107.825 114.548 108.591 114.397 109.584H120.592ZM114.331 111.565C114.384 112.265 114.508 112.872 114.703 113.386C114.898 113.891 115.155 114.312 115.474 114.649C115.793 114.977 116.17 115.225 116.604 115.394C117.047 115.553 117.535 115.633 118.067 115.633C118.598 115.633 119.055 115.571 119.436 115.447C119.826 115.323 120.163 115.185 120.446 115.035C120.739 114.884 120.991 114.747 121.204 114.622C121.426 114.498 121.638 114.436 121.842 114.436C122.117 114.436 122.321 114.538 122.454 114.742L123.398 115.939C123.034 116.364 122.626 116.723 122.174 117.015C121.722 117.299 121.248 117.53 120.752 117.707C120.265 117.875 119.764 117.995 119.25 118.066C118.745 118.137 118.253 118.172 117.774 118.172C116.826 118.172 115.944 118.017 115.128 117.707C114.313 117.388 113.604 116.922 113.001 116.311C112.399 115.69 111.925 114.928 111.579 114.024C111.233 113.111 111.06 112.057 111.06 110.86C111.06 109.93 111.211 109.057 111.512 108.241C111.814 107.417 112.244 106.703 112.802 106.101C113.369 105.489 114.056 105.006 114.863 104.652C115.678 104.297 116.595 104.12 117.615 104.12C118.474 104.12 119.267 104.257 119.994 104.532C120.721 104.807 121.346 105.21 121.869 105.742C122.392 106.265 122.799 106.912 123.092 107.683C123.393 108.445 123.544 109.318 123.544 110.302C123.544 110.798 123.491 111.135 123.384 111.312C123.278 111.481 123.074 111.565 122.773 111.565H114.331ZM135.394 106.991C135.305 107.133 135.212 107.235 135.115 107.297C135.017 107.35 134.893 107.377 134.742 107.377C134.583 107.377 134.41 107.333 134.224 107.244C134.047 107.155 133.838 107.058 133.599 106.952C133.36 106.836 133.085 106.734 132.775 106.646C132.474 106.557 132.115 106.513 131.698 106.513C131.051 106.513 130.541 106.65 130.169 106.925C129.806 107.2 129.624 107.559 129.624 108.002C129.624 108.294 129.717 108.543 129.903 108.746C130.098 108.941 130.351 109.114 130.661 109.265C130.98 109.416 131.339 109.553 131.738 109.677C132.137 109.792 132.54 109.921 132.948 110.062C133.364 110.204 133.772 110.368 134.171 110.554C134.57 110.732 134.924 110.962 135.234 111.246C135.553 111.52 135.806 111.853 135.992 112.243C136.187 112.633 136.285 113.102 136.285 113.652C136.285 114.308 136.165 114.915 135.926 115.473C135.695 116.023 135.35 116.501 134.889 116.909C134.428 117.308 133.856 117.623 133.174 117.853C132.5 118.075 131.72 118.185 130.834 118.185C130.364 118.185 129.903 118.141 129.451 118.052C129.008 117.973 128.578 117.857 128.162 117.707C127.754 117.556 127.373 117.379 127.018 117.175C126.673 116.971 126.367 116.75 126.101 116.51L126.859 115.261C126.956 115.11 127.072 114.995 127.205 114.915C127.337 114.835 127.506 114.795 127.71 114.795C127.914 114.795 128.104 114.853 128.281 114.968C128.468 115.083 128.68 115.207 128.92 115.34C129.159 115.473 129.438 115.597 129.757 115.713C130.085 115.828 130.497 115.885 130.993 115.885C131.383 115.885 131.716 115.841 131.991 115.752C132.274 115.655 132.505 115.531 132.682 115.38C132.868 115.23 133.001 115.057 133.081 114.862C133.169 114.658 133.214 114.45 133.214 114.237C133.214 113.918 133.116 113.656 132.921 113.453C132.735 113.249 132.482 113.071 132.163 112.921C131.853 112.77 131.494 112.637 131.086 112.522C130.688 112.398 130.276 112.265 129.85 112.123C129.434 111.981 129.021 111.817 128.614 111.631C128.215 111.436 127.856 111.193 127.537 110.9C127.227 110.608 126.974 110.249 126.779 109.823C126.593 109.398 126.5 108.884 126.5 108.281C126.5 107.723 126.611 107.191 126.832 106.686C127.054 106.181 127.377 105.742 127.803 105.37C128.237 104.988 128.773 104.687 129.411 104.466C130.058 104.235 130.803 104.12 131.645 104.12C132.584 104.12 133.44 104.275 134.211 104.585C134.982 104.895 135.624 105.303 136.138 105.808L135.394 106.991ZM143.223 104.333V117.973H139.926V104.333H143.223ZM143.675 100.358C143.675 100.641 143.617 100.907 143.502 101.155C143.387 101.403 143.232 101.621 143.037 101.807C142.851 101.993 142.629 102.143 142.372 102.259C142.115 102.365 141.84 102.418 141.548 102.418C141.264 102.418 140.994 102.365 140.737 102.259C140.489 102.143 140.272 101.993 140.086 101.807C139.899 101.621 139.749 101.403 139.634 101.155C139.527 100.907 139.474 100.641 139.474 100.358C139.474 100.065 139.527 99.7904 139.634 99.5333C139.749 99.2763 139.899 99.0547 140.086 98.8686C140.272 98.6825 140.489 98.5363 140.737 98.4299C140.994 98.3147 141.264 98.2571 141.548 98.2571C141.84 98.2571 142.115 98.3147 142.372 98.4299C142.629 98.5363 142.851 98.6825 143.037 98.8686C143.232 99.0547 143.387 99.2763 143.502 99.5333C143.617 99.7904 143.675 100.065 143.675 100.358ZM152.62 110.82C153.027 110.82 153.382 110.767 153.683 110.661C153.985 110.546 154.233 110.39 154.428 110.195C154.632 110 154.782 109.766 154.88 109.491C154.986 109.216 155.039 108.915 155.039 108.587C155.039 107.913 154.835 107.381 154.428 106.991C154.029 106.593 153.426 106.393 152.62 106.393C151.813 106.393 151.206 106.593 150.798 106.991C150.4 107.381 150.2 107.913 150.2 108.587C150.2 108.906 150.249 109.203 150.346 109.478C150.453 109.752 150.603 109.992 150.798 110.195C151.002 110.39 151.255 110.546 151.556 110.661C151.866 110.767 152.221 110.82 152.62 110.82ZM156.329 118.584C156.329 118.318 156.249 118.101 156.09 117.933C155.93 117.764 155.713 117.636 155.438 117.547C155.163 117.45 154.84 117.379 154.468 117.335C154.104 117.29 153.714 117.259 153.298 117.241C152.89 117.215 152.465 117.193 152.021 117.175C151.587 117.157 151.162 117.122 150.745 117.069C150.382 117.272 150.085 117.512 149.854 117.787C149.633 118.061 149.522 118.38 149.522 118.744C149.522 118.983 149.58 119.205 149.695 119.408C149.819 119.621 150.01 119.803 150.267 119.954C150.532 120.104 150.874 120.219 151.29 120.299C151.707 120.388 152.216 120.432 152.819 120.432C153.431 120.432 153.958 120.383 154.401 120.286C154.844 120.197 155.208 120.069 155.491 119.9C155.784 119.741 155.996 119.546 156.129 119.315C156.262 119.094 156.329 118.85 156.329 118.584ZM159.599 104.798V106.021C159.599 106.411 159.364 106.65 158.895 106.739L157.672 106.965C157.858 107.435 157.951 107.949 157.951 108.507C157.951 109.181 157.813 109.792 157.539 110.342C157.273 110.882 156.9 111.343 156.422 111.724C155.943 112.105 155.376 112.402 154.72 112.615C154.073 112.819 153.373 112.921 152.62 112.921C152.354 112.921 152.097 112.907 151.849 112.881C151.6 112.854 151.357 112.819 151.117 112.775C150.692 113.032 150.479 113.32 150.479 113.639C150.479 113.913 150.603 114.117 150.852 114.25C151.109 114.374 151.445 114.463 151.862 114.516C152.278 114.569 152.753 114.605 153.284 114.622C153.816 114.631 154.361 114.658 154.92 114.702C155.478 114.747 156.023 114.826 156.555 114.942C157.087 115.048 157.561 115.221 157.977 115.46C158.394 115.699 158.726 116.027 158.974 116.444C159.231 116.851 159.36 117.379 159.36 118.026C159.36 118.629 159.209 119.213 158.908 119.781C158.615 120.348 158.186 120.853 157.618 121.296C157.06 121.739 156.369 122.094 155.544 122.36C154.729 122.635 153.798 122.772 152.753 122.772C151.725 122.772 150.829 122.67 150.067 122.466C149.305 122.271 148.671 122.005 148.166 121.668C147.661 121.341 147.284 120.959 147.036 120.525C146.788 120.091 146.664 119.639 146.664 119.169C146.664 118.531 146.854 117.999 147.235 117.574C147.625 117.14 148.157 116.794 148.831 116.537C148.467 116.351 148.179 116.103 147.967 115.792C147.754 115.482 147.648 115.074 147.648 114.569C147.648 114.365 147.683 114.157 147.754 113.944C147.834 113.723 147.944 113.506 148.086 113.293C148.237 113.08 148.423 112.881 148.645 112.695C148.866 112.5 149.128 112.327 149.429 112.176C148.738 111.804 148.193 111.308 147.794 110.687C147.404 110.067 147.209 109.34 147.209 108.507C147.209 107.833 147.342 107.226 147.608 106.686C147.882 106.136 148.259 105.671 148.738 105.29C149.225 104.9 149.797 104.603 150.453 104.399C151.117 104.195 151.84 104.093 152.62 104.093C153.205 104.093 153.754 104.155 154.268 104.279C154.782 104.395 155.252 104.567 155.677 104.798H159.599ZM165.816 106.008C166.091 105.733 166.379 105.48 166.68 105.25C166.991 105.011 167.314 104.811 167.651 104.652C167.996 104.483 168.364 104.355 168.754 104.266C169.144 104.169 169.57 104.12 170.031 104.12C170.775 104.12 171.435 104.248 172.011 104.505C172.587 104.754 173.066 105.108 173.447 105.569C173.837 106.021 174.13 106.566 174.325 107.204C174.528 107.833 174.63 108.529 174.63 109.291V117.973H171.347V109.291C171.347 108.458 171.156 107.816 170.775 107.364C170.394 106.903 169.813 106.672 169.033 106.672C168.466 106.672 167.934 106.801 167.438 107.058C166.942 107.315 166.472 107.665 166.029 108.108V117.973H162.745V104.333H164.753C165.178 104.333 165.457 104.532 165.59 104.931L165.816 106.008Z" fill="#A1A1A1"/>
</svg>
