<svg width="34" height="34" viewBox="0 0 34 34" fill="none" xmlns="http://www.w3.org/2000/svg">
<ellipse cx="17.191" cy="16.8955" rx="16.2301" ry="16.1376" fill="#04243E" fill-opacity="0.07"/>
<path d="M19.1686 12.887C19.7445 12.8886 20.2963 13.1084 20.7036 13.4983C21.1108 13.8883 21.3404 14.4166 21.3421 14.9681V19.1298C21.3404 19.6812 21.1108 20.2096 20.7036 20.5995C20.2963 20.9894 19.7445 21.2092 19.1686 21.2109H14.8221C14.2461 21.2092 13.6943 20.9894 13.2871 20.5995C12.8798 20.2096 12.6503 19.6812 12.6486 19.1298V14.9681C12.6503 14.4166 12.8798 13.8883 13.2871 13.4983C13.6943 13.1084 14.2461 12.8886 14.8221 12.887H19.1686ZM19.1686 12.0547H14.8221C13.1485 12.0547 11.7793 13.3657 11.7793 14.9681V19.1298C11.7793 20.7322 13.1485 22.0432 14.8221 22.0432H19.1686C20.8421 22.0432 22.2113 20.7322 22.2113 19.1298V14.9681C22.2113 13.3657 20.8421 12.0547 19.1686 12.0547Z" fill="url(#paint0_linear_356_1226)"/>
<path d="M19.82 14.9673C19.691 14.9673 19.565 14.9307 19.4578 14.8621C19.3505 14.7935 19.267 14.696 19.2176 14.5819C19.1683 14.4679 19.1554 14.3423 19.1805 14.2212C19.2057 14.1001 19.2678 13.9889 19.359 13.9016C19.4502 13.8143 19.5663 13.7548 19.6928 13.7307C19.8193 13.7067 19.9504 13.719 20.0695 13.7663C20.1887 13.8135 20.2905 13.8935 20.3621 13.9962C20.4338 14.0989 20.472 14.2196 20.472 14.343C20.4722 14.4251 20.4555 14.5063 20.4227 14.5821C20.39 14.658 20.342 14.7269 20.2814 14.7849C20.2209 14.8429 20.1489 14.8888 20.0697 14.9201C19.9905 14.9515 19.9057 14.9675 19.82 14.9673ZM16.9947 15.3833C17.3386 15.3833 17.6748 15.481 17.9607 15.6639C18.2467 15.8469 18.4695 16.1069 18.6011 16.4111C18.7327 16.7153 18.7672 17.05 18.7001 17.373C18.633 17.6959 18.4674 17.9925 18.2242 18.2254C17.981 18.4582 17.6712 18.6168 17.3339 18.681C16.9967 18.7452 16.6471 18.7123 16.3293 18.5863C16.0116 18.4603 15.7401 18.2469 15.549 17.9731C15.358 17.6993 15.256 17.3774 15.256 17.0482C15.2565 16.6068 15.4398 16.1836 15.7658 15.8715C16.0918 15.5594 16.5337 15.3838 16.9947 15.3833ZM16.9947 14.551C16.4789 14.551 15.9747 14.6975 15.5458 14.9719C15.1169 15.2463 14.7826 15.6363 14.5852 16.0926C14.3878 16.5488 14.3362 17.0509 14.4368 17.5353C14.5375 18.0197 14.7859 18.4647 15.1506 18.8139C15.5153 19.1631 15.98 19.401 16.4859 19.4973C16.9918 19.5937 17.5162 19.5442 17.9928 19.3552C18.4693 19.1662 18.8766 18.8461 19.1632 18.4355C19.4498 18.0248 19.6027 17.5421 19.6027 17.0482C19.6027 16.3859 19.328 15.7507 18.8389 15.2824C18.3498 14.8141 17.6864 14.551 16.9947 14.551Z" fill="url(#paint1_linear_356_1226)"/>
<defs>
<linearGradient id="paint0_linear_356_1226" x1="17.0116" y1="6.31132" x2="7.21451" y2="18.5209" gradientUnits="userSpaceOnUse">
<stop stop-color="#2E7CBB"/>
<stop stop-color="#172D5A"/>
<stop offset="1" stop-color="#367FBA"/>
</linearGradient>
<linearGradient id="paint1_linear_356_1226" x1="17.4388" y1="10.3685" x2="11.724" y2="17.4907" gradientUnits="userSpaceOnUse">
<stop stop-color="#2E7CBB"/>
<stop stop-color="#172D5A"/>
<stop offset="1" stop-color="#367FBA"/>
</linearGradient>
</defs>
</svg>
