<svg width="18" height="18" viewBox="0 0 18 18" fill="none" xmlns="http://www.w3.org/2000/svg">
<path d="M8.99711 6.24578C7.48093 6.24578 6.24361 7.48312 6.24361 8.99933C6.24361 10.5155 7.48093 11.7529 8.99711 11.7529C10.5133 11.7529 11.7506 10.5155 11.7506 8.99933C11.7506 7.48312 10.5133 6.24578 8.99711 6.24578ZM17.2556 8.99933C17.2556 7.85907 17.2659 6.72915 17.2018 5.59096C17.1378 4.26892 16.8362 3.09561 15.8695 2.12887C14.9007 1.16007 13.7295 0.860546 12.4075 0.79651C11.2673 0.732473 10.1373 0.742802 8.99918 0.742802C7.85894 0.742802 6.72904 0.732473 5.59087 0.79651C4.26885 0.860546 3.09557 1.16214 2.12885 2.12887C1.16006 3.09768 0.860544 4.26892 0.796509 5.59096C0.732474 6.73121 0.742802 7.86114 0.742802 8.99933C0.742802 10.1375 0.732474 11.2695 0.796509 12.4077C0.860544 13.7297 1.16213 14.903 2.12885 15.8698C3.09763 16.8386 4.26885 17.1381 5.59087 17.2022C6.7311 17.2662 7.86101 17.2559 8.99918 17.2559C10.1394 17.2559 11.2693 17.2662 12.4075 17.2022C13.7295 17.1381 14.9028 16.8365 15.8695 15.8698C16.8383 14.901 17.1378 13.7297 17.2018 12.4077C17.2679 11.2695 17.2556 10.1396 17.2556 8.99933ZM8.99711 13.236C6.65261 13.236 4.76048 11.3439 4.76048 8.99933C4.76048 6.65478 6.65261 4.76262 8.99711 4.76262C11.3416 4.76262 13.2337 6.65478 13.2337 8.99933C13.2337 11.3439 11.3416 13.236 8.99711 13.236ZM13.4073 5.57856C12.8599 5.57856 12.4178 5.13651 12.4178 4.5891C12.4178 4.0417 12.8599 3.59964 13.4073 3.59964C13.9547 3.59964 14.3967 4.0417 14.3967 4.5891C14.3969 4.71908 14.3714 4.84782 14.3217 4.96794C14.2721 5.08806 14.1992 5.19721 14.1073 5.28912C14.0154 5.38103 13.9062 5.45391 13.7861 5.50358C13.666 5.55324 13.5372 5.57873 13.4073 5.57856Z" fill="url(#paint0_linear_356_1703)"/>
<defs>
<linearGradient id="paint0_linear_356_1703" x1="6.35586" y1="-24.6485" x2="13.645" y2="5.41009" gradientUnits="userSpaceOnUse">
<stop stop-color="#2E7CBB"/>
<stop stop-color="#172D5A"/>
<stop offset="1" stop-color="#367FBA"/>
</linearGradient>
</defs>
</svg>
