<svg width="24" height="24" viewBox="0 0 24 24" fill="none" xmlns="http://www.w3.org/2000/svg">
<path fill-rule="evenodd" clip-rule="evenodd" d="M4.36112 5.05935C4.36312 5.05935 4.31312 5.11135 4.25012 5.17335C4.00812 5.40835 3.50712 5.89735 3.50207 6.92035C3.49412 8.35135 4.43512 11.0083 8.96612 15.5383C13.4761 20.0463 16.1291 20.9984 17.5631 20.9984H17.5841C18.6071 20.9934 19.0951 20.4913 19.3311 20.2503C19.4031 20.1763 19.4611 20.1224 19.5021 20.0884C20.4981 19.0863 21.0081 18.3403 21.0032 17.8623C20.9961 17.3743 20.3891 16.7973 19.5501 15.9993C19.2831 15.7453 18.9931 15.4693 18.6871 15.1633C17.8941 14.3723 17.5011 14.5073 16.6371 14.8113C15.4421 15.2303 13.8021 15.8003 11.2541 13.2513C8.70212 10.7013 9.27312 9.06335 9.69112 7.86835C9.99312 7.00435 10.1311 6.61035 9.33712 5.81635C9.02612 5.50635 8.74712 5.21235 8.49012 4.94235C7.69712 4.10835 7.12512 3.50535 6.64012 3.49835H6.63212C6.15312 3.49835 5.40912 4.01035 4.35612 5.06335C4.35912 5.06035 4.36012 5.05935 4.36112 5.05935ZM17.5641 22.4984C15.0721 22.4984 11.8231 20.5144 7.90612 16.5993C3.97412 12.6684 1.98712 9.40935 2.00204 6.91235C2.01112 5.26235 2.87612 4.41735 3.20112 4.10035C3.21812 4.07935 3.27612 4.02235 3.29612 4.00235C4.73012 2.56735 5.69712 1.98735 6.65912 1.9982C7.77612 2.01335 8.57112 2.84935 9.57712 3.90835C9.82612 4.17035 10.0961 4.45535 10.3971 4.75535C11.8571 6.21535 11.4411 7.40635 11.1071 8.36235C10.7431 9.40535 10.4281 10.3054 12.3141 12.1913C14.2021 14.0773 15.1021 13.7623 16.1411 13.3953C17.0981 13.0613 18.2861 12.6433 19.7481 14.1033C20.0441 14.3993 20.3251 14.6663 20.5841 14.9133C21.6481 15.9243 22.4881 16.7233 22.5023 17.8433C22.5141 18.7983 21.9341 19.7713 20.5021 21.2043L19.8681 20.7743L20.4041 21.2983C20.0871 21.6234 19.2431 22.4893 17.5921 22.4984H17.5641Z" fill="url(#paint0_linear_356_1671)"/>
<defs>
<linearGradient id="paint0_linear_356_1671" x1="8.97066" y1="-29.5212" x2="18.0191" y2="7.79267" gradientUnits="userSpaceOnUse">
<stop stop-color="#2E7CBB"/>
<stop stop-color="#172D5A"/>
<stop offset="1" stop-color="#367FBA"/>
</linearGradient>
</defs>
</svg>
