<svg width="17" height="20" viewBox="0 0 17 20" fill="none" xmlns="http://www.w3.org/2000/svg">
<path fill-rule="evenodd" clip-rule="evenodd" d="M8.24805 0.498047C12.797 0.498047 16.498 4.22705 16.498 8.81105C16.498 14.446 10.042 19.998 8.24805 19.998C6.45405 19.998 -0.00195312 14.446 -0.00195312 8.81105C-0.00195312 4.22705 3.69905 0.498047 8.24805 0.498047ZM8.24805 1.99805C4.52605 1.99805 1.49805 5.05505 1.49805 8.81105C1.49805 13.59 7.12205 18.246 8.24805 18.494C9.37405 18.245 14.998 13.589 14.998 8.81105C14.998 5.05505 11.97 1.99805 8.24805 1.99805ZM8.24905 5.49805C10.041 5.49805 11.499 6.95605 11.499 8.74905C11.499 10.541 10.041 11.998 8.24905 11.998C6.45705 11.998 4.99905 10.541 4.99905 8.74905C4.99905 6.95605 6.45705 5.49805 8.24905 5.49805ZM8.24905 6.99805C7.28405 6.99805 6.49905 7.78305 6.49905 8.74905C6.49905 9.71405 7.28405 10.498 8.24905 10.498C9.21405 10.498 9.99905 9.71405 9.99905 8.74905C9.99905 7.78305 9.21405 6.99805 8.24905 6.99805Z" fill="#AA915E"/>
</svg>
