<svg width="91" height="100" viewBox="0 0 91 100" fill="none" xmlns="http://www.w3.org/2000/svg">
<path d="M37.6172 15.1668H58.6005V63.6569C58.5861 69.1838 56.3805 74.4794 52.4673 78.3825C48.5541 82.2855 43.2528 84.4773 37.7259 84.4773V99.481C47.2226 99.4666 56.3262 95.6877 63.0414 88.9725C69.7566 82.2573 73.5355 73.1536 73.5499 63.6569V15.1668H90.9999V0H37.6172V15.1668Z" fill="#04243E" fill-opacity="0.13"/>
<path d="M11.5245 43.9241C17.8894 43.9241 23.0493 38.7644 23.0493 32.3996C23.0493 26.0347 17.8894 20.875 11.5245 20.875C5.1597 20.875 0 26.0347 0 32.3996C0 38.7644 5.1597 43.9241 11.5245 43.9241Z" fill="#DAB466" fill-opacity="0.42"/>
<path d="M11.5245 77.5159C17.8894 77.5159 23.0493 72.3562 23.0493 65.9914C23.0493 59.6265 17.8894 54.4668 11.5245 54.4668C5.1597 54.4668 0 59.6265 0 65.9914C0 72.3562 5.1597 77.5159 11.5245 77.5159Z" fill="#DAB466" fill-opacity="0.42"/>
</svg>
