<svg width="169" height="170" viewBox="0 0 169 170" fill="none" xmlns="http://www.w3.org/2000/svg">
<rect y="0.5" width="169" height="169" rx="8" fill="#AA915E"/>
<path d="M33.5886 73.9689C34.5538 72.7221 36.1702 70.6361 36.3463 69.9845C36.8483 68.1283 39.5311 65.2877 40.0639 64.7369C40.5223 64.2623 41.2765 64.2541 41.7466 64.7158C42.2173 65.1787 42.2266 65.9381 41.7675 66.4127C40.6217 67.5974 38.8942 69.6845 38.6426 70.615C38.3614 71.6556 37.2016 73.2037 35.4642 75.4466C34.7809 76.3291 33.871 77.5045 33.5851 78.0072C33.771 78.3107 34.5886 78.858 36.3021 78.6341C37.6066 78.4666 38.9674 78.4841 40.1656 78.4959C41.6571 78.5181 43.0731 78.531 43.8791 78.1924C46.0406 77.2841 48.6844 75.2158 48.7257 74.0088C48.7617 72.9611 48.3253 71.467 47.9209 70.342C46.6112 69.0552 45.4026 67.1814 46.0865 64.9701C45.6321 64.9478 45.1783 64.9209 44.7245 64.8986C44.4688 64.8857 44.2242 64.7896 44.0267 64.6256C43.1934 63.9342 41.5775 63.0072 40.7582 63.2135C39.0825 63.6365 37.5142 64.2787 37.4985 64.2857C36.8884 64.5388 36.1952 64.2435 35.9471 63.6283C35.6984 63.0154 35.9895 62.3146 36.5979 62.0638C36.6676 62.0357 38.3341 61.3513 40.1807 60.8861C42.115 60.3974 44.3631 61.881 45.2161 62.5197C48.2207 62.6697 51.2253 62.8256 54.2294 62.9966C55.119 63.047 56.0109 63.122 56.904 63.1982C58.0208 63.2931 59.1074 63.3763 60.1812 63.4209L64.725 63.1795C65.682 63.0025 66.603 62.7224 67.5681 62.4084C69.2863 61.8517 71.0591 61.2705 73.1399 61.3924C74.8563 61.4873 76.5169 61.8435 78.1224 62.1892C79.5756 62.501 80.9481 62.7963 82.3501 62.9099C85.0637 63.1326 87.894 62.8912 90.6319 62.6592C93.1293 62.4482 95.7121 62.2338 98.2408 62.351C103.552 62.6052 108.946 62.2338 114.163 61.8728C117.607 61.6349 121.168 61.39 124.698 61.322C126.567 61.2998 128.384 62.099 129.816 63.6131C131.484 65.372 132.392 67.7885 132.246 70.0771C131.897 75.5334 131.417 91.1533 131.752 92.6053C132.479 95.051 134.553 103.633 130.682 111.342C130.472 111.76 130.054 112 129.619 112C129.438 112 129.255 111.959 129.083 111.871C128.496 111.571 128.262 110.849 128.559 110.257C130.88 105.634 130.8 100.616 130.295 97.1252C129.934 99.0201 129.636 101.44 129.719 104.063C129.74 104.725 129.224 105.279 128.567 105.299C128.554 105.3 128.542 105.3 128.529 105.3C127.889 105.3 127.36 104.788 127.34 104.138C127.137 97.6771 129.02 92.4986 129.1 92.2818C129.151 92.1435 129.231 92.0275 129.321 91.922C129.156 88.5845 129.405 80.5103 129.629 75.0142C129.103 75.3705 128.632 75.9857 128.228 76.6748C127.731 77.8889 126.471 80.9615 125.467 83.3533C125.722 84.2029 126.495 87.1584 126.039 90.4654C125.559 93.9506 122.713 96.9857 121.905 97.7849C121.912 97.8435 121.918 97.9045 121.925 97.9631C122.176 100.058 122.283 101.187 121.821 101.879C121.393 102.76 119.669 110.085 119.603 111.601C119.542 113.017 120.099 114.367 120.103 114.378C120.362 114.986 120.082 115.691 119.478 115.953C119.326 116.019 119.166 116.05 119.01 116.05C118.548 116.05 118.109 115.778 117.916 115.322C117.884 115.248 117.14 113.473 117.226 111.498C117.291 109.974 119.004 102.136 119.741 100.718C119.811 100.334 119.662 99.0857 119.563 98.2502C119.452 97.3244 119.337 96.367 119.308 95.4646C119.22 92.8314 121.48 86.4095 122.036 85.2881C122.302 84.7513 123.285 82.4076 124.273 80.0252C123.301 79.8553 122.334 79.6572 121.385 79.3994C119.004 78.7525 119.404 77.2115 118.347 75.3928C117.194 73.4053 115.584 73.8623 113.735 73.1556C110.305 71.8443 111.761 67.1099 113 64.356C108.344 64.6748 103.569 64.9502 98.7952 64.7627C96.9898 66.2826 92.9062 69.9353 92.9062 71.9217C92.9062 73.908 95.9811 75.6295 97.163 76.9092C99.439 79.3736 100.907 84.4291 98.0857 87.0541C95.4704 89.4881 92.9201 87.2931 90.7644 85.3935C89.6511 84.4138 88.4716 83.2818 87.0259 82.8318C85.5274 82.3642 83.98 83.201 82.4751 82.8752C80.7232 82.4955 80.2235 80.6111 80.1875 79.0033C80.1253 76.206 81.0718 73.5869 82.6622 71.3216C83.3839 70.2927 84.6389 69.3295 84.9771 68.0838C85.2339 67.1404 84.9004 66.2463 84.4884 65.3931C83.7116 65.3896 82.9341 65.365 82.1584 65.3029C80.6029 65.1763 79.0893 64.8506 77.6262 64.5365C76.0399 64.1955 74.5414 63.8732 73.0091 63.7877C72.9069 63.7818 72.8093 63.797 72.7082 63.7959C74.2602 65.849 75.3798 68.2841 74.8592 70.9209C74.2869 73.8154 71.7715 75.9611 71.6227 79.0045C71.4757 81.9974 74.7999 84.6635 72.7976 87.6002C71.3072 89.7857 68.9859 89.358 67.6628 88.8681C67.6663 88.8775 67.6692 88.8869 67.6727 88.8963C70.0039 95.1389 71.1864 102.862 71.1864 111.85C71.1864 112.619 70.8139 113.377 70.42 114.179C70.2085 114.611 69.9894 115.056 69.8633 115.446C69.7709 115.732 69.6785 116.012 69.5902 116.275H74.3845C75.0416 116.275 75.5745 116.812 75.5745 117.475C75.5745 118.138 75.0416 118.675 74.3845 118.675H67.9138C67.5257 118.675 67.1619 118.484 66.9388 118.163C66.7163 117.843 66.6628 117.433 66.7953 117.065C66.7953 117.065 67.2003 115.943 67.6006 114.703C67.7796 114.148 68.0492 113.598 68.2869 113.114C68.4914 112.697 68.8011 112.068 68.8063 111.85C68.8063 106.626 68.3903 101.867 67.5815 97.5974C67.5385 97.5963 67.496 97.5951 67.4525 97.5881C63.9458 97.0971 61.2782 94.9877 59.9418 91.649C57.9272 86.6146 54.0464 82.506 47.7396 78.7256C46.2509 79.7685 44.8244 80.3943 44.7948 80.4072C43.5351 80.9369 41.8837 80.9205 40.1377 80.8959C38.9622 80.8842 37.7455 80.8678 36.6043 81.0154C36.2196 81.0647 35.8623 81.0869 35.5299 81.0869C33.6322 81.0869 32.5625 80.3615 32.0616 79.8775C31.4387 79.2764 31.1162 78.51 31.1767 77.7752C31.2359 77.0603 31.8141 76.2599 33.5886 73.9689ZM121.787 94.2635C122.612 93.1443 123.471 91.6631 123.682 90.1349C123.817 89.1517 123.821 88.1967 123.761 87.3388C123.114 89.0615 122.104 92.2677 121.787 94.2635ZM62.1486 90.7513C63.0696 93.0517 64.7552 94.5224 67.0393 95.0615C66.5902 93.183 66.0643 91.4006 65.4449 89.7424C64.8418 88.1275 64.399 86.3662 64.1608 84.5802C62.8959 83.7752 60.893 82.1849 60.1045 79.8002C58.9685 76.3631 54.5804 71.6627 50.9058 72.1138C51.0412 72.7877 51.1254 73.4685 51.1045 74.0908C51.0667 75.1994 50.4624 76.2177 49.6449 77.1002C56.0063 81.0494 60.008 85.4017 62.1486 90.7513Z" fill="white"/>
<path d="M74.868 102.85C74.6239 105.025 74.3938 107.08 74.7977 109.157C75.0609 110.515 75.3038 111.974 75.5612 113.752C75.6565 114.407 75.2062 115.016 74.556 115.112C74.4979 115.122 74.4397 115.125 74.3822 115.125C73.8018 115.125 73.2933 114.695 73.2067 114.099C72.9546 112.361 72.7181 110.937 72.4618 109.619C71.9877 107.179 72.2497 104.841 72.5031 102.58L72.621 101.502C72.807 99.7035 73.0191 98.0851 73.7274 96.4949C73.9447 96.0074 74.1783 95.5281 74.4124 95.0488C74.9929 93.8582 75.5414 92.7344 75.8099 91.5309C76.1027 90.2172 76.291 88.8707 76.3694 87.5301C76.4072 86.8691 76.9609 86.3699 77.6268 86.4027C78.2828 86.4414 78.7837 87.0086 78.7448 87.6707C78.6594 89.1402 78.4531 90.6168 78.1318 92.0582C78.0644 92.3605 77.9766 92.6512 77.8866 92.9406C79.6634 93.1352 81.4438 93.5852 83.1776 94.0316C84.3363 94.3305 85.4304 94.6129 86.5048 94.8145L87.7633 95.0582C90.0074 95.4965 92.3287 95.95 94.5402 95.95C97.1985 95.95 99.9579 95.1039 102.742 93.4351C103.539 92.9594 104.242 92.3453 104.987 91.6961C106.097 90.7281 107.237 89.7367 108.714 89.1918C107.15 85.7687 104.587 79.1348 104.729 72.673C104.744 72.0121 105.282 71.5129 105.945 71.5C106.602 71.5152 107.123 72.0637 107.108 72.727C106.976 78.7445 109.43 85.0375 110.904 88.252C111.268 89.0453 111.75 89.7871 112.261 90.5723C112.698 91.2449 113.149 91.9387 113.538 92.6922C114.258 94.0844 114.788 95.5469 115.301 96.9625L115.366 97.1406C115.527 97.5848 115.739 98.0746 115.96 98.5891C116.668 100.236 117.47 102.101 117.37 103.82C117.322 104.655 116.919 107.459 116.398 111.038C116.197 112.416 116.024 113.607 115.95 114.18C115.816 115.213 115.356 116.655 114.965 117.755C116.236 117.72 117.924 117.591 119.042 117.481C119.695 117.429 120.279 117.899 120.342 118.558C120.406 119.218 119.928 119.805 119.273 119.869C118.671 119.929 116.191 120.162 114.42 120.162C113.875 120.162 113.397 120.14 113.061 120.084C112.704 120.024 112.393 119.802 112.217 119.482C112.041 119.164 112.019 118.78 112.157 118.442C112.499 117.606 113.423 115.153 113.589 113.87C113.664 113.289 113.84 112.084 114.043 110.689C114.425 108.067 114.949 104.475 114.994 103.68C115.047 102.78 114.637 101.608 114.168 100.469C113.793 100.558 113.314 100.633 112.762 100.647V100.975C112.762 101.638 112.229 102.175 111.572 102.175C110.914 102.175 110.382 101.638 110.382 100.975V100.293L110.294 100.27C108.483 99.8008 105.307 98.9758 104.186 95.3394C104.106 95.3898 104.039 95.4496 103.957 95.4988C100.801 97.3914 97.6326 98.35 94.5402 98.35C92.0998 98.35 89.6652 97.8742 87.3107 97.4148L86.0673 97.1746C84.9168 96.9578 83.7332 96.6519 82.5885 96.3566C80.7041 95.8714 78.7687 95.3922 76.9476 95.2785C76.8151 95.5574 76.6815 95.8351 76.5479 96.1082C76.3265 96.5629 76.1039 97.0175 75.8982 97.4793C75.334 98.7461 75.1586 100.105 74.9883 101.751L74.868 102.85ZM110.886 97.9457C111.086 97.9973 111.273 98.0453 111.446 98.0945C112.119 98.2844 112.748 98.2691 113.224 98.2023C113.194 98.125 113.158 98.0406 113.131 97.9656L113.066 97.7863C112.557 96.3812 112.076 95.0547 111.428 93.802C111.093 93.1551 110.694 92.5398 110.27 91.8883C110.152 91.7066 110.035 91.5145 109.917 91.3293C108.664 91.6715 107.667 92.5328 106.544 93.5125C106.459 93.5863 106.366 93.6602 106.28 93.7352C106.778 96.8488 109.039 97.4664 110.886 97.9457Z" fill="white"/>
<path d="M41.7585 72.2795C41.0026 72.2795 40.3899 71.6617 40.3899 70.8995C40.3899 70.1374 41.0026 69.5195 41.7585 69.5195C42.5143 69.5195 43.127 70.1374 43.127 70.8995C43.127 71.6617 42.5143 72.2795 41.7585 72.2795Z" fill="white"/>
</svg>
