<svg width="220" height="153" viewBox="0 0 220 153" fill="none" xmlns="http://www.w3.org/2000/svg">
<path opacity="0.1" d="M47.829 152.942C38.8046 152.942 30.6623 150.839 23.4021 146.632C16.2098 142.425 10.5102 136.725 6.30337 129.533C2.09653 122.273 -0.00688593 114.131 -0.00688593 105.106V48.1103C-0.00688593 39.0859 2.09653 30.9776 6.30337 23.7852C10.5102 16.5251 16.2098 10.7915 23.4021 6.5847C30.6623 2.37787 38.8046 0.274448 47.829 0.274448C56.8533 0.274448 64.9617 2.37787 72.154 6.5847C79.4142 10.7915 85.1477 16.5251 89.3545 23.7852C93.5614 30.9776 95.6648 39.0859 95.6648 48.1103V105.106C95.6648 114.131 93.5614 122.273 89.3545 129.533C85.1477 136.725 79.4142 142.425 72.154 146.632C64.9617 150.839 56.8533 152.942 47.829 152.942ZM47.829 138.489C53.8678 138.489 59.3638 137.031 64.3171 134.113C69.2703 131.128 73.2057 127.158 76.1234 122.205C79.041 117.252 80.4998 111.79 80.4998 105.819V47.3978C80.4998 41.359 79.041 35.863 76.1234 30.9097C73.2057 25.9565 69.2703 22.0211 64.3171 19.1034C59.3638 16.1179 53.8678 14.6252 47.829 14.6252C41.7901 14.6252 36.2941 16.1179 31.3409 19.1034C26.3876 22.0211 22.4522 25.9565 19.5346 30.9097C16.6169 35.863 15.1581 41.359 15.1581 47.3978V105.819C15.1581 111.79 16.6169 117.252 19.5346 122.205C22.4522 127.158 26.3876 131.128 31.3409 134.113C36.2941 137.031 41.7901 138.489 47.829 138.489ZM188.762 149.889V121.493H120.163V107.244L169.22 3.3278H186.014L136.957 107.244H188.762V64.4966H203.825V107.244H219.804V121.493H203.825V149.889H188.762Z" fill="#AA915E"/>
</svg>
