<svg width="174" height="151" viewBox="0 0 174 151" fill="none" xmlns="http://www.w3.org/2000/svg">
<path opacity="0.1" d="M28.5395 150.254V20.3847L0.957547 36.9746V20.1811L28.5395 3.69303H43.7045V150.254H28.5395ZM78.2376 150.152L78.3393 136.514L144.597 76.6681C150.297 71.5114 154.062 66.626 155.894 62.012C157.794 57.3302 158.744 52.4449 158.744 47.356C158.744 41.3171 157.319 35.855 154.47 30.9696C151.62 26.0843 147.786 22.2167 142.969 19.3669C138.151 16.4493 132.757 14.9904 126.786 14.9904C120.543 14.9904 114.98 16.4832 110.094 19.4687C105.209 22.4542 101.341 26.3896 98.4915 31.275C95.7095 36.1603 94.3525 41.4867 94.4203 47.2542H79.1536C79.1536 38.3655 81.257 30.3929 85.4638 23.3363C89.6707 16.2796 95.3702 10.7497 102.563 6.74638C109.755 2.67525 117.897 0.639683 126.989 0.639683C135.878 0.639683 143.851 2.7431 150.907 6.94993C158.032 11.0889 163.63 16.7207 167.701 23.8451C171.84 30.9018 173.909 38.7727 173.909 47.4577C173.909 53.5644 173.163 58.9587 171.67 63.6405C170.245 68.2545 167.972 72.5631 164.851 76.5664C161.798 80.5018 157.896 84.5729 153.146 88.7798L94.3185 141.908L91.9776 135.801H173.909V150.152H78.2376Z" fill="#AA915E"/>
</svg>
