<svg width="166" height="154" viewBox="0 0 166 154" fill="none" xmlns="http://www.w3.org/2000/svg">
<path opacity="0.1" d="M48.0848 153.241C39.0605 153.241 30.9182 151.137 23.658 146.931C16.4657 142.724 10.7661 137.024 6.55923 129.832C2.35239 122.572 0.248973 114.429 0.248973 105.405V48.4091C0.248973 39.3848 2.35239 31.2764 6.55923 24.0841C10.7661 16.8239 16.4657 11.0904 23.658 6.88353C30.9182 2.67669 39.0605 0.573277 48.0848 0.573277C57.1092 0.573277 65.2175 2.67669 72.4098 6.88353C79.67 11.0904 85.4036 16.8239 89.6104 24.0841C93.8172 31.2764 95.9207 39.3848 95.9207 48.4091V105.405C95.9207 114.429 93.8172 122.572 89.6104 129.832C85.4036 137.024 79.67 142.724 72.4098 146.931C65.2175 151.137 57.1092 153.241 48.0848 153.241ZM48.0848 138.788C54.1237 138.788 59.6197 137.329 64.5729 134.412C69.5261 131.426 73.4616 127.457 76.3792 122.504C79.2969 117.551 80.7557 112.088 80.7557 106.117V47.6967C80.7557 41.6578 79.2969 36.1618 76.3792 31.2086C73.4616 26.2553 69.5261 22.3199 64.5729 19.4023C59.6197 16.4168 54.1237 14.924 48.0848 14.924C42.046 14.924 36.5499 16.4168 31.5967 19.4023C26.6435 22.3199 22.7081 26.2553 19.7904 31.2086C16.8728 36.1618 15.414 41.6578 15.414 47.6967V106.117C15.414 112.088 16.8728 117.551 19.7904 122.504C22.7081 127.457 26.6435 131.426 31.5967 134.412C36.5499 137.329 42.046 138.788 48.0848 138.788ZM150.037 150.188V20.3183L122.455 36.9082V20.1147L150.037 3.62663H165.202V150.188H150.037Z" fill="#AA915E"/>
</svg>
