<svg width="223" height="154" viewBox="0 0 223 154" fill="none" xmlns="http://www.w3.org/2000/svg">
<path opacity="0.1" d="M48.0848 153.604C39.0605 153.604 30.9182 151.501 23.658 147.294C16.4657 143.087 10.7661 137.387 6.55923 130.195C2.35239 122.935 0.248973 114.793 0.248973 105.768V48.7724C0.248973 39.748 2.35239 31.6397 6.55923 24.4474C10.7661 17.1872 16.4657 11.4537 23.658 7.24681C30.9182 3.03997 39.0605 0.936558 48.0848 0.936558C57.1092 0.936558 65.2175 3.03997 72.4098 7.24681C79.67 11.4537 85.4036 17.1872 89.6104 24.4474C93.8172 31.6397 95.9207 39.748 95.9207 48.7724V105.768C95.9207 114.793 93.8172 122.935 89.6104 130.195C85.4036 137.387 79.67 143.087 72.4098 147.294C65.2175 151.501 57.1092 153.604 48.0848 153.604ZM48.0848 139.152C54.1237 139.152 59.6197 137.693 64.5729 134.775C69.5261 131.79 73.4616 127.82 76.3792 122.867C79.2969 117.914 80.7557 112.452 80.7557 106.481V48.0599C80.7557 42.0211 79.2969 36.5251 76.3792 31.5719C73.4616 26.6186 69.5261 22.6832 64.5729 19.7656C59.6197 16.7801 54.1237 15.2873 48.0848 15.2873C42.046 15.2873 36.5499 16.7801 31.5967 19.7656C26.6435 22.6832 22.7081 26.6186 19.7904 31.5719C16.8728 36.5251 15.414 42.0211 15.414 48.0599V106.481C15.414 112.452 16.8728 117.914 19.7904 122.867C22.7081 127.82 26.6435 131.79 31.5967 134.775C36.5499 137.693 42.046 139.152 48.0848 139.152ZM172.733 1.03833C181.961 1.03833 190.307 3.27745 197.771 7.7557C205.302 12.1661 211.273 18.205 215.684 25.8723C220.094 33.4717 222.299 42.0211 222.299 51.5204V102.41C222.299 112.18 220.094 120.933 215.684 128.668C211.273 136.404 205.234 142.51 197.567 146.989C189.968 151.399 181.316 153.604 171.614 153.604C163.268 153.604 155.533 151.772 148.408 148.108C141.351 144.376 135.516 139.253 130.902 132.74L142.301 123.274C145.423 128.092 149.562 131.959 154.718 134.877C159.943 137.795 165.575 139.253 171.614 139.253C178.534 139.253 184.641 137.625 189.934 134.368C195.294 131.043 199.501 126.701 202.554 121.34C205.675 115.912 207.236 110.043 207.236 103.733V71.7743L210.9 76.049C206.693 82.7664 201.095 88.1946 194.107 92.3335C187.186 96.4725 179.586 98.542 171.308 98.542C162.284 98.542 154.108 96.3708 146.78 92.0282C139.519 87.6857 133.752 81.8504 129.477 74.5223C125.27 67.1943 123.167 59.0181 123.167 49.9937C123.167 40.9694 125.406 32.7593 129.884 25.3634C134.363 17.8996 140.368 11.9965 147.899 7.65393C155.431 3.24353 163.709 1.03833 172.733 1.03833ZM172.733 15.4909C166.355 15.4909 160.554 17.0515 155.329 20.1727C150.104 23.226 145.931 27.365 142.81 32.5896C139.757 37.8143 138.23 43.6156 138.23 49.9937C138.23 56.3718 139.757 62.1732 142.81 67.3978C145.864 72.6225 150.003 76.7954 155.227 79.9166C160.452 82.9699 166.253 84.4966 172.631 84.4966C179.009 84.4966 184.811 82.9699 190.035 79.9166C195.328 76.7954 199.501 72.6225 202.554 67.3978C205.675 62.1732 207.236 56.3718 207.236 49.9937C207.236 43.6835 205.675 37.916 202.554 32.6914C199.501 27.4668 195.362 23.2939 190.137 20.1727C184.913 17.0515 179.111 15.4909 172.733 15.4909Z" fill="#AA915E"/>
</svg>
