<svg width="216" height="154" viewBox="0 0 216 154" fill="none" xmlns="http://www.w3.org/2000/svg">
<path opacity="0.1" d="M47.829 153.602C38.8046 153.602 30.6623 151.499 23.4021 147.292C16.2098 143.085 10.5102 137.385 6.30337 130.193C2.09653 122.933 -0.00688593 114.791 -0.00688593 105.766V48.7704C-0.00688593 39.7461 2.09653 31.6377 6.30337 24.4454C10.5102 17.1852 16.2098 11.4517 23.4021 7.24486C30.6623 3.03802 38.8046 0.934605 47.829 0.934605C56.8533 0.934605 64.9617 3.03802 72.154 7.24486C79.4142 11.4517 85.1477 17.1852 89.3545 24.4454C93.5614 31.6377 95.6648 39.7461 95.6648 48.7704V105.766C95.6648 114.791 93.5614 122.933 89.3545 130.193C85.1477 137.385 79.4142 143.085 72.154 147.292C64.9617 151.499 56.8533 153.602 47.829 153.602ZM47.829 139.15C53.8678 139.15 59.3638 137.691 64.3171 134.773C69.2703 131.788 73.2057 127.818 76.1234 122.865C79.041 117.912 80.4998 112.45 80.4998 106.479V48.058C80.4998 42.0191 79.041 36.5231 76.1234 31.5699C73.2057 26.6167 69.2703 22.6812 64.3171 19.7636C59.3638 16.7781 53.8678 15.2853 47.829 15.2853C41.7901 15.2853 36.2941 16.7781 31.3409 19.7636C26.3876 22.6812 22.4522 26.6167 19.5346 31.5699C16.6169 36.5231 15.1581 42.0191 15.1581 48.058V106.479C15.1581 112.45 16.6169 117.912 19.5346 122.865C22.4522 127.818 26.3876 131.788 31.3409 134.773C36.2941 137.691 41.7901 139.15 47.829 139.15ZM120.163 150.447L120.265 136.809L186.523 76.9631C192.222 71.8063 195.988 66.9209 197.82 62.307C199.72 57.6252 200.67 52.7398 200.67 47.6509C200.67 41.612 199.245 36.1499 196.395 31.2646C193.545 26.3792 189.712 22.5116 184.894 19.6618C180.077 16.7442 174.682 15.2853 168.711 15.2853C162.469 15.2853 156.905 16.7781 152.02 19.7636C147.134 22.7491 143.267 26.6845 140.417 31.5699C137.635 36.4553 136.278 41.7817 136.346 47.5491H121.079C121.079 38.6605 123.183 30.6878 127.389 23.6312C131.596 16.5745 137.296 11.0446 144.488 7.0413C151.681 2.97017 159.823 0.934605 168.915 0.934605C177.804 0.934605 185.776 3.03802 192.833 7.24486C199.957 11.3838 205.555 17.0156 209.626 24.1401C213.765 31.1967 215.835 39.0676 215.835 47.7527C215.835 53.8594 215.088 59.2536 213.596 63.9354C212.171 68.5494 209.898 72.858 206.777 76.8613C203.723 80.7967 199.822 84.8678 195.072 89.0747L136.244 142.203L133.903 136.096H215.835V150.447H120.163Z" fill="#AA915E"/>
</svg>
