<svg width="216" height="154" viewBox="0 0 216 154" fill="none" xmlns="http://www.w3.org/2000/svg">
<path opacity="0.1" d="M47.829 153.624C38.8046 153.624 30.6623 151.52 23.4021 147.313C16.2098 143.107 10.5102 137.407 6.30337 130.215C2.09653 122.954 -0.00688593 114.812 -0.00688593 105.788V48.7919C-0.00688593 39.7676 2.09653 31.6592 6.30337 24.4669C10.5102 17.2067 16.2098 11.4732 23.4021 7.26634C30.6623 3.05951 38.8046 0.956089 47.829 0.956089C56.8533 0.956089 64.9617 3.05951 72.154 7.26634C79.4142 11.4732 85.1477 17.2067 89.3545 24.4669C93.5614 31.6592 95.6648 39.7676 95.6648 48.7919V105.788C95.6648 114.812 93.5614 122.954 89.3545 130.215C85.1477 137.407 79.4142 143.107 72.154 147.313C64.9617 151.52 56.8533 153.624 47.829 153.624ZM47.829 139.171C53.8678 139.171 59.3638 137.712 64.3171 134.795C69.2703 131.809 73.2057 127.84 76.1234 122.887C79.041 117.933 80.4998 112.471 80.4998 106.5V48.0795C80.4998 42.0406 79.041 36.5446 76.1234 31.5914C73.2057 26.6382 69.2703 22.7027 64.3171 19.7851C59.3638 16.7996 53.8678 15.3068 47.829 15.3068C41.7901 15.3068 36.2941 16.7996 31.3409 19.7851C26.3876 22.7027 22.4522 26.6382 19.5346 31.5914C16.6169 36.5446 15.1581 42.0406 15.1581 48.0795V106.5C15.1581 112.471 16.6169 117.933 19.5346 122.887C22.4522 127.84 26.3876 131.809 31.3409 134.795C36.2941 137.712 41.7901 139.171 47.829 139.171ZM168.915 153.624C159.755 153.624 151.647 151.792 144.59 148.128C137.601 144.464 132.105 139.341 128.102 132.759C124.166 126.11 122.199 118.34 122.199 109.452C122.199 100.36 124.404 92.2852 128.814 85.2286C133.225 78.1041 139.942 72.7098 148.966 69.0458L148.763 74.949C141.231 72.167 135.498 67.6209 131.562 61.3107C127.627 55.0004 125.659 48.0116 125.659 40.3443C125.659 32.202 127.525 25.2133 131.257 19.378C134.989 13.4748 140.078 8.92873 146.524 5.73967C153.038 2.55061 160.501 0.956089 168.915 0.956089C177.329 0.956089 184.792 2.55061 191.306 5.73967C197.82 8.92873 202.943 13.4748 206.675 19.378C210.407 25.2133 212.273 32.202 212.273 40.3443C212.273 48.0116 210.373 54.9665 206.573 61.2089C202.841 67.4513 197.108 72.0313 189.372 74.949L188.864 69.0458C197.888 72.642 204.639 78.0023 209.117 85.1268C213.664 92.2513 215.937 100.36 215.937 109.452C215.937 118.34 213.935 126.11 209.932 132.759C205.928 139.341 200.398 144.464 193.342 148.128C186.285 151.792 178.143 153.624 168.915 153.624ZM168.915 139.273C178.143 139.273 185.641 136.728 191.408 131.64C197.175 126.483 200.059 119.087 200.059 109.452C200.059 99.6811 197.209 92.2852 191.51 87.2642C185.81 82.1752 178.279 79.6308 168.915 79.6308C159.551 79.6308 152.054 82.1752 146.422 87.2642C140.79 92.2852 137.974 99.6811 137.974 109.452C137.974 119.087 140.824 126.483 146.524 131.64C152.223 136.728 159.687 139.273 168.915 139.273ZM168.915 65.1782C177.057 65.1782 183.673 63.1088 188.762 58.9698C193.851 54.7629 196.395 48.5544 196.395 40.3443C196.395 32.1342 193.851 25.9936 188.762 21.9224C183.673 17.7834 177.057 15.714 168.915 15.714C160.773 15.714 154.157 17.7834 149.068 21.9224C144.047 25.9936 141.537 32.1342 141.537 40.3443C141.537 48.5544 144.047 54.7629 149.068 58.9698C154.157 63.1088 160.773 65.1782 168.915 65.1782Z" fill="#AA915E"/>
</svg>
