<svg width="203" height="154" viewBox="0 0 203 154" fill="none" xmlns="http://www.w3.org/2000/svg">
<path opacity="0.1" d="M48.0848 153.262C39.0605 153.262 30.9182 151.159 23.658 146.952C16.4657 142.745 10.7661 137.046 6.55923 129.853C2.35239 122.593 0.248973 114.451 0.248973 105.426V48.4306C0.248973 39.4063 2.35239 31.2979 6.55923 24.1056C10.7661 16.8454 16.4657 11.1119 23.658 6.90501C30.9182 2.69818 39.0605 0.594761 48.0848 0.594761C57.1092 0.594761 65.2175 2.69818 72.4098 6.90501C79.67 11.1119 85.4036 16.8454 89.6104 24.1056C93.8172 31.2979 95.9207 39.4063 95.9207 48.4306V105.426C95.9207 114.451 93.8172 122.593 89.6104 129.853C85.4036 137.046 79.67 142.745 72.4098 146.952C65.2175 151.159 57.1092 153.262 48.0848 153.262ZM48.0848 138.81C54.1237 138.81 59.6197 137.351 64.5729 134.433C69.5261 131.448 73.4616 127.478 76.3792 122.525C79.2969 117.572 80.7557 112.11 80.7557 106.139V47.7181C80.7557 41.6793 79.2969 36.1833 76.3792 31.2301C73.4616 26.2768 69.5261 22.3414 64.5729 19.4238C59.6197 16.4383 54.1237 14.9455 48.0848 14.9455C42.046 14.9455 36.5499 16.4383 31.5967 19.4238C26.6435 22.3414 22.7081 26.2768 19.7904 31.2301C16.8728 36.1833 15.414 41.6793 15.414 47.7181V106.139C15.414 112.11 16.8728 117.572 19.7904 122.525C22.7081 127.478 26.6435 131.448 31.5967 134.433C36.5499 137.351 42.046 138.81 48.0848 138.81ZM132.327 150.209L186.27 18.2024H118.383V3.64811H202.249V18.2024L148.408 150.209H132.327Z" fill="#AA915E"/>
</svg>
