<svg width="21" height="21" viewBox="0 0 21 21" fill="none" xmlns="http://www.w3.org/2000/svg">
<path fill-rule="evenodd" clip-rule="evenodd" d="M2.36112 3.05935C2.36312 3.05935 2.31312 3.11135 2.25012 3.17335C2.00812 3.40835 1.50712 3.89735 1.50207 4.92035C1.49412 6.35135 2.43512 9.00835 6.96612 13.5383C11.4761 18.0463 14.1291 18.9984 15.5631 18.9984H15.5841C16.6071 18.9934 17.0951 18.4913 17.3311 18.2503C17.4031 18.1763 17.4611 18.1224 17.5021 18.0884C18.4981 17.0863 19.0081 16.3403 19.0032 15.8623C18.9961 15.3743 18.3891 14.7973 17.5501 13.9993C17.2831 13.7453 16.9931 13.4693 16.6871 13.1633C15.8941 12.3723 15.5011 12.5073 14.6371 12.8113C13.4421 13.2303 11.8021 13.8003 9.25412 11.2513C6.70212 8.70135 7.27312 7.06335 7.69112 5.86835C7.99312 5.00435 8.13112 4.61035 7.33712 3.81635C7.02612 3.50635 6.74712 3.21235 6.49012 2.94235C5.69712 2.10835 5.12512 1.50535 4.64012 1.49835H4.63212C4.15312 1.49835 3.40912 2.01035 2.35612 3.06335C2.35912 3.06035 2.36012 3.05935 2.36112 3.05935ZM15.5641 20.4984C13.0721 20.4984 9.82312 18.5144 5.90612 14.5993C1.97412 10.6684 -0.0128792 7.40935 0.00203648 4.91235C0.0111208 3.26235 0.876121 2.41735 1.20112 2.10035C1.21812 2.07935 1.27612 2.02235 1.29612 2.00235C2.73012 0.567349 3.69712 -0.0126506 4.65912 -0.00180399C5.77612 0.0133494 6.57112 0.849349 7.57712 1.90835C7.82612 2.17035 8.09612 2.45535 8.39712 2.75535C9.85712 4.21535 9.44112 5.40635 9.10712 6.36235C8.74312 7.40535 8.42812 8.30535 10.3141 10.1913C12.2021 12.0773 13.1021 11.7623 14.1411 11.3953C15.0981 11.0613 16.2861 10.6433 17.7481 12.1033C18.0441 12.3993 18.3251 12.6663 18.5841 12.9133C19.6481 13.9243 20.4881 14.7233 20.5023 15.8433C20.5141 16.7983 19.9341 17.7713 18.5021 19.2043L17.8681 18.7743L18.4041 19.2983C18.0871 19.6234 17.2431 20.4893 15.5921 20.4984H15.5641Z" fill="#AA915E"/>
</svg>
