<svg width="169" height="169" viewBox="0 0 169 169" fill="none" xmlns="http://www.w3.org/2000/svg">
<rect width="169" height="169" rx="8" fill="#AA915E"/>
<g clip-path="url(#clip0_262_2358)">
<path d="M81.9561 128.368C81.4393 119.315 75.5378 111.772 67.4716 108.777C71.3754 106.235 73.9638 101.835 73.9638 96.8394C73.9638 88.9897 67.5787 82.6035 59.7305 82.6035C51.8822 82.6035 45.497 88.9897 45.497 96.8394C45.497 101.835 48.0855 106.235 51.9894 108.777C43.923 111.773 38.0215 119.315 37.5047 128.368C37.4586 129.174 37.7517 129.975 38.3081 130.564C38.8694 131.158 39.6601 131.499 40.4773 131.499H78.9836C79.8008 131.499 80.5915 131.158 81.1527 130.564C81.7092 129.975 82.0022 129.175 81.9561 128.368ZM49.1833 96.8396C49.1833 91.0223 53.9147 86.2899 59.7305 86.2899C65.5463 86.2899 70.2776 91.0225 70.2776 96.8396C70.2776 102.657 65.5463 107.389 59.7305 107.389C53.9147 107.389 49.1833 102.657 49.1833 96.8396ZM41.2442 127.813C42.172 118.367 50.1485 111.075 59.7305 111.075C69.3125 111.075 77.289 118.367 78.2166 127.813H41.2442Z" fill="white"/>
<path d="M105.786 37.5009C86.904 37.3397 74.2532 57.9732 82.7257 74.8482C81.8906 77.8901 79.7181 80.4139 76.8154 81.6737C75.6872 82.1455 75.3442 83.6626 76.1585 84.5742C80.2074 89.4058 87.9782 89.8811 92.569 85.5923C109.436 95.9864 131.676 83.2403 131.499 63.3875C131.499 49.1137 119.965 37.5009 105.786 37.5009ZM105.786 85.5881C101.316 85.5885 97.0139 84.2461 93.3432 81.7096C93.091 81.5369 92.7981 81.4304 92.4951 81.3963C92.0078 81.3465 91.5019 81.4936 91.1263 81.8104C88.5881 84.939 84.177 85.8426 80.7362 83.6819C83.6517 81.6444 85.7324 78.5479 86.481 74.9981C86.5763 74.5463 86.496 74.0994 86.2882 73.725C78.5484 59.2387 89.3629 41.0442 105.786 41.1874C135.006 42.4036 135 84.375 105.786 85.5881Z" fill="white"/>
<path d="M105.516 67.7488C104.498 67.7488 103.673 66.9236 103.673 65.9056V63.958C103.673 62.4673 104.743 61.1624 106.218 60.8555C107.854 60.5149 108.995 59.0507 108.932 57.3738C108.864 55.5978 107.42 54.1565 105.643 54.0929C104.294 54.0439 103.043 54.7927 102.448 55.9991C101.997 56.912 100.892 57.2867 99.9791 56.8362C99.0662 56.3857 98.6915 55.2806 99.1418 54.3677C100.378 51.8627 102.976 50.3086 105.775 50.4089C109.47 50.5414 112.475 53.539 112.615 57.2338C112.742 60.5803 110.552 63.5199 107.359 64.3718V65.9054C107.359 66.9236 106.534 67.7488 105.516 67.7488Z" fill="white"/>
<path d="M105.517 76.4752C104.499 76.4752 103.674 75.6501 103.674 74.6321V73.0736C103.674 72.0556 104.499 71.2305 105.517 71.2305C106.535 71.2305 107.36 72.0556 107.36 73.0736V74.6321C107.36 75.6501 106.535 76.4752 105.517 76.4752Z" fill="white"/>
</g>
<defs>
<clipPath id="clip0_262_2358">
<rect width="94" height="94" fill="white" transform="translate(37.5 37.5)"/>
</clipPath>
</defs>
</svg>
