<svg width="149" height="662" viewBox="0 0 149 662" fill="none" xmlns="http://www.w3.org/2000/svg">
<g opacity="0.87">
<path d="M15.9883 28.8334H22.6753V44.2862C22.6707 46.0475 21.9678 47.7351 20.7207 48.979C19.4737 50.2228 17.7842 50.9213 16.0229 50.9213V55.7026C19.0493 55.6981 21.9505 54.4938 24.0905 52.3538C26.2305 50.2138 27.4347 47.3126 27.4393 44.2862V28.8334H33.0003V24H15.9883V28.8334Z" fill="#AA915E"/>
<path d="M7.67265 37.9977C9.701 37.9977 11.3453 36.3534 11.3453 34.325C11.3453 32.2966 9.701 30.6523 7.67265 30.6523C5.6443 30.6523 4 32.2966 4 34.325C4 36.3534 5.6443 37.9977 7.67265 37.9977Z" fill="#AA915E"/>
<path d="M7.67265 48.7027C9.701 48.7027 11.3453 47.0584 11.3453 45.0301C11.3453 43.0017 9.701 41.3574 7.67265 41.3574C5.6443 41.3574 4 43.0017 4 45.0301C4 47.0584 5.6443 48.7027 7.67265 48.7027Z" fill="#AA915E"/>
<path d="M15.9883 87.8334H22.6753V103.286C22.6707 105.048 21.9678 106.735 20.7207 107.979C19.4737 109.223 17.7842 109.921 16.0229 109.921V114.703C19.0493 114.698 21.9505 113.494 24.0905 111.354C26.2305 109.214 27.4347 106.313 27.4393 103.286V87.8334H33.0003V83H15.9883V87.8334Z" fill="#AA915E"/>
<path d="M7.67265 96.9977C9.701 96.9977 11.3453 95.3534 11.3453 93.325C11.3453 91.2966 9.701 89.6523 7.67265 89.6523C5.6443 89.6523 4 91.2966 4 93.325C4 95.3534 5.6443 96.9977 7.67265 96.9977Z" fill="#AA915E"/>
<path d="M7.67265 107.703C9.701 107.703 11.3453 106.058 11.3453 104.03C11.3453 102.002 9.701 100.357 7.67265 100.357C5.6443 100.357 4 102.002 4 104.03C4 106.058 5.6443 107.703 7.67265 107.703Z" fill="#AA915E"/>
<path d="M11.9883 164.833H18.6753V180.286C18.6707 182.048 17.9678 183.735 16.7207 184.979C15.4737 186.223 13.7842 186.921 12.0229 186.921V191.703C15.0493 191.698 17.9505 190.494 20.0905 188.354C22.2305 186.214 23.4347 183.313 23.4393 180.286V164.833H29.0003V160H11.9883V164.833Z" fill="#AA915E"/>
<path d="M3.67265 173.998C5.701 173.998 7.34535 172.353 7.34535 170.325C7.34535 168.297 5.701 166.652 3.67265 166.652C1.6443 166.652 0 168.297 0 170.325C0 172.353 1.6443 173.998 3.67265 173.998Z" fill="#AA915E"/>
<path d="M3.67265 184.703C5.701 184.703 7.34535 183.058 7.34535 181.03C7.34535 179.002 5.701 177.357 3.67265 177.357C1.6443 177.357 0 179.002 0 181.03C0 183.058 1.6443 184.703 3.67265 184.703Z" fill="#AA915E"/>
<path d="M11.9883 242.833H18.6753V258.286C18.6707 260.048 17.9678 261.735 16.7207 262.979C15.4737 264.223 13.7842 264.921 12.0229 264.921V269.703C15.0493 269.698 17.9505 268.494 20.0905 266.354C22.2305 264.214 23.4347 261.313 23.4393 258.286V242.833H29.0003V238H11.9883V242.833Z" fill="#AA915E"/>
<path d="M3.67265 251.998C5.701 251.998 7.34535 250.353 7.34535 248.325C7.34535 246.297 5.701 244.652 3.67265 244.652C1.6443 244.652 0 246.297 0 248.325C0 250.353 1.6443 251.998 3.67265 251.998Z" fill="#AA915E"/>
<path d="M3.67265 262.703C5.701 262.703 7.34535 261.058 7.34535 259.03C7.34535 257.002 5.701 255.357 3.67265 255.357C1.6443 255.357 0 257.002 0 259.03C0 261.058 1.6443 262.703 3.67265 262.703Z" fill="#AA915E"/>
<path d="M11.9883 328.833H18.6753V344.286C18.6707 346.048 17.9678 347.735 16.7207 348.979C15.4737 350.223 13.7842 350.921 12.0229 350.921V355.703C15.0493 355.698 17.9505 354.494 20.0905 352.354C22.2305 350.214 23.4347 347.313 23.4393 344.286V328.833H29.0003V324H11.9883V328.833Z" fill="#AA915E"/>
<path d="M3.67265 337.998C5.701 337.998 7.34535 336.353 7.34535 334.325C7.34535 332.297 5.701 330.652 3.67265 330.652C1.6443 330.652 0 332.297 0 334.325C0 336.353 1.6443 337.998 3.67265 337.998Z" fill="#AA915E"/>
<path d="M3.67265 348.703C5.701 348.703 7.34535 347.058 7.34535 345.03C7.34535 343.002 5.701 341.357 3.67265 341.357C1.6443 341.357 0 343.002 0 345.03C0 347.058 1.6443 348.703 3.67265 348.703Z" fill="#AA915E"/>
<path d="M11.9883 406.833H18.6753V422.286C18.6707 424.048 17.9678 425.735 16.7207 426.979C15.4737 428.223 13.7842 428.921 12.0229 428.921V433.703C15.0493 433.698 17.9505 432.494 20.0905 430.354C22.2305 428.214 23.4347 425.313 23.4393 422.286V406.833H29.0003V402H11.9883V406.833Z" fill="#AA915E"/>
<path d="M3.67265 415.998C5.701 415.998 7.34535 414.353 7.34535 412.325C7.34535 410.297 5.701 408.652 3.67265 408.652C1.6443 408.652 0 410.297 0 412.325C0 414.353 1.6443 415.998 3.67265 415.998Z" fill="#AA915E"/>
<path d="M3.67265 426.703C5.701 426.703 7.34535 425.058 7.34535 423.03C7.34535 421.002 5.701 419.357 3.67265 419.357C1.6443 419.357 0 421.002 0 423.03C0 425.058 1.6443 426.703 3.67265 426.703Z" fill="#AA915E"/>
<path d="M11.9883 479.833H18.6753V495.286C18.6707 497.048 17.9678 498.735 16.7207 499.979C15.4737 501.223 13.7842 501.921 12.0229 501.921V506.703C15.0493 506.698 17.9505 505.494 20.0905 503.354C22.2305 501.214 23.4347 498.313 23.4393 495.286V479.833H29.0003V475H11.9883V479.833Z" fill="#AA915E"/>
<path d="M3.67265 488.998C5.701 488.998 7.34535 487.353 7.34535 485.325C7.34535 483.297 5.701 481.652 3.67265 481.652C1.6443 481.652 0 483.297 0 485.325C0 487.353 1.6443 488.998 3.67265 488.998Z" fill="#AA915E"/>
<path d="M3.67265 499.703C5.701 499.703 7.34535 498.058 7.34535 496.03C7.34535 494.002 5.701 492.357 3.67265 492.357C1.6443 492.357 0 494.002 0 496.03C0 498.058 1.6443 499.703 3.67265 499.703Z" fill="#AA915E"/>
<path d="M11.9883 556.833H18.6753V572.286C18.6707 574.048 17.9678 575.735 16.7207 576.979C15.4737 578.223 13.7842 578.921 12.0229 578.921V583.703C15.0493 583.698 17.9505 582.494 20.0905 580.354C22.2305 578.214 23.4347 575.313 23.4393 572.286V556.833H29.0003V552H11.9883V556.833Z" fill="#AA915E"/>
<path d="M3.67265 565.998C5.701 565.998 7.34535 564.353 7.34535 562.325C7.34535 560.297 5.701 558.652 3.67265 558.652C1.6443 558.652 0 560.297 0 562.325C0 564.353 1.6443 565.998 3.67265 565.998Z" fill="#AA915E"/>
<path d="M3.67265 576.703C5.701 576.703 7.34535 575.058 7.34535 573.03C7.34535 571.002 5.701 569.357 3.67265 569.357C1.6443 569.357 0 571.002 0 573.03C0 575.058 1.6443 576.703 3.67265 576.703Z" fill="#AA915E"/>
<path d="M11.9883 634.833H18.6753V650.286C18.6707 652.048 17.9678 653.735 16.7207 654.979C15.4737 656.223 13.7842 656.921 12.0229 656.921V661.703C15.0493 661.698 17.9505 660.494 20.0905 658.354C22.2305 656.214 23.4347 653.313 23.4393 650.286V634.833H29.0003V630H11.9883V634.833Z" fill="#AA915E"/>
<path d="M3.67265 643.998C5.701 643.998 7.34535 642.353 7.34535 640.325C7.34535 638.297 5.701 636.652 3.67265 636.652C1.6443 636.652 0 638.297 0 640.325C0 642.353 1.6443 643.998 3.67265 643.998Z" fill="#AA915E"/>
<path d="M3.67265 654.703C5.701 654.703 7.34535 653.058 7.34535 651.03C7.34535 649.002 5.701 647.357 3.67265 647.357C1.6443 647.357 0 649.002 0 651.03C0 653.058 1.6443 654.703 3.67265 654.703Z" fill="#AA915E"/>
<path d="M73.9883 4.83335H80.6753V20.2862C80.6707 22.0475 79.9678 23.7351 78.7207 24.979C77.4737 26.2228 75.7842 26.9213 74.0229 26.9213V31.7026C77.0493 31.6981 79.9505 30.4938 82.0905 28.3538C84.2305 26.2138 85.4347 23.3126 85.4393 20.2862V4.83335H91.0003V0H73.9883V4.83335Z" fill="#AA915E"/>
<path d="M65.6726 13.9977C67.701 13.9977 69.3453 12.3534 69.3453 10.325C69.3453 8.29665 67.701 6.65234 65.6726 6.65234C63.6443 6.65234 62 8.29665 62 10.325C62 12.3534 63.6443 13.9977 65.6726 13.9977Z" fill="#AA915E"/>
<path d="M65.6726 24.7027C67.701 24.7027 69.3453 23.0584 69.3453 21.0301C69.3453 19.0017 67.701 17.3574 65.6726 17.3574C63.6443 17.3574 62 19.0017 62 21.0301C62 23.0584 63.6443 24.7027 65.6726 24.7027Z" fill="#AA915E"/>
<path d="M73.9883 82.8334H80.6753V98.2862C80.6707 100.048 79.9678 101.735 78.7207 102.979C77.4737 104.223 75.7842 104.921 74.0229 104.921V109.703C77.0493 109.698 79.9505 108.494 82.0905 106.354C84.2305 104.214 85.4347 101.313 85.4393 98.2862V82.8334H91.0003V78H73.9883V82.8334Z" fill="#AA915E"/>
<path d="M65.6726 91.9977C67.701 91.9977 69.3453 90.3534 69.3453 88.325C69.3453 86.2966 67.701 84.6523 65.6726 84.6523C63.6443 84.6523 62 86.2966 62 88.325C62 90.3534 63.6443 91.9977 65.6726 91.9977Z" fill="#AA915E"/>
<path d="M65.6726 102.703C67.701 102.703 69.3453 101.058 69.3453 99.0301C69.3453 97.0017 67.701 95.3574 65.6726 95.3574C63.6443 95.3574 62 97.0017 62 99.0301C62 101.058 63.6443 102.703 65.6726 102.703Z" fill="#AA915E"/>
<path d="M73.9883 160.833H80.6753V176.286C80.6707 178.048 79.9678 179.735 78.7207 180.979C77.4737 182.223 75.7842 182.921 74.0229 182.921V187.703C77.0493 187.698 79.9505 186.494 82.0905 184.354C84.2305 182.214 85.4347 179.313 85.4393 176.286V160.833H91.0003V156H73.9883V160.833Z" fill="#AA915E"/>
<path d="M65.6726 169.998C67.701 169.998 69.3453 168.353 69.3453 166.325C69.3453 164.297 67.701 162.652 65.6726 162.652C63.6443 162.652 62 164.297 62 166.325C62 168.353 63.6443 169.998 65.6726 169.998Z" fill="#AA915E"/>
<path d="M65.6726 180.703C67.701 180.703 69.3453 179.058 69.3453 177.03C69.3453 175.002 67.701 173.357 65.6726 173.357C63.6443 173.357 62 175.002 62 177.03C62 179.058 63.6443 180.703 65.6726 180.703Z" fill="#AA915E"/>
<path d="M73.9883 238.833H80.6753V254.286C80.6707 256.048 79.9678 257.735 78.7207 258.979C77.4737 260.223 75.7842 260.921 74.0229 260.921V265.703C77.0493 265.698 79.9505 264.494 82.0905 262.354C84.2305 260.214 85.4347 257.313 85.4393 254.286V238.833H91.0003V234H73.9883V238.833Z" fill="#AA915E"/>
<path d="M65.6726 247.998C67.701 247.998 69.3453 246.353 69.3453 244.325C69.3453 242.297 67.701 240.652 65.6726 240.652C63.6443 240.652 62 242.297 62 244.325C62 246.353 63.6443 247.998 65.6726 247.998Z" fill="#AA915E"/>
<path d="M65.6726 258.703C67.701 258.703 69.3453 257.058 69.3453 255.03C69.3453 253.002 67.701 251.357 65.6726 251.357C63.6443 251.357 62 253.002 62 255.03C62 257.058 63.6443 258.703 65.6726 258.703Z" fill="#AA915E"/>
<path d="M73.9883 315.833H80.6753V331.286C80.6707 333.048 79.9678 334.735 78.7207 335.979C77.4737 337.223 75.7842 337.921 74.0229 337.921V342.703C77.0493 342.698 79.9505 341.494 82.0905 339.354C84.2305 337.214 85.4347 334.313 85.4393 331.286V315.833H91.0003V311H73.9883V315.833Z" fill="#AA915E"/>
<path d="M65.6726 324.998C67.701 324.998 69.3453 323.353 69.3453 321.325C69.3453 319.297 67.701 317.652 65.6726 317.652C63.6443 317.652 62 319.297 62 321.325C62 323.353 63.6443 324.998 65.6726 324.998Z" fill="#AA915E"/>
<path d="M65.6726 335.703C67.701 335.703 69.3453 334.058 69.3453 332.03C69.3453 330.002 67.701 328.357 65.6726 328.357C63.6443 328.357 62 330.002 62 332.03C62 334.058 63.6443 335.703 65.6726 335.703Z" fill="#AA915E"/>
<path d="M73.9883 393.833H80.6753V409.286C80.6707 411.048 79.9678 412.735 78.7207 413.979C77.4737 415.223 75.7842 415.921 74.0229 415.921V420.703C77.0493 420.698 79.9505 419.494 82.0905 417.354C84.2305 415.214 85.4347 412.313 85.4393 409.286V393.833H91.0003V389H73.9883V393.833Z" fill="#AA915E"/>
<path d="M65.6726 402.998C67.701 402.998 69.3453 401.353 69.3453 399.325C69.3453 397.297 67.701 395.652 65.6726 395.652C63.6443 395.652 62 397.297 62 399.325C62 401.353 63.6443 402.998 65.6726 402.998Z" fill="#AA915E"/>
<path d="M65.6726 413.703C67.701 413.703 69.3453 412.058 69.3453 410.03C69.3453 408.002 67.701 406.357 65.6726 406.357C63.6443 406.357 62 408.002 62 410.03C62 412.058 63.6443 413.703 65.6726 413.703Z" fill="#AA915E"/>
<path d="M73.9883 471.833H80.6753V487.286C80.6707 489.048 79.9678 490.735 78.7207 491.979C77.4737 493.223 75.7842 493.921 74.0229 493.921V498.703C77.0493 498.698 79.9505 497.494 82.0905 495.354C84.2305 493.214 85.4347 490.313 85.4393 487.286V471.833H91.0003V467H73.9883V471.833Z" fill="#AA915E"/>
<path d="M65.6726 480.998C67.701 480.998 69.3453 479.353 69.3453 477.325C69.3453 475.297 67.701 473.652 65.6726 473.652C63.6443 473.652 62 475.297 62 477.325C62 479.353 63.6443 480.998 65.6726 480.998Z" fill="#AA915E"/>
<path d="M65.6726 491.703C67.701 491.703 69.3453 490.058 69.3453 488.03C69.3453 486.002 67.701 484.357 65.6726 484.357C63.6443 484.357 62 486.002 62 488.03C62 490.058 63.6443 491.703 65.6726 491.703Z" fill="#AA915E"/>
<path d="M73.9883 548.833H80.6753V564.286C80.6707 566.048 79.9678 567.735 78.7207 568.979C77.4737 570.223 75.7842 570.921 74.0229 570.921V575.703C77.0493 575.698 79.9505 574.494 82.0905 572.354C84.2305 570.214 85.4347 567.313 85.4393 564.286V548.833H91.0003V544H73.9883V548.833Z" fill="#AA915E"/>
<path d="M65.6726 557.998C67.701 557.998 69.3453 556.353 69.3453 554.325C69.3453 552.297 67.701 550.652 65.6726 550.652C63.6443 550.652 62 552.297 62 554.325C62 556.353 63.6443 557.998 65.6726 557.998Z" fill="#AA915E"/>
<path d="M65.6726 568.703C67.701 568.703 69.3453 567.058 69.3453 565.03C69.3453 563.002 67.701 561.357 65.6726 561.357C63.6443 561.357 62 563.002 62 565.03C62 567.058 63.6443 568.703 65.6726 568.703Z" fill="#AA915E"/>
<path d="M73.9883 626.833H80.6753V642.286C80.6707 644.048 79.9678 645.735 78.7207 646.979C77.4737 648.223 75.7842 648.921 74.0229 648.921V653.703C77.0493 653.698 79.9505 652.494 82.0905 650.354C84.2305 648.214 85.4347 645.313 85.4393 642.286V626.833H91.0003V622H73.9883V626.833Z" fill="#AA915E"/>
<path d="M65.6726 635.998C67.701 635.998 69.3453 634.353 69.3453 632.325C69.3453 630.297 67.701 628.652 65.6726 628.652C63.6443 628.652 62 630.297 62 632.325C62 634.353 63.6443 635.998 65.6726 635.998Z" fill="#AA915E"/>
<path d="M65.6726 646.703C67.701 646.703 69.3453 645.058 69.3453 643.03C69.3453 641.002 67.701 639.357 65.6726 639.357C63.6443 639.357 62 641.002 62 643.03C62 645.058 63.6443 646.703 65.6726 646.703Z" fill="#AA915E"/>
<path d="M131.988 4.83335H138.675V20.2862C138.671 22.0475 137.968 23.7351 136.721 24.979C135.474 26.2228 133.784 26.9213 132.023 26.9213V31.7026C135.049 31.6981 137.95 30.4938 140.09 28.3538C142.23 26.2138 143.435 23.3126 143.439 20.2862V4.83335H149V0H131.988V4.83335Z" fill="#AA915E"/>
<path d="M123.673 13.9977C125.701 13.9977 127.345 12.3534 127.345 10.325C127.345 8.29665 125.701 6.65234 123.673 6.65234C121.644 6.65234 120 8.29665 120 10.325C120 12.3534 121.644 13.9977 123.673 13.9977Z" fill="#AA915E"/>
<path d="M123.673 24.7027C125.701 24.7027 127.345 23.0584 127.345 21.0301C127.345 19.0017 125.701 17.3574 123.673 17.3574C121.644 17.3574 120 19.0017 120 21.0301C120 23.0584 121.644 24.7027 123.673 24.7027Z" fill="#AA915E"/>
<path d="M131.988 82.8334H138.675V98.2862C138.671 100.048 137.968 101.735 136.721 102.979C135.474 104.223 133.784 104.921 132.023 104.921V109.703C135.049 109.698 137.95 108.494 140.09 106.354C142.23 104.214 143.435 101.313 143.439 98.2862V82.8334H149V78H131.988V82.8334Z" fill="#AA915E"/>
<path d="M123.673 91.9977C125.701 91.9977 127.345 90.3534 127.345 88.325C127.345 86.2966 125.701 84.6523 123.673 84.6523C121.644 84.6523 120 86.2966 120 88.325C120 90.3534 121.644 91.9977 123.673 91.9977Z" fill="#AA915E"/>
<path d="M123.673 102.703C125.701 102.703 127.345 101.058 127.345 99.0301C127.345 97.0017 125.701 95.3574 123.673 95.3574C121.644 95.3574 120 97.0017 120 99.0301C120 101.058 121.644 102.703 123.673 102.703Z" fill="#AA915E"/>
<path d="M131.988 160.833H138.675V176.286C138.671 178.048 137.968 179.735 136.721 180.979C135.474 182.223 133.784 182.921 132.023 182.921V187.703C135.049 187.698 137.95 186.494 140.09 184.354C142.23 182.214 143.435 179.313 143.439 176.286V160.833H149V156H131.988V160.833Z" fill="#AA915E"/>
<path d="M123.673 169.998C125.701 169.998 127.345 168.353 127.345 166.325C127.345 164.297 125.701 162.652 123.673 162.652C121.644 162.652 120 164.297 120 166.325C120 168.353 121.644 169.998 123.673 169.998Z" fill="#AA915E"/>
<path d="M123.673 180.703C125.701 180.703 127.345 179.058 127.345 177.03C127.345 175.002 125.701 173.357 123.673 173.357C121.644 173.357 120 175.002 120 177.03C120 179.058 121.644 180.703 123.673 180.703Z" fill="#AA915E"/>
<path d="M131.988 238.833H138.675V254.286C138.671 256.048 137.968 257.735 136.721 258.979C135.474 260.223 133.784 260.921 132.023 260.921V265.703C135.049 265.698 137.95 264.494 140.09 262.354C142.23 260.214 143.435 257.313 143.439 254.286V238.833H149V234H131.988V238.833Z" fill="#AA915E"/>
<path d="M123.673 247.998C125.701 247.998 127.345 246.353 127.345 244.325C127.345 242.297 125.701 240.652 123.673 240.652C121.644 240.652 120 242.297 120 244.325C120 246.353 121.644 247.998 123.673 247.998Z" fill="#AA915E"/>
<path d="M123.673 258.703C125.701 258.703 127.345 257.058 127.345 255.03C127.345 253.002 125.701 251.357 123.673 251.357C121.644 251.357 120 253.002 120 255.03C120 257.058 121.644 258.703 123.673 258.703Z" fill="#AA915E"/>
<path d="M131.988 315.833H138.675V331.286C138.671 333.048 137.968 334.735 136.721 335.979C135.474 337.223 133.784 337.921 132.023 337.921V342.703C135.049 342.698 137.95 341.494 140.09 339.354C142.23 337.214 143.435 334.313 143.439 331.286V315.833H149V311H131.988V315.833Z" fill="#AA915E"/>
<path d="M123.673 324.998C125.701 324.998 127.345 323.353 127.345 321.325C127.345 319.297 125.701 317.652 123.673 317.652C121.644 317.652 120 319.297 120 321.325C120 323.353 121.644 324.998 123.673 324.998Z" fill="#AA915E"/>
<path d="M123.673 335.703C125.701 335.703 127.345 334.058 127.345 332.03C127.345 330.002 125.701 328.357 123.673 328.357C121.644 328.357 120 330.002 120 332.03C120 334.058 121.644 335.703 123.673 335.703Z" fill="#AA915E"/>
<path d="M131.988 393.833H138.675V409.286C138.671 411.048 137.968 412.735 136.721 413.979C135.474 415.223 133.784 415.921 132.023 415.921V420.703C135.049 420.698 137.95 419.494 140.09 417.354C142.23 415.214 143.435 412.313 143.439 409.286V393.833H149V389H131.988V393.833Z" fill="#AA915E"/>
<path d="M123.673 402.998C125.701 402.998 127.345 401.353 127.345 399.325C127.345 397.297 125.701 395.652 123.673 395.652C121.644 395.652 120 397.297 120 399.325C120 401.353 121.644 402.998 123.673 402.998Z" fill="#AA915E"/>
<path d="M123.673 413.703C125.701 413.703 127.345 412.058 127.345 410.03C127.345 408.002 125.701 406.357 123.673 406.357C121.644 406.357 120 408.002 120 410.03C120 412.058 121.644 413.703 123.673 413.703Z" fill="#AA915E"/>
<path d="M131.988 471.833H138.675V487.286C138.671 489.048 137.968 490.735 136.721 491.979C135.474 493.223 133.784 493.921 132.023 493.921V498.703C135.049 498.698 137.95 497.494 140.09 495.354C142.23 493.214 143.435 490.313 143.439 487.286V471.833H149V467H131.988V471.833Z" fill="#AA915E"/>
<path d="M123.673 480.998C125.701 480.998 127.345 479.353 127.345 477.325C127.345 475.297 125.701 473.652 123.673 473.652C121.644 473.652 120 475.297 120 477.325C120 479.353 121.644 480.998 123.673 480.998Z" fill="#AA915E"/>
<path d="M123.673 491.703C125.701 491.703 127.345 490.058 127.345 488.03C127.345 486.002 125.701 484.357 123.673 484.357C121.644 484.357 120 486.002 120 488.03C120 490.058 121.644 491.703 123.673 491.703Z" fill="#AA915E"/>
<path d="M131.988 548.833H138.675V564.286C138.671 566.048 137.968 567.735 136.721 568.979C135.474 570.223 133.784 570.921 132.023 570.921V575.703C135.049 575.698 137.95 574.494 140.09 572.354C142.23 570.214 143.435 567.313 143.439 564.286V548.833H149V544H131.988V548.833Z" fill="#AA915E"/>
<path d="M123.673 557.998C125.701 557.998 127.345 556.353 127.345 554.325C127.345 552.297 125.701 550.652 123.673 550.652C121.644 550.652 120 552.297 120 554.325C120 556.353 121.644 557.998 123.673 557.998Z" fill="#AA915E"/>
<path d="M123.673 568.703C125.701 568.703 127.345 567.058 127.345 565.03C127.345 563.002 125.701 561.357 123.673 561.357C121.644 561.357 120 563.002 120 565.03C120 567.058 121.644 568.703 123.673 568.703Z" fill="#AA915E"/>
<path d="M131.988 601.833H138.675V617.286C138.671 619.048 137.968 620.735 136.721 621.979C135.474 623.223 133.784 623.921 132.023 623.921V628.703C135.049 628.698 137.95 627.494 140.09 625.354C142.23 623.214 143.435 620.313 143.439 617.286V601.833H149V597H131.988V601.833Z" fill="#AA915E"/>
<path d="M123.673 610.998C125.701 610.998 127.345 609.353 127.345 607.325C127.345 605.297 125.701 603.652 123.673 603.652C121.644 603.652 120 605.297 120 607.325C120 609.353 121.644 610.998 123.673 610.998Z" fill="#AA915E"/>
<path d="M123.673 621.703C125.701 621.703 127.345 620.058 127.345 618.03C127.345 616.002 125.701 614.357 123.673 614.357C121.644 614.357 120 616.002 120 618.03C120 620.058 121.644 621.703 123.673 621.703Z" fill="#AA915E"/>
</g>
</svg>
