<svg width="269" height="558" viewBox="0 0 269 558" fill="none" xmlns="http://www.w3.org/2000/svg">
<g opacity="0.07">
<path d="M89.4017 -595.263V-579.757C89.4139 -569.314 91.7123 -559 96.1354 -549.54C100.558 -540.08 106.999 -531.703 115.005 -524.997C123.01 -518.292 132.387 -513.42 142.476 -510.724C152.566 -508.029 163.123 -507.575 173.406 -509.394L212.66 -516.362C229.638 -512.338 242.101 -494.87 242.101 -410.277V-360.228C234.305 -365.835 225.352 -369.624 215.899 -371.317L173.897 -378.775C163.605 -380.596 153.04 -380.14 142.943 -377.438C132.847 -374.737 123.465 -369.857 115.458 -363.14C107.45 -356.424 101.012 -348.034 96.595 -338.562C92.1781 -329.09 89.8903 -318.765 89.8924 -308.314V-292.808C89.9147 -274.988 96.5869 -257.818 108.603 -244.658C120.619 -231.499 137.114 -223.298 154.858 -221.66L161.433 -248.255C149.651 -248.28 138.359 -252.972 130.027 -261.304C121.696 -269.635 117.004 -280.928 116.978 -292.71V-308.216C116.979 -314.71 118.402 -321.124 121.148 -327.009C123.895 -332.894 127.897 -338.105 132.873 -342.277C137.849 -346.449 143.68 -349.481 149.953 -351.158C156.227 -352.835 162.792 -353.117 169.186 -351.984L211.188 -344.526C219.887 -343 227.768 -338.452 233.441 -331.683C239.115 -324.915 242.216 -316.36 242.199 -307.529V-123.72C234.367 -129.309 225.379 -133.065 215.899 -134.711L173.897 -142.17C163.613 -143.989 153.056 -143.535 142.967 -140.839C132.878 -138.144 123.501 -133.272 115.495 -126.566C107.49 -119.861 101.049 -111.483 96.626 -102.023C92.203 -92.5631 89.9046 -82.2493 89.8924 -71.8062V-56.3009C89.8924 -17.8317 125.516 15.6325 156.134 37.4187H6.5751L0 64.5042H204.122L210.109 38.7927C184.103 25.8388 116.487 -16.4578 116.487 -56.3009V-71.8062C116.488 -78.3001 117.912 -84.7152 120.658 -90.5999C123.404 -96.4846 127.406 -101.696 132.382 -105.868C137.359 -110.04 143.189 -113.071 149.463 -114.748C155.736 -116.425 162.301 -116.708 168.695 -115.575L210.698 -108.117C219.396 -106.552 227.268 -101.979 232.936 -95.1979C238.605 -88.4171 241.71 -79.8595 241.708 -71.0213L241.708 305.722C241.683 315.683 237.714 325.228 230.671 332.271C223.628 339.314 214.083 343.282 204.122 343.308H6.77137L0 370.59H204.122C221.266 370.564 237.701 363.742 249.823 351.619C261.946 339.497 268.768 323.062 268.794 305.918L268.794 -410.473C268.794 -477.696 258.98 -511.946 242.984 -529.021C251.001 -535.029 257.507 -542.822 261.987 -551.782C266.467 -560.742 268.798 -570.623 268.794 -580.64V-602.329C268.768 -619.473 261.946 -635.907 249.823 -648.029C237.701 -660.152 221.266 -666.974 204.122 -667H160.943C151.535 -666.987 142.222 -665.121 133.535 -661.509C124.848 -657.897 116.958 -652.609 110.315 -645.948C103.672 -639.287 98.4056 -631.382 94.8173 -622.685C91.229 -613.989 89.3888 -604.671 89.4017 -595.263ZM204.122 -640.209C214.083 -640.183 223.628 -636.215 230.671 -629.172C237.714 -622.129 241.683 -612.584 241.708 -602.623V-580.935C241.706 -572.108 238.598 -563.564 232.928 -556.799C227.258 -550.035 219.388 -545.482 210.698 -543.938L168.695 -536.479C162.301 -535.347 155.736 -535.629 149.463 -537.306C143.189 -538.983 137.359 -542.014 132.382 -546.186C127.406 -550.358 123.404 -555.57 120.658 -561.454C117.912 -567.339 116.488 -573.754 116.487 -580.248V-595.753C116.487 -607.544 121.171 -618.851 129.508 -627.188C137.845 -635.525 149.152 -640.209 160.943 -640.209H204.122Z" fill="white"/>
<path d="M115.702 489.521V451.641H203.239C213.217 451.667 222.777 455.649 229.823 462.713C236.869 469.778 240.825 479.348 240.825 489.325H267.911C267.885 472.181 261.063 455.747 248.94 443.624C236.818 431.502 220.383 424.68 203.239 424.654H115.702V393.152H88.3223V489.521H115.702Z" fill="white"/>
<path d="M167.613 536.625C167.613 525.135 158.299 515.82 146.809 515.82C135.319 515.82 126.004 525.135 126.004 536.625C126.004 548.115 135.319 557.43 146.809 557.43C158.299 557.43 167.613 548.115 167.613 536.625Z" fill="#AA915E"/>
<path d="M229.61 536.805C229.61 525.314 220.295 516 208.805 516C197.315 516 188 525.314 188 536.805C188 548.295 197.315 557.609 208.805 557.609C220.295 557.609 229.61 548.295 229.61 536.805Z" fill="#AA915E"/>
</g>
</svg>
