<svg width="262" height="261" viewBox="0 0 262 261" fill="none" xmlns="http://www.w3.org/2000/svg">
<circle cx="130.75" cy="130.5" r="130.5" fill="#AA915E"/>
<circle cx="131.243" cy="130.993" r="70.3872" stroke="white" stroke-width="1.5"/>
<path d="M130.251 42.3305C129.147 42.3305 128.14 42.1361 127.23 41.7471C126.32 41.3581 125.537 40.8009 124.881 40.0753C124.224 39.3423 123.717 38.4596 123.359 37.4274C123.008 36.3877 122.833 35.217 122.833 33.9155C122.833 32.1951 123.139 30.7066 123.751 29.45C124.362 28.1933 125.224 27.2246 126.335 26.544C127.446 25.8558 128.752 25.5117 130.251 25.5117C132.056 25.5117 133.51 25.9343 134.614 26.7796C135.718 27.6173 136.479 28.7655 136.897 30.2241L134.883 30.6393C134.547 29.6594 133.995 28.8777 133.227 28.2943C132.459 27.7108 131.5 27.4191 130.352 27.4191C129.151 27.4116 128.151 27.6809 127.353 28.227C126.562 28.7655 125.966 29.5248 125.563 30.5046C125.16 31.4845 124.955 32.6215 124.948 33.9155C124.94 35.2021 125.138 36.3316 125.541 37.304C125.943 38.2764 126.544 39.0393 127.342 39.5929C128.147 40.1389 129.151 40.4157 130.352 40.4231C131.388 40.4306 132.261 40.2324 132.97 39.8285C133.678 39.4246 134.226 38.8411 134.614 38.0782C135.002 37.3152 135.237 36.3989 135.319 35.3292H131.896V33.6799H137.423C137.445 33.8295 137.456 34.009 137.456 34.2185C137.464 34.4204 137.467 34.5588 137.467 34.6336C137.467 36.1072 137.191 37.4274 136.639 38.5943C136.095 39.7537 135.286 40.6662 134.212 41.332C133.145 41.9977 131.825 42.3305 130.251 42.3305Z" fill="white"/>
<path d="M143.412 43.5257C142.24 43.3441 141.255 42.9267 140.458 42.2734C139.669 41.6138 139.103 40.7806 138.76 39.7738C138.418 38.7596 138.343 37.6278 138.535 36.3785C138.737 35.0701 139.151 33.9762 139.777 33.0968C140.404 32.21 141.185 31.5741 142.12 31.1891C143.063 30.7978 144.113 30.6918 145.27 30.8711C146.472 31.0572 147.45 31.4925 148.205 32.1771C148.968 32.8629 149.48 33.752 149.742 34.8447C150.011 35.9384 150.007 37.1904 149.729 38.6006L147.739 38.2923L147.848 37.5826C148.053 36.1081 147.923 34.9641 147.46 34.1506C146.997 33.3297 146.199 32.8313 145.064 32.6555C143.847 32.4671 142.862 32.7156 142.107 33.401C141.353 34.0864 140.863 35.1609 140.637 36.6246C140.42 38.0366 140.568 39.1797 141.082 40.0541C141.597 40.9285 142.44 41.4565 143.612 41.638C144.401 41.7602 145.114 41.6853 145.752 41.4133C146.391 41.1412 146.928 40.6909 147.364 40.0622L149.154 41.0093C148.527 41.9944 147.7 42.7065 146.674 43.1455C145.657 43.5782 144.569 43.705 143.412 43.5257ZM139.888 37.0763L140.132 35.4906L148.956 36.8574L148.712 38.443L139.888 37.0763Z" fill="white"/>
<path d="M160.841 47.6304C160.116 47.5492 159.423 47.3883 158.764 47.1477C158.109 46.9164 157.561 46.5971 157.118 46.1899C156.678 45.7755 156.405 45.2652 156.299 44.6588C156.215 44.1302 156.236 43.6307 156.361 43.1604C156.495 42.6852 156.656 42.1517 156.842 41.5598L160.124 31.1622L162.022 31.7647L158.768 42.0768C158.62 42.5475 158.496 42.9515 158.397 43.2889C158.306 43.6286 158.289 43.9412 158.348 44.2265C158.46 44.7642 158.781 45.1602 159.311 45.4147C159.848 45.6715 160.53 45.8645 161.358 45.9937L160.841 47.6304ZM156.279 35.2024L156.775 33.6299L164.487 36.0775L163.991 37.65L156.279 35.2024Z" fill="white"/>
<path d="M181.263 58.9088C180.085 58.0782 179.299 57.1392 178.903 56.0916C178.517 55.0423 178.565 53.9924 179.046 52.9419L180.899 53.8506C180.655 54.4837 180.663 55.1293 180.922 55.7874C181.185 56.4394 181.673 57.0171 182.387 57.5206C183.064 57.9983 183.694 58.232 184.275 58.2216C184.857 58.2113 185.318 57.9645 185.657 57.4812C185.854 57.1997 185.949 56.9282 185.941 56.6665C185.937 56.3987 185.788 56.0463 185.492 55.6093C185.203 55.1767 184.731 54.5692 184.076 53.7871C183.366 52.9392 182.849 52.2134 182.525 51.6097C182.201 51.0059 182.048 50.4636 182.066 49.9826C182.084 49.5016 182.258 49.0255 182.589 48.5544C182.996 47.9732 183.511 47.5773 184.133 47.3667C184.759 47.15 185.44 47.1224 186.175 47.284C186.915 47.4499 187.664 47.7997 188.421 48.3333C189.171 48.8626 189.758 49.4553 190.183 50.1113C190.607 50.7674 190.845 51.4426 190.896 52.137C190.957 52.8296 190.818 53.4902 190.477 54.1187L188.599 53.2468C188.893 52.6585 188.931 52.0587 188.712 51.4472C188.5 50.8401 188.061 50.2885 187.397 49.7925C186.774 49.3162 186.173 49.0614 185.594 49.0282C185.022 48.9993 184.585 49.199 184.285 49.6273C184.117 49.8659 184.047 50.1225 184.073 50.3971C184.106 50.676 184.269 51.0339 184.565 51.4709C184.866 51.9122 185.336 52.504 185.973 53.2463C186.691 54.0819 187.208 54.8077 187.524 55.4237C187.85 56.0378 187.995 56.5976 187.96 57.1031C187.929 57.6025 187.733 58.1091 187.373 58.623C186.703 59.5775 185.825 60.0825 184.737 60.1383C183.653 60.1879 182.495 59.7781 181.263 58.9088Z" fill="white"/>
<path d="M195.055 70.3486C194.441 69.953 193.891 69.5007 193.407 68.9916C192.922 68.493 192.572 67.9628 192.356 67.4009C192.144 66.8336 192.125 66.2547 192.299 65.6642C192.458 65.1533 192.697 64.7149 193.017 64.349C193.348 63.9829 193.728 63.5762 194.157 63.1289L201.698 55.271L203.133 56.6559L195.654 64.4491C195.313 64.8048 195.023 65.1119 194.786 65.3704C194.553 65.6341 194.4 65.9068 194.326 66.1886C194.189 66.7203 194.301 67.218 194.664 67.6819C195.031 68.151 195.557 68.6275 196.242 69.1117L195.055 70.3486ZM196.465 57.1807L197.605 55.9924L203.434 61.6175L202.293 62.8059L196.465 57.1807Z" fill="white"/>
<path d="M200.416 77.3153C199.869 76.5955 199.54 75.8919 199.43 75.2046C199.331 74.5187 199.403 73.8853 199.646 73.3044C199.894 72.7295 200.276 72.2447 200.792 71.8502C201.296 71.4648 201.804 71.2267 202.317 71.1359C202.84 71.0465 203.356 71.0844 203.866 71.2495C204.382 71.41 204.897 71.6797 205.41 72.0587C205.883 72.4215 206.378 72.8515 206.897 73.3486C207.426 73.8472 207.95 74.3584 208.471 74.8825C208.991 75.4065 209.479 75.8941 209.934 76.3454L209.171 76.026C210.039 75.3908 210.539 74.7354 210.673 74.0596C210.811 73.3898 210.545 72.6147 209.876 71.7343C209.433 71.1513 208.911 70.7417 208.309 70.5055C207.718 70.2708 207.058 70.2909 206.329 70.5659L205.637 68.711C206.655 68.2991 207.658 68.2426 208.645 68.5416C209.632 68.8406 210.539 69.5344 211.367 70.623C212.031 71.4975 212.444 72.3672 212.604 73.2321C212.775 74.0985 212.65 74.9089 212.229 75.6632C212.037 76.0267 211.779 76.3601 211.456 76.6633C211.139 76.962 210.791 77.2565 210.411 77.5467L204.467 82.0904L203.396 80.6805L205.7 78.9188L205.738 79.4122C204.685 79.6434 203.711 79.5837 202.816 79.2331C201.926 78.8885 201.126 78.2492 200.416 77.3153ZM201.925 76.5427C202.359 77.1138 202.835 77.5305 203.353 77.7927C203.882 78.0564 204.41 78.1891 204.936 78.191C205.469 78.1883 205.963 78.0737 206.419 77.8472C206.784 77.7097 207.149 77.5057 207.516 77.235C207.892 76.9658 208.179 76.7563 208.374 76.6067L208.555 77.3436C208.09 76.8804 207.635 76.424 207.19 75.9741C206.745 75.5243 206.314 75.1058 205.898 74.7186C205.488 74.3269 205.097 73.9911 204.724 73.7112C204.442 73.5129 204.148 73.3477 203.841 73.2155C203.539 73.0892 203.23 73.034 202.913 73.0499C202.608 73.0673 202.304 73.1916 202.001 73.4228C201.74 73.6224 201.541 73.8783 201.403 74.1905C201.27 74.5087 201.235 74.8643 201.299 75.2573C201.368 75.6562 201.577 76.0847 201.925 76.5427Z" fill="white"/>
<path d="M207.31 86.9158L217.926 81.127L218.776 82.6943L216.21 84.0932L216.405 83.6547C216.801 83.6009 217.19 83.5975 217.572 83.6446C217.957 83.6982 218.306 83.8016 218.619 83.9549C218.991 84.1094 219.331 84.3286 219.638 84.6125C219.944 84.8965 220.206 85.2138 220.421 85.5645C220.643 85.9117 220.804 86.2626 220.903 86.6173L219.261 87.5124C219.16 87.0908 218.967 86.6724 218.683 86.2572C218.398 85.8419 218.017 85.522 217.538 85.2975C217.111 85.088 216.671 84.9827 216.221 84.9815C215.774 84.9869 215.327 85.0642 214.882 85.2135C214.443 85.3592 214.014 85.5464 213.595 85.7751L208.267 88.6802L207.31 86.9158Z" fill="white"/>
<path d="M215.664 105.932C215.288 105.304 214.996 104.655 214.787 103.983C214.574 103.32 214.495 102.689 214.549 102.09C214.611 101.487 214.85 100.96 215.267 100.508C215.635 100.121 216.044 99.8344 216.493 99.649C216.951 99.468 217.471 99.2726 218.054 99.0628L228.289 95.3764L228.962 97.256L218.811 100.912C218.348 101.079 217.953 101.225 217.625 101.351C217.3 101.484 217.043 101.66 216.852 101.88C216.493 102.295 216.374 102.791 216.493 103.368C216.615 103.952 216.876 104.613 217.275 105.352L215.664 105.932ZM222.754 94.7591L224.302 94.2016L227.036 101.836L225.488 102.394L222.754 94.7591Z" fill="white"/>
<path d="M217.544 115.382C217.319 114.214 217.378 113.143 217.721 112.17C218.073 111.202 218.664 110.386 219.493 109.722C220.329 109.057 221.366 108.604 222.603 108.363C223.9 108.111 225.066 108.132 226.103 108.425C227.147 108.717 228.008 109.24 228.685 109.992C229.371 110.75 229.826 111.705 230.049 112.858C230.28 114.055 230.202 115.126 229.815 116.069C229.429 117.021 228.768 117.805 227.831 118.421C226.895 119.045 225.719 119.464 224.302 119.679L223.918 117.696L224.621 117.56C226.074 117.254 227.104 116.745 227.711 116.033C228.325 115.319 228.523 114.397 228.304 113.266C228.07 112.054 227.503 111.208 226.605 110.728C225.707 110.247 224.533 110.148 223.083 110.43C221.684 110.702 220.662 111.228 220.015 112.009C219.368 112.791 219.158 113.765 219.384 114.932C219.536 115.718 219.847 116.366 220.318 116.876C220.789 117.387 221.393 117.742 222.131 117.941L221.847 119.951C220.71 119.692 219.763 119.152 219.004 118.332C218.254 117.518 217.767 116.534 217.544 115.382ZM222.406 109.876L223.977 109.57L225.676 118.36L224.106 118.666L222.406 109.876Z" fill="white"/>
<path d="M219.09 129.101C219.047 127.972 219.29 126.993 219.818 126.165C220.353 125.336 221.094 124.682 222.038 124.204C222.983 123.734 224.059 123.475 225.267 123.429C226.474 123.382 227.567 123.558 228.545 123.954C229.523 124.358 230.304 124.953 230.886 125.739C231.476 126.525 231.792 127.478 231.835 128.6C231.879 129.743 231.64 130.714 231.118 131.513C230.596 132.311 229.862 132.927 228.916 133.36C227.97 133.801 226.889 134.045 225.674 134.091C224.474 134.137 223.382 133.977 222.398 133.611C221.421 133.252 220.635 132.694 220.039 131.939C219.45 131.183 219.134 130.237 219.09 129.101ZM220.922 129.277C220.953 130.092 221.173 130.754 221.58 131.262C221.995 131.77 222.55 132.134 223.245 132.354C223.948 132.582 224.739 132.679 225.619 132.645C226.513 132.611 227.295 132.453 227.963 132.173C228.64 131.9 229.158 131.498 229.518 130.968C229.886 130.437 230.055 129.776 230.025 128.984C229.993 128.161 229.766 127.489 229.343 126.966C228.92 126.451 228.361 126.076 227.665 125.841C226.97 125.613 226.197 125.515 225.348 125.548C224.491 125.581 223.72 125.741 223.037 126.03C222.362 126.318 221.832 126.731 221.45 127.27C221.068 127.816 220.892 128.485 220.922 129.277ZM219.571 132.877L228.459 132.536L228.45 132.312L235.661 132.034L235.738 134.041L219.639 134.66L219.571 132.877Z" fill="white"/>
<path d="M224.821 157.253L226.234 156.118L227.878 158.375L229.345 155.986L230.858 156.985L229.226 159.258L231.96 159.907L231.48 161.659L228.799 160.816L229.043 163.606L227.234 163.689L227.19 160.885L224.63 161.971L223.993 160.271L226.628 159.38L224.821 157.253Z" fill="white"/>
<path d="M204.344 181.778C204.944 180.849 205.654 180.107 206.474 179.552C207.295 178.998 208.187 178.641 209.151 178.483C210.121 178.329 211.136 178.382 212.194 178.642C213.255 178.912 214.33 179.4 215.419 180.108C216.859 181.043 217.939 182.11 218.658 183.308C219.378 184.505 219.72 185.757 219.686 187.063C219.658 188.372 219.236 189.658 218.421 190.92C217.44 192.439 216.296 193.434 214.988 193.904C213.687 194.377 212.312 194.394 210.865 193.953L211.612 192.032C212.614 192.282 213.569 192.242 214.475 191.913C215.381 191.583 216.146 190.935 216.77 189.968C217.429 188.961 217.747 187.973 217.724 187.005C217.703 186.047 217.392 185.132 216.79 184.26C216.189 183.388 215.349 182.598 214.27 181.888C213.197 181.182 212.144 180.735 211.112 180.545C210.079 180.356 209.114 180.446 208.217 180.817C207.322 181.199 206.545 181.893 205.886 182.899C205.316 183.768 205.008 184.61 204.96 185.426C204.913 186.242 205.104 187.021 205.531 187.762C205.959 188.503 206.598 189.199 207.449 189.85L209.31 186.968L210.691 187.864L207.686 192.517C207.549 192.454 207.393 192.366 207.217 192.252C207.044 192.149 206.926 192.077 206.864 192.036C205.63 191.235 204.675 190.285 203.999 189.186C203.324 188.098 203 186.92 203.027 185.654C203.05 184.395 203.489 183.103 204.344 181.778Z" fill="white"/>
<path d="M196.309 192.228C197.098 191.341 197.983 190.739 198.964 190.422C199.944 190.117 200.949 190.093 201.979 190.352C203.013 190.615 204.001 191.167 204.942 192.009C205.928 192.889 206.619 193.832 207.014 194.837C207.416 195.847 207.523 196.85 207.338 197.846C207.152 198.853 206.67 199.795 205.891 200.672C205.082 201.582 204.186 202.169 203.203 202.432C202.214 202.701 201.192 202.649 200.135 202.275C199.073 201.907 198.027 201.223 196.998 200.223L198.338 198.715L198.872 199.193C199.995 200.167 201.023 200.68 201.956 200.732C202.894 200.789 203.746 200.387 204.51 199.527C205.329 198.606 205.656 197.641 205.493 196.634C205.329 195.626 204.696 194.629 203.594 193.644C202.53 192.693 201.493 192.197 200.481 192.155C199.47 192.112 198.57 192.535 197.781 193.423C197.25 194.021 196.924 194.662 196.805 195.347C196.686 196.032 196.771 196.729 197.06 197.438L195.294 198.43C194.811 197.367 194.664 196.284 194.854 195.181C195.045 194.089 195.53 193.105 196.309 192.228ZM203.623 192.768L204.817 193.836L198.877 200.52L197.683 199.452L203.623 192.768Z" fill="white"/>
<path d="M183.4 204.668C183.862 204.102 184.373 203.606 184.933 203.182C185.483 202.757 186.048 202.469 186.629 202.317C187.216 202.172 187.791 202.219 188.356 202.46C188.844 202.677 189.251 202.966 189.577 203.327C189.901 203.698 190.261 204.123 190.655 204.602L197.574 213.016L196.037 214.287L189.175 205.942C188.862 205.561 188.591 205.237 188.362 204.971C188.128 204.709 187.875 204.526 187.604 204.42C187.093 204.222 186.587 204.277 186.086 204.584C185.58 204.897 185.047 205.366 184.489 205.993L183.4 204.668ZM196.282 207.583L197.328 208.856L191.088 214.017L190.041 212.744L196.282 207.583Z" fill="white"/>
<path d="M162.859 215.728C164.195 215.188 165.408 215.036 166.5 215.272C167.588 215.518 168.441 216.129 169.058 217.105L167.291 218.17C166.894 217.621 166.349 217.277 165.658 217.137C164.969 217.004 164.22 217.101 163.41 217.429C162.642 217.739 162.105 218.142 161.797 218.637C161.489 219.132 161.446 219.654 161.666 220.202C161.794 220.521 161.97 220.749 162.193 220.884C162.42 221.027 162.796 221.092 163.322 221.081C163.842 221.073 164.607 221.006 165.617 220.879C166.713 220.743 167.601 220.703 168.283 220.758C168.964 220.813 169.501 220.979 169.894 221.256C170.287 221.532 170.59 221.938 170.805 222.472C171.07 223.131 171.122 223.78 170.96 224.418C170.801 225.063 170.454 225.65 169.919 226.181C169.378 226.714 168.678 227.154 167.82 227.501C166.969 227.845 166.154 228.017 165.374 228.018C164.594 228.019 163.9 227.852 163.291 227.517C162.678 227.192 162.201 226.716 161.86 226.087L163.611 224.981C163.943 225.548 164.425 225.906 165.055 226.054C165.679 226.205 166.379 226.136 167.155 225.847C167.893 225.581 168.433 225.213 168.775 224.744C169.11 224.278 169.18 223.802 168.985 223.316C168.877 223.046 168.7 222.847 168.456 222.72C168.205 222.596 167.816 222.539 167.29 222.55C166.757 222.564 166.006 222.637 165.039 222.771C163.949 222.921 163.06 222.961 162.373 222.892C161.682 222.833 161.134 222.651 160.731 222.346C160.329 222.049 160.012 221.609 159.778 221.026C159.343 219.944 159.397 218.929 159.942 217.984C160.49 217.044 161.462 216.293 162.859 215.728Z" fill="white"/>
<path d="M145.788 221.119C146.453 220.817 147.13 220.6 147.819 220.469C148.5 220.332 149.134 220.326 149.722 220.449C150.312 220.579 150.806 220.878 151.207 221.345C151.548 221.757 151.784 222.197 151.917 222.665C152.043 223.142 152.177 223.683 152.318 224.288L154.796 234.907L152.857 235.362L150.4 224.83C150.287 224.349 150.188 223.939 150.101 223.598C150.006 223.259 149.861 222.982 149.665 222.767C149.295 222.362 148.817 222.186 148.232 222.239C147.64 222.293 146.955 222.477 146.178 222.79L145.788 221.119ZM156.042 229.463L156.417 231.069L148.541 232.918L148.166 231.312L156.042 229.463Z" fill="white"/>
<path d="M137.043 221.845C137.942 221.775 138.71 221.881 139.345 222.162C139.973 222.452 140.464 222.856 140.818 223.377C141.165 223.898 141.363 224.483 141.412 225.132C141.461 225.765 141.384 226.323 141.181 226.804C140.972 227.292 140.659 227.706 140.244 228.046C139.829 228.393 139.324 228.68 138.728 228.905C138.167 229.106 137.538 229.29 136.84 229.456C136.135 229.63 135.422 229.794 134.7 229.947C133.979 230.1 133.306 230.246 132.68 230.384L133.363 229.915C133.423 230.991 133.699 231.768 134.192 232.248C134.678 232.728 135.471 232.926 136.572 232.841C137.3 232.785 137.927 232.568 138.452 232.19C138.969 231.82 139.311 231.254 139.477 230.491L141.406 230.916C141.197 231.997 140.7 232.872 139.913 233.54C139.126 234.209 138.052 234.595 136.691 234.7C135.598 234.784 134.646 234.659 133.835 234.324C133.017 233.996 132.407 233.451 132.004 232.687C131.804 232.327 131.665 231.929 131.587 231.492C131.509 231.063 131.452 230.61 131.416 230.132L130.843 222.659L132.606 222.524L132.828 225.421L132.395 225.184C132.773 224.173 133.353 223.385 134.133 222.823C134.905 222.26 135.875 221.934 137.043 221.845ZM136.869 223.535C136.155 223.59 135.547 223.764 135.046 224.058C134.538 224.359 134.14 224.731 133.852 225.173C133.565 225.623 133.392 226.102 133.334 226.609C133.251 226.99 133.223 227.409 133.251 227.864C133.271 228.328 133.291 228.683 133.31 228.929L132.595 228.68C133.235 228.541 133.864 228.406 134.483 228.276C135.101 228.146 135.686 228.011 136.236 227.871C136.787 227.738 137.281 227.591 137.717 227.43C138.036 227.301 138.335 227.143 138.612 226.956C138.882 226.771 139.096 226.54 139.255 226.265C139.407 225.999 139.468 225.675 139.439 225.295C139.414 224.967 139.308 224.66 139.121 224.374C138.927 224.089 138.649 223.866 138.285 223.707C137.914 223.548 137.442 223.49 136.869 223.535Z" fill="white"/>
<path d="M125.259 222.43L124.334 234.512L122.561 234.375L122.784 231.455L123.045 231.858C122.875 232.22 122.667 232.549 122.42 232.845C122.165 233.141 121.889 233.378 121.591 233.558C121.259 233.787 120.891 233.954 120.487 234.058C120.082 234.162 119.674 234.209 119.264 234.2C118.852 234.198 118.471 234.143 118.121 234.033L118.264 232.165C118.672 232.309 119.127 232.374 119.629 232.36C120.131 232.346 120.606 232.199 121.054 231.918C121.462 231.672 121.789 231.36 122.035 230.981C122.273 230.602 122.451 230.184 122.568 229.728C122.685 229.279 122.762 228.817 122.798 228.339L123.262 222.276L125.259 222.43Z" fill="white"/>
<path d="M104.802 219.124C105.532 219.15 106.234 219.257 106.91 219.446C107.581 219.627 108.152 219.903 108.624 220.275C109.095 220.654 109.406 221.142 109.558 221.738C109.682 222.259 109.699 222.759 109.611 223.237C109.513 223.721 109.394 224.266 109.253 224.87L106.775 235.489L104.836 235.034L107.293 224.502C107.405 224.022 107.498 223.609 107.57 223.265C107.636 222.92 107.628 222.607 107.548 222.327C107.395 221.799 107.045 221.429 106.497 221.216C105.942 221.001 105.247 220.861 104.412 220.796L104.802 219.124ZM110.3 231.166L109.925 232.772L102.049 230.923L102.424 229.317L110.3 231.166Z" fill="white"/>
<path d="M95.871 215.571C96.971 216.016 97.835 216.647 98.4631 217.465C99.0814 218.288 99.4433 219.229 99.5485 220.287C99.651 221.353 99.4667 222.472 98.9954 223.644C98.5019 224.872 97.8505 225.843 97.0411 226.556C96.229 227.276 95.3241 227.717 94.3264 227.878C93.319 228.044 92.2723 227.907 91.1861 227.468C90.0585 227.012 89.2049 226.365 88.6253 225.526C88.0389 224.684 87.7422 223.701 87.7355 222.577C87.7218 221.451 88.0103 220.233 88.601 218.923L90.4689 219.678L90.2012 220.344C89.6671 221.733 89.5332 222.876 89.7996 223.774C90.0632 224.679 90.7276 225.347 91.793 225.778C92.9345 226.239 93.9505 226.222 94.841 225.727C95.7315 225.233 96.4528 224.298 97.0049 222.925C97.5374 221.599 97.6526 220.452 97.3504 219.483C97.0482 218.515 96.3472 217.808 95.2472 217.363C94.507 217.064 93.7952 216.974 93.1121 217.093C92.4289 217.212 91.8035 217.528 91.2356 218.04L89.7079 216.709C90.5424 215.893 91.5092 215.389 92.608 215.196C93.6972 215.007 94.7848 215.132 95.871 215.571ZM97.8366 222.656L97.2386 224.144L88.9576 220.797L89.5557 219.309L97.8366 222.656Z" fill="white"/>
<path d="M83.5478 209.415C84.516 209.992 85.2033 210.728 85.6099 211.623C86.0126 212.525 86.1573 213.503 86.0438 214.558C85.924 215.609 85.5554 216.655 84.9379 217.697C84.3204 218.738 83.5799 219.563 82.7163 220.171C81.8463 220.775 80.9241 221.108 79.9496 221.171C78.9713 221.241 78.0013 220.989 77.0396 220.415C76.0587 219.83 75.3758 219.101 74.9911 218.228C74.6064 217.355 74.49 216.402 74.6419 215.37C74.7873 214.334 75.1707 213.292 75.792 212.244C76.4057 211.209 77.1334 210.377 77.9751 209.747C78.8066 209.12 79.7006 208.761 80.6571 208.67C81.6097 208.586 82.5733 208.834 83.5478 209.415ZM82.4043 210.861C81.7055 210.444 81.0326 210.269 80.3856 210.336C79.7348 210.409 79.1282 210.678 78.566 211.144C77.9935 211.612 77.4824 212.225 77.0326 212.984C76.5752 213.755 76.2821 214.499 76.1532 215.214C76.0141 215.931 76.0686 216.586 76.3166 217.178C76.5608 217.776 77.0227 218.277 77.7023 218.683C78.4075 219.103 79.0939 219.277 79.7613 219.205C80.4224 219.13 81.0404 218.863 81.6155 218.405C82.1841 217.943 82.6857 217.346 83.1202 216.613C83.5586 215.874 83.8428 215.138 83.9729 214.406C84.0991 213.681 84.0408 213.011 83.7978 212.396C83.5484 211.778 83.0839 211.266 82.4043 210.861ZM80.1257 207.766L75.5804 215.433L75.7727 215.548L72.085 221.769L70.3636 220.742L78.5966 206.855L80.1257 207.766Z" fill="white"/>
<path d="M56.8703 198.936L57.0519 200.742L54.2694 200.9L55.4712 203.432L53.8127 204.163L52.7975 201.554L50.768 203.503L49.5621 202.146L51.7256 200.348L49.2571 199.037L50.1712 197.468L52.5424 198.956L53.0248 196.211L54.7935 196.599L54.1075 199.301L56.8703 198.936Z" fill="white"/>
<path d="M47.4734 168.369C47.925 169.379 48.1599 170.38 48.1783 171.372C48.1966 172.364 48.0099 173.308 47.6182 174.206C47.2197 175.106 46.624 175.931 45.8312 176.681C45.0286 177.427 44.0351 178.067 42.8508 178.599C41.2854 179.303 39.8059 179.632 38.4122 179.586C37.0186 179.541 35.7848 179.148 34.7108 178.41C33.63 177.674 32.7829 176.621 32.1697 175.249C31.4313 173.597 31.2208 172.093 31.5384 170.737C31.8491 169.384 32.5826 168.218 33.739 167.239L34.9405 168.913C34.1862 169.621 33.7008 170.445 33.4841 171.387C33.2675 172.329 33.3942 173.325 33.864 174.376C34.3485 175.478 35.0024 176.283 35.8257 176.79C36.6392 177.293 37.5741 177.528 38.6305 177.496C39.6868 177.464 40.8053 177.187 41.9858 176.664C43.1595 176.145 44.1064 175.502 44.8265 174.735C45.5465 173.969 45.9951 173.107 46.1723 172.151C46.3396 171.19 46.1811 170.159 45.6966 169.057C45.2793 168.105 44.742 167.387 44.0846 166.904C43.4272 166.421 42.672 166.158 41.8192 166.115C40.9663 166.072 40.0364 166.232 39.0295 166.595L40.43 169.728L38.9293 170.402L36.6683 165.345C36.7953 165.263 36.9541 165.179 37.1446 165.094C37.3254 165.004 37.4498 164.944 37.5178 164.914C38.8586 164.311 40.1728 164.023 41.4604 164.051C42.7381 164.075 43.8995 164.442 44.9446 165.153C45.9867 165.857 46.8296 166.929 47.4734 168.369Z" fill="white"/>
<path d="M43.0937 155.925C43.408 157.072 43.431 158.144 43.1627 159.141C42.8853 160.132 42.3587 160.991 41.5829 161.717C40.7999 162.445 39.8007 162.976 38.5852 163.311C37.3122 163.662 36.1476 163.731 35.0913 163.518C34.0279 163.307 33.1298 162.852 32.397 162.154C31.6551 161.451 31.1291 160.533 30.8187 159.401C30.4966 158.225 30.4926 157.152 30.8067 156.181C31.1188 155.203 31.7184 154.37 32.6054 153.684C33.4905 152.99 34.6314 152.482 36.0281 152.159L36.5618 154.106L35.8713 154.296C34.446 154.713 33.458 155.299 32.9073 156.056C32.3495 156.815 32.2227 157.749 32.5271 158.86C32.8532 160.05 33.4824 160.85 34.4148 161.261C35.3471 161.671 36.5253 161.68 37.9494 161.287C39.3231 160.909 40.3026 160.305 40.8878 159.477C41.473 158.648 41.6085 157.661 41.2942 156.514C41.0827 155.742 40.7227 155.12 40.2141 154.647C39.7056 154.175 39.076 153.867 38.3254 153.725L38.4549 151.699C39.6079 151.87 40.594 152.336 41.4132 153.095C42.2232 153.849 42.7834 154.792 43.0937 155.925ZM38.6667 161.788L37.124 162.213L34.7581 153.579L36.3009 153.154L38.6667 161.788Z" fill="white"/>
<path d="M39.6989 138.296C39.9218 138.993 40.0587 139.693 40.1094 140.395C40.1668 141.088 40.1007 141.721 39.9112 142.293C39.7143 142.865 39.3617 143.324 38.8533 143.669C38.4064 143.962 37.9435 144.147 37.4644 144.225C36.9771 144.296 36.4259 144.368 35.8109 144.439L25.0077 145.69L24.7793 143.706L35.4936 142.465C35.9826 142.409 36.4009 142.356 36.7483 142.309C37.0948 142.254 37.3859 142.141 37.6216 141.97C38.065 141.648 38.2941 141.192 38.3089 140.603C38.3228 140.007 38.2193 139.303 37.9984 138.493L39.6989 138.296ZM30.2568 147.555L28.623 147.745L27.6953 139.686L29.3292 139.497L30.2568 147.555Z" fill="white"/>
<path d="M41.6074 114.995C41.3333 116.412 40.8007 117.516 40.0095 118.307C39.2125 119.089 38.2375 119.475 37.0848 119.464L37.1539 117.397C37.8295 117.361 38.4138 117.09 38.9068 116.584C39.3924 116.077 39.7183 115.393 39.8844 114.534C40.0421 113.719 39.9972 113.047 39.7498 112.519C39.5025 111.991 39.0896 111.671 38.5111 111.558C38.1743 111.493 37.8884 111.517 37.6536 111.632C37.4114 111.744 37.1519 112.025 36.8751 112.474C36.5998 112.916 36.2402 113.597 35.7965 114.516C35.3152 115.512 34.8662 116.282 34.4495 116.826C34.0328 117.37 33.6019 117.731 33.1568 117.912C32.7117 118.092 32.2072 118.127 31.6434 118.017C30.9478 117.882 30.377 117.573 29.9309 117.09C29.4775 116.605 29.1741 115.994 29.0206 115.256C28.8685 114.51 28.8805 113.682 29.0566 112.771C29.2313 111.868 29.5303 111.088 29.9536 110.431C30.3769 109.774 30.8941 109.281 31.5051 108.95C32.1102 108.61 32.7684 108.468 33.4796 108.522L33.4544 110.598C32.7989 110.569 32.2376 110.78 31.7707 111.23C31.3052 111.673 30.9826 112.3 30.803 113.111C30.6246 113.876 30.6387 114.53 30.8451 115.073C31.0531 115.609 31.4133 115.927 31.9259 116.026C32.2114 116.082 32.4738 116.041 32.7129 115.905C32.9534 115.761 33.2121 115.465 33.4889 115.016C33.7671 114.56 34.1135 113.888 34.5282 113.001C34.9949 112.002 35.4439 111.232 35.8752 110.691C36.3006 110.142 36.7505 109.78 37.2249 109.605C37.692 109.429 38.233 109.401 38.8481 109.521C39.9904 109.743 40.8094 110.34 41.3051 111.313C41.7935 112.284 41.8943 113.512 41.6074 114.995Z" fill="white"/>
<path d="M46.3749 97.6944C46.2662 98.4183 46.0794 99.106 45.8143 99.7576C45.5588 100.405 45.2196 100.942 44.7969 101.37C44.3672 101.796 43.8482 102.05 43.2399 102.133C42.71 102.196 42.2131 102.156 41.7492 102.013C41.2809 101.86 40.7554 101.679 40.1727 101.469L29.9379 97.7827L30.611 95.9031L40.7617 99.5591C41.225 99.726 41.6228 99.8653 41.9553 99.9771C42.2903 100.082 42.601 100.11 42.8876 100.063C43.4277 99.971 43.8346 99.6645 44.1085 99.1432C44.3849 98.6149 44.6033 97.9385 44.7638 97.1141L46.3749 97.6944ZM33.8164 101.791L32.2685 101.233L35.0028 93.5984L36.5507 94.1559L33.8164 101.791Z" fill="white"/>
<path d="M50.521 89.9386C50.0898 90.7338 49.584 91.3221 49.0035 91.7038C48.42 92.0752 47.8142 92.2685 47.1862 92.2837C46.5618 92.2922 45.9645 92.1411 45.3945 91.8302C44.8375 91.5265 44.4129 91.1587 44.1206 90.7269C43.8254 90.2849 43.6486 89.7968 43.5901 89.2626C43.5252 88.7248 43.5601 88.1436 43.6951 87.519C43.8318 86.938 44.0203 86.3085 44.2605 85.6306C44.4977 84.9426 44.7484 84.2534 45.0124 83.5629C45.2764 82.8725 45.5205 82.2266 45.7448 81.6251L45.7664 82.4543C44.8335 81.92 44.0323 81.73 43.3628 81.8843C42.6969 82.032 42.1002 82.5921 41.5728 83.5647C41.2237 84.2087 41.0647 84.8542 41.0958 85.5013C41.124 86.1382 41.4123 86.7339 41.9607 87.2884L40.5561 88.6809C39.7646 87.9172 39.303 87.0226 39.1713 85.9972C39.0397 84.9718 39.2999 83.8578 39.9519 82.6552C40.4757 81.6892 41.0983 80.956 41.8198 80.4554C42.5382 79.9446 43.3267 79.7275 44.1852 79.804C44.5948 79.8315 45.0035 79.931 45.4115 80.1024C45.813 80.2702 46.2234 80.4685 46.6427 80.6972L53.2085 84.2777L52.364 85.8351L49.8183 84.4468L50.252 84.2107C50.893 85.0797 51.2371 85.9953 51.2842 86.9576C51.3348 87.9133 51.0804 88.9069 50.521 89.9386ZM49.2008 88.8739C49.5428 88.243 49.7272 87.6368 49.7538 87.0554C49.7775 86.4637 49.6824 85.9266 49.4687 85.4439C49.2484 84.9577 48.9419 84.5521 48.5492 84.2273C48.275 83.95 47.9398 83.6992 47.5437 83.4746C47.1446 83.2399 46.8369 83.0636 46.6206 82.9457L47.2174 82.4793C46.986 83.0939 46.7567 83.6968 46.5295 84.2881C46.3023 84.8794 46.0976 85.4447 45.9156 85.984C45.7269 86.5197 45.5814 87.0151 45.479 87.4701C45.414 87.8093 45.3841 88.1463 45.3893 88.4812C45.398 88.8095 45.4743 89.1151 45.6181 89.3978C45.759 89.6705 45.9965 89.8979 46.3307 90.0802C46.619 90.2374 46.9334 90.3152 47.2739 90.3135C47.618 90.3053 47.9556 90.1915 48.2869 89.972C48.6218 89.7459 48.9264 89.3798 49.2008 88.8739Z" fill="white"/>
<path d="M56.4363 79.7021L46.8266 72.3561L47.905 70.9373L50.2274 72.7126L49.7485 72.7133C49.5378 72.3736 49.3757 72.0192 49.2622 71.6503C49.1533 71.2754 49.1046 70.9138 49.1163 70.5653C49.1045 70.1613 49.165 69.7608 49.2979 69.3639C49.4308 68.967 49.6127 68.5981 49.8436 68.2573C50.0686 67.912 50.3222 67.6215 50.6045 67.3859L52.0904 68.5218C51.7482 68.7869 51.4464 69.1346 51.185 69.5649C50.9236 69.9952 50.7885 70.4751 50.7799 71.0047C50.7643 71.4818 50.8481 71.9268 51.0314 72.3396C51.2192 72.7465 51.4721 73.1233 51.7901 73.4698C52.1022 73.8119 52.4481 74.128 52.8277 74.4182L57.6504 78.1048L56.4363 79.7021Z" fill="white"/>
<path d="M70.3226 64.279C69.9049 64.8793 69.4332 65.4125 68.9073 65.8785C68.392 66.3447 67.8502 66.6755 67.282 66.8709C66.7087 67.0609 66.1311 67.0578 65.5493 66.8614C65.0463 66.6825 64.6187 66.4256 64.2664 66.0909C63.9142 65.7455 63.5235 65.3492 63.0942 64.9019L55.5532 57.044L56.9881 55.6591L64.4671 63.4523C64.8085 63.808 65.1034 64.1099 65.3519 64.358C65.6057 64.601 65.8716 64.7648 66.1496 64.8495C66.6741 65.0077 67.1744 64.9141 67.6504 64.5689C68.1319 64.2184 68.6269 63.7094 69.1355 63.0421L70.3226 64.279ZM57.2557 62.3615L56.1152 61.1731L61.9436 55.548L63.0841 56.7363L57.2557 62.3615Z" fill="white"/>
<path d="M78.1514 58.6926C77.1814 59.3769 76.1832 59.7609 75.1568 59.8447C74.1322 59.9182 73.1483 59.7114 72.2049 59.2246C71.2573 58.7316 70.4209 57.9681 69.6957 56.9342C68.9361 55.8512 68.4778 54.7753 68.3208 53.7064C68.1595 52.6313 68.2825 51.63 68.6898 50.7025C69.0989 49.7647 69.7824 48.9579 70.7402 48.2823C71.7347 47.5808 72.7406 47.2142 73.7579 47.1825C74.7813 47.1465 75.7651 47.431 76.7094 48.0361C77.6597 48.637 78.5224 49.5419 79.2975 50.751L77.6503 51.9129L77.2383 51.3256C76.3661 50.121 75.4818 49.3868 74.5854 49.1228C73.6847 48.8528 72.7646 49.0492 71.825 49.7119C70.8184 50.4219 70.2802 51.2863 70.2104 52.3049C70.1406 53.3235 70.5305 54.4385 71.3802 55.6499C72.1998 56.8185 73.0972 57.5389 74.0725 57.8112C75.0477 58.0835 76.0204 57.8776 76.9904 57.1933C77.6432 56.7329 78.1054 56.1827 78.3771 55.543C78.6488 54.9032 78.7245 54.2051 78.6043 53.4486L80.5489 52.8862C80.7782 54.0322 80.6749 55.1201 80.2391 56.15C79.8051 57.1695 79.1092 58.017 78.1514 58.6926ZM71.1529 56.4961L70.2325 55.1837L77.5351 50.0326L78.4556 51.3449L71.1529 56.4961Z" fill="white"/>
<path d="M90.0024 51.6659C88.9931 52.167 88.0034 52.3455 87.0332 52.2012C86.0598 52.0502 85.1624 51.6402 84.3411 50.9713C83.5265 50.2991 82.8511 49.42 82.3149 48.3341C81.7787 47.2481 81.491 46.1765 81.4518 45.1193C81.4192 44.0588 81.6414 43.1012 82.1184 42.2467C82.5921 41.3855 83.3303 40.706 84.3329 40.2081C85.3556 39.7003 86.337 39.5219 87.2771 39.6727C88.2172 39.8236 89.0779 40.2434 89.8591 40.9323C90.647 41.6178 91.3106 42.5068 91.8501 43.5995C92.383 44.6787 92.684 45.7437 92.7533 46.7943C92.826 47.835 92.6405 48.7826 92.1969 49.6372C91.7499 50.4852 91.0184 51.1614 90.0024 51.6659ZM89.4138 49.9174C90.1424 49.5556 90.6546 49.0843 90.9504 48.5034C91.2429 47.9157 91.3472 47.2588 91.2633 46.5326C91.1828 45.7963 90.9472 45.0327 90.5567 44.2417C90.1595 43.4373 89.6967 42.7865 89.1683 42.2894C88.6432 41.7822 88.0657 41.4722 87.4357 41.3593C86.8024 41.2398 86.1314 41.3559 85.4229 41.7077C84.6876 42.0728 84.1687 42.5558 83.8661 43.1568C83.5703 43.7544 83.4576 44.4197 83.5281 45.1525C83.6053 45.8821 83.8326 46.629 84.2099 47.3931C84.5905 48.164 85.0517 48.8031 85.5934 49.3103C86.1319 49.8109 86.7244 50.126 87.371 50.2556C88.0243 50.3819 88.7053 50.2692 89.4138 49.9174ZM93.2425 49.6815L89.2957 41.6877L89.0952 41.7873L85.8931 35.3018L87.6879 34.4107L94.8367 48.8899L93.2425 49.6815Z" fill="white"/>
<path d="M113.274 34.9061L111.664 34.0771L113.044 31.6494L110.271 31.2842L110.561 29.4909L113.297 30.0549L112.769 27.2871L114.56 27.0096L114.889 29.8082L117.328 28.4428L118.144 30.0648L115.61 31.252L117.646 33.1505L116.359 34.4283L114.471 32.3821L113.274 34.9061Z" fill="white"/>
<path d="M126.542 122.664C126.311 123.032 126.298 123.49 126.508 123.86L129.785 129.627L118.398 136.097C117.823 136.423 117.616 137.144 117.935 137.706C118.254 138.268 118.98 138.458 119.555 138.132L130.941 131.662L134.218 137.429C134.429 137.8 134.83 138.023 135.263 138.012C135.697 138.004 136.096 137.761 136.305 137.382L143.471 124.336C143.668 123.977 143.667 123.548 143.468 123.198C143.269 122.848 142.901 122.628 142.492 122.613L127.616 122.091C127.388 122.084 127.165 122.141 126.972 122.251C126.8 122.349 126.651 122.491 126.542 122.664Z" fill="white"/>
</svg>
