<svg width="133" height="64" viewBox="0 0 133 64" fill="none" xmlns="http://www.w3.org/2000/svg">
<path d="M117.959 9.11H116.379C115.315 9.11124 114.264 9.34545 113.3 9.79616C112.336 10.2469 111.482 10.9032 110.799 11.7189C110.116 12.5347 109.619 13.4902 109.345 14.5183C109.07 15.5464 109.024 16.6221 109.209 17.67L109.919 21.67C109.509 23.4 107.729 24.67 99.1091 24.67H94.0091C94.5804 23.8756 94.9666 22.9632 95.1391 22L95.899 17.72C96.0846 16.6713 96.0381 15.5947 95.7628 14.5659C95.4876 13.5371 94.9903 12.5811 94.3059 11.7651C93.6215 10.9492 92.7666 10.2931 91.8014 9.84299C90.8362 9.39291 89.784 9.15978 88.7191 9.16H87.1391C85.3232 9.16228 83.5736 9.84217 82.2326 11.0666C80.8917 12.291 80.056 13.9718 79.8891 15.78L82.5991 16.45C82.6017 15.2494 83.0798 14.0987 83.9288 13.2497C84.7777 12.4008 85.9284 11.9226 87.1291 11.92H88.7091C89.3708 11.9201 90.0245 12.0651 90.6241 12.345C91.2238 12.6248 91.7548 13.0326 92.18 13.5397C92.6051 14.0468 92.914 14.6409 93.0848 15.2802C93.2557 15.9195 93.2845 16.5884 93.1691 17.24L92.4091 21.52C92.2536 22.4064 91.7901 23.2095 91.1004 23.7876C90.4107 24.3657 89.539 24.6818 88.6391 24.68H69.9091C70.4786 23.8819 70.8613 22.966 71.0291 22L71.7891 17.72C71.9744 16.6721 71.9282 15.5964 71.6535 14.5683C71.3788 13.5402 70.8824 12.5847 70.1991 11.7689C69.5158 10.9532 68.6621 10.2969 67.6982 9.84616C66.7342 9.39545 65.6832 9.16124 64.619 9.16H63.0391C59.1191 9.16 55.7091 12.79 53.4891 15.91V0.67L50.7291 0V20.8L53.3491 21.41C54.6691 18.76 58.9791 11.87 63.0391 11.87H64.619C65.2808 11.8701 65.9345 12.0151 66.5341 12.295C67.1338 12.5748 67.6648 12.9826 68.0899 13.4897C68.5151 13.9968 68.8239 14.5909 68.9948 15.2302C69.1657 15.8695 69.1945 16.5384 69.0791 17.19L68.3191 21.47C68.1596 22.3564 67.6936 23.1585 67.0027 23.7361C66.3117 24.3138 65.4397 24.6302 64.5391 24.63H26.149C25.1341 24.6274 24.1614 24.223 23.4438 23.5053C22.7261 22.7876 22.3217 21.815 22.3191 20.8V0.69L19.5391 0V20.8C19.5417 22.547 20.2368 24.2216 21.4721 25.4569C22.7074 26.6922 24.3821 27.3874 26.1291 27.39H99.1291C105.979 27.39 109.469 26.39 111.209 24.76C111.821 25.5769 112.615 26.2399 113.528 26.6964C114.441 27.1529 115.448 27.3904 116.469 27.39H118.679C120.426 27.3874 122.101 26.6922 123.336 25.4569C124.571 24.2216 125.266 22.547 125.269 20.8V16.4C125.268 15.4413 125.078 14.4923 124.71 13.6072C124.341 12.722 123.803 11.918 123.124 11.241C122.445 10.5641 121.64 10.0275 120.753 9.66185C119.867 9.29621 118.918 9.10869 117.959 9.11ZM122.539 20.8C122.536 21.815 122.132 22.7876 121.414 23.5053C120.697 24.223 119.724 24.6274 118.709 24.63H116.499C115.6 24.6298 114.729 24.313 114.04 23.7353C113.35 23.1575 112.886 22.3556 112.729 21.47L111.969 17.19C111.854 16.5384 111.882 15.8695 112.053 15.2302C112.224 14.5909 112.533 13.9968 112.958 13.4897C113.383 12.9826 113.914 12.5748 114.514 12.295C115.114 12.0151 115.767 11.8701 116.429 11.87H118.009C119.21 11.87 120.363 12.3473 121.212 13.1968C122.062 14.0463 122.539 15.1986 122.539 16.4V20.8Z" fill="white"/>
<path d="M7.41992 11.79H11.2799V20.71C11.2773 21.7267 10.8715 22.7008 10.1517 23.4188C9.43182 24.1368 8.45661 24.54 7.43991 24.54V27.3C9.18688 27.2974 10.8615 26.6022 12.0968 25.3669C13.3321 24.1316 14.0273 22.457 14.0299 20.71V11.79H17.2399V9H7.41992V11.79Z" fill="white"/>
<path d="M2.62 17.0798C3.79084 17.0798 4.74002 16.1307 4.74002 14.9598C4.74002 13.789 3.79084 12.8398 2.62 12.8398C1.44915 12.8398 0.5 13.789 0.5 14.9598C0.5 16.1307 1.44915 17.0798 2.62 17.0798Z" fill="#AA915E"/>
<path d="M2.62 23.2595C3.79084 23.2595 4.74002 22.3104 4.74002 21.1395C4.74002 19.9687 3.79084 19.0195 2.62 19.0195C1.44915 19.0195 0.5 19.9687 0.5 21.1395C0.5 22.3104 1.44915 23.2595 2.62 23.2595Z" fill="#AA915E"/>
<path d="M129.95 52.7107C131.121 52.7107 132.07 51.7615 132.07 50.5907C132.07 49.4199 131.121 48.4707 129.95 48.4707C128.779 48.4707 127.83 49.4199 127.83 50.5907C127.83 51.7615 128.779 52.7107 129.95 52.7107Z" fill="#AA915E"/>
<path d="M129.95 58.8806C131.121 58.8806 132.07 57.9315 132.07 56.7606C132.07 55.5898 131.121 54.6406 129.95 54.6406C128.779 54.6406 127.83 55.5898 127.83 56.7606C127.83 57.9315 128.779 58.8806 129.95 58.8806Z" fill="#AA915E"/>
<path d="M86.1406 47.6291H89.3506V56.5491C89.3506 58.2969 90.0449 59.9731 91.2808 61.209C92.5167 62.4448 94.1928 63.1391 95.9406 63.1391V60.3791C94.9248 60.3791 93.9507 59.9756 93.2324 59.2574C92.5141 58.5391 92.1106 57.5649 92.1106 56.5491V47.6291H95.9606V44.8691H86.1406V47.6291Z" fill="white"/>
<path d="M125.15 47.6291V44.8691H115.33V47.6291H118.54V56.5491C118.54 58.2952 119.233 59.9699 120.467 61.2054C121.7 62.441 123.374 63.1365 125.12 63.1391V60.3791C124.104 60.3791 123.13 59.9756 122.412 59.2574C121.694 58.5391 121.29 57.5649 121.29 56.5491V47.6291H125.15Z" fill="white"/>
<path d="M45.0299 57.4697L45.7399 53.4697C45.9225 52.4208 45.8731 51.3446 45.5952 50.3169C45.3173 49.2891 44.8176 48.3347 44.1314 47.5207C43.4451 46.7067 42.5889 46.053 41.6229 45.6053C40.6569 45.1577 39.6046 44.9271 38.5399 44.9297H36.9599C35.029 44.9323 33.1778 45.6999 31.8116 47.0643C30.4453 48.4287 29.6752 50.2788 29.6699 52.2097V56.6197C29.6726 58.3667 30.3677 60.0413 31.603 61.2766C32.8383 62.5119 34.513 63.2071 36.2599 63.2097H38.5399C39.526 63.2097 40.4996 62.9887 41.3891 62.563C42.2786 62.1373 43.0614 61.5177 43.6799 60.7497C44.2985 61.5177 45.0813 62.1373 45.9708 62.563C46.8602 62.9887 47.8338 63.2097 48.8199 63.2097V60.4497C47.9424 60.4624 47.0871 60.1733 46.3972 59.6309C45.7073 59.0884 45.2246 58.3255 45.0299 57.4697ZM43.0299 53.0097L42.2699 57.2897C42.112 58.1677 41.6534 58.9633 40.9727 59.5399C40.2921 60.1166 39.4319 60.4382 38.5399 60.4497H36.3399C35.3249 60.4471 34.3523 60.0427 33.6346 59.325C32.9169 58.6073 32.5126 57.6347 32.5099 56.6197V52.2097C32.5126 51.01 32.991 49.8604 33.8402 49.013C34.6895 48.1656 35.8402 47.6897 37.0399 47.6897H38.5399C39.2032 47.6857 39.8592 47.8273 40.4617 48.1046C41.0642 48.382 41.5984 48.7882 42.0267 49.2947C42.455 49.8011 42.7668 50.3955 42.9401 51.0357C43.1135 51.6759 43.1441 52.3464 43.0299 52.9997V53.0097Z" fill="white"/>
<path d="M83.8191 57.4702L84.5291 53.4702C84.7144 52.4223 84.6682 51.3465 84.3935 50.3184C84.1188 49.2904 83.6224 48.3349 82.9391 47.5191C82.2558 46.7033 81.4022 46.047 80.4382 45.5963C79.4742 45.1456 78.4232 44.9114 77.3591 44.9102H75.7691C73.8443 44.926 72.004 45.7024 70.6495 47.07C69.295 48.4376 68.5364 50.2853 68.5391 52.2102V56.6202C68.5417 58.3671 69.2369 60.0418 70.4721 61.2771C71.7074 62.5124 73.3821 63.2075 75.1291 63.2102H77.3291C78.3152 63.2101 79.2887 62.9892 80.1782 62.5635C81.0677 62.1378 81.8505 61.5181 82.4691 60.7502C83.0783 61.5111 83.8494 62.1268 84.7264 62.5523C85.6035 62.9778 86.5643 63.2026 87.5391 63.2102V60.4502C86.673 60.4487 85.8332 60.153 85.1573 59.6115C84.4814 59.0701 84.0095 58.315 83.8191 57.4702ZM81.8191 53.0102L81.0591 57.2902C80.9036 58.1766 80.4401 58.9796 79.7504 59.5578C79.0607 60.1359 78.189 60.4519 77.2891 60.4502H75.0891C74.0733 60.4502 73.0991 60.0466 72.3808 59.3284C71.6626 58.6101 71.2591 57.6359 71.2591 56.6202V52.2102C71.2617 51.0122 71.7388 49.864 72.5859 49.017C73.4329 48.1699 74.5811 47.6928 75.7791 47.6902H77.3691C78.0286 47.6917 78.6799 47.8375 79.2771 48.1175C79.8744 48.3975 80.4031 48.8047 80.8262 49.3107C81.2493 49.8167 81.5565 50.4092 81.7263 51.0466C81.8961 51.6839 81.9243 52.3507 81.8091 53.0002L81.8191 53.0102Z" fill="white"/>
<path d="M113.06 57.4702L113.77 53.4702C113.956 52.4215 113.909 51.3448 113.634 50.316C113.359 49.2872 112.862 48.3312 112.177 47.5153C111.493 46.6993 110.638 46.0432 109.673 45.5931C108.708 45.1431 107.655 44.9099 106.59 44.9102H105.01C103.081 44.9128 101.23 45.6806 99.8657 47.0453C98.501 48.41 97.7331 50.2602 97.7305 52.1902V56.6002C97.7305 58.3462 98.4234 60.0209 99.6571 61.2565C100.891 62.492 102.564 63.1875 104.31 63.1902H106.54C107.527 63.1901 108.5 62.9692 109.39 62.5435C110.279 62.1178 111.062 61.4981 111.68 60.7302C112.296 61.499 113.077 62.1194 113.965 62.5452C114.853 62.9711 115.826 63.1915 116.81 63.1902V60.4502C115.939 60.4555 115.092 60.1629 114.41 59.6209C113.728 59.0789 113.252 58.32 113.06 57.4702ZM111.06 53.0102L110.3 57.2902C110.145 58.1749 109.683 58.9766 108.996 59.5545C108.308 60.1324 107.439 60.4496 106.54 60.4502H104.33C103.316 60.4475 102.343 60.0432 101.625 59.3255C100.907 58.6078 100.503 57.6351 100.5 56.6202V52.2102C100.503 51.0105 100.982 49.8608 101.831 49.0134C102.68 48.166 103.831 47.6902 105.03 47.6902H106.61C107.27 47.6934 107.92 47.8404 108.516 48.1209C109.113 48.4014 109.641 48.8087 110.063 49.3143C110.486 49.8199 110.793 50.4116 110.964 51.0482C111.134 51.6848 111.164 52.351 111.05 53.0002L111.06 53.0102Z" fill="white"/>
<path d="M27.9392 60.5006V63.2606C26.1932 63.258 24.5196 62.5625 23.2859 61.3269C22.0522 60.0913 21.3592 58.4167 21.3592 56.6706V56.3806V40.8106L16.8792 46.6706H14.6892L10.2092 40.8106V63.3006L7.44922 62.6406V36.7306L9.91922 35.8906L15.7792 43.5706L21.6392 35.8906L24.1192 36.7306V53.0006V56.6606C24.1192 57.6756 24.521 58.6493 25.2368 59.3689C25.9527 60.0884 26.9242 60.4953 27.9392 60.5006Z" fill="white"/>
<path d="M66.6804 53.6109L64.9504 63.1609L62.2804 62.5209L63.9804 53.1209C64.0955 52.4709 64.0672 51.8037 63.8975 51.1658C63.7277 50.528 63.4207 49.935 62.9977 49.4282C62.5748 48.9215 62.0463 48.5132 61.4491 48.2322C60.8519 47.9511 60.2004 47.8039 59.5404 47.8009H57.9604C57.0269 47.7973 56.1153 48.0841 55.3521 48.6216C54.5888 49.1591 54.0116 49.9207 53.7004 50.8009L53.4004 63.2209L50.6504 62.5709L51.3004 35.8809L54.0404 36.5309L53.8004 46.3309C55.0209 45.4811 56.4732 45.0273 57.9604 45.0309H59.5404C60.6059 45.0289 61.6589 45.2609 62.625 45.7104C63.5911 46.1599 64.4467 46.816 65.1315 47.6324C65.8163 48.4488 66.3135 49.4055 66.588 50.4351C66.8626 51.4646 66.9077 52.5419 66.7204 53.5909L66.6804 53.6109Z" fill="white"/>
</svg>
