<svg width="29" height="32" viewBox="0 0 29 32" fill="none" xmlns="http://www.w3.org/2000/svg">
<path d="M11.9883 4.83335H18.6753V20.2862C18.6707 22.0475 17.9678 23.7351 16.7207 24.979C15.4737 26.2228 13.7842 26.9213 12.0229 26.9213V31.7026C15.0493 31.6981 17.9505 30.4938 20.0905 28.3538C22.2305 26.2138 23.4347 23.3126 23.4393 20.2862V4.83335H29.0003V0H11.9883V4.83335Z" fill="#AA915E"/>
<path d="M3.67265 13.9977C5.701 13.9977 7.34535 12.3534 7.34535 10.325C7.34535 8.29665 5.701 6.65234 3.67265 6.65234C1.6443 6.65234 0 8.29665 0 10.325C0 12.3534 1.6443 13.9977 3.67265 13.9977Z" fill="#AA915E"/>
<path d="M3.67265 24.7027C5.701 24.7027 7.34535 23.0584 7.34535 21.0301C7.34535 19.0017 5.701 17.3574 3.67265 17.3574C1.6443 17.3574 0 19.0017 0 21.0301C0 23.0584 1.6443 24.7027 3.67265 24.7027Z" fill="#AA915E"/>
</svg>
