<svg width="34" height="34" viewBox="0 0 34 34" fill="none" xmlns="http://www.w3.org/2000/svg">
<ellipse cx="16.9156" cy="16.8955" rx="16.2301" ry="16.1376" fill="#04243E" fill-opacity="0.07"/>
<path d="M16.8059 11.5156C13.879 11.5156 11.5059 13.8742 11.5059 16.7831C11.5059 18.9395 12.8119 20.7925 14.6788 21.6085C14.6646 21.2416 14.6764 20.7995 14.771 20.3998C14.8728 19.9718 15.4525 17.5285 15.4525 17.5285C15.4525 17.5285 15.2821 17.1923 15.2821 16.6961C15.2821 15.9154 15.7364 15.3322 16.3043 15.3322C16.7869 15.3322 17.0188 15.692 17.0188 16.1223C17.0188 16.6044 16.7089 17.324 16.5503 17.9918C16.4178 18.5515 16.8319 19.0053 17.3879 19.0053C18.3911 19.0053 19.0678 17.7237 19.0678 16.2046C19.0678 15.05 18.2847 14.187 16.8626 14.187C15.2561 14.187 14.2529 15.3792 14.2529 16.7102C14.2529 17.1687 14.3901 17.4933 14.603 17.7425C14.7001 17.8578 14.7143 17.9048 14.6788 18.0365C14.6527 18.1329 14.596 18.3657 14.5699 18.4597C14.5344 18.5938 14.4256 18.6408 14.3049 18.5914C13.5643 18.2904 13.2189 17.4862 13.2189 16.5785C13.2189 15.0829 14.4895 13.2887 17.007 13.2887C19.03 13.2887 20.3621 14.7443 20.3621 16.3057C20.3621 18.3727 19.2051 19.9154 17.5015 19.9154C16.9289 19.9154 16.3918 19.6073 16.2072 19.2593C16.2072 19.2593 15.8997 20.4727 15.8334 20.7078C15.7222 21.1146 15.5022 21.5191 15.301 21.8366C15.7889 21.9796 16.2949 22.0525 16.8035 22.0529C19.7303 22.0529 22.1035 19.6943 22.1035 16.7854C22.1035 13.8766 19.7327 11.5156 16.8059 11.5156Z" fill="url(#paint0_linear_356_1214)"/>
<defs>
<linearGradient id="paint0_linear_356_1214" x1="16.8212" y1="5.45668" x2="6.40808" y2="17.9534" gradientUnits="userSpaceOnUse">
<stop stop-color="#2E7CBB"/>
<stop stop-color="#172D5A"/>
<stop offset="1" stop-color="#367FBA"/>
</linearGradient>
</defs>
</svg>
