<svg width="113" height="114" viewBox="0 0 113 114" fill="none" xmlns="http://www.w3.org/2000/svg">
<circle cx="56.4933" cy="56.6047" r="55.2548" stroke="#A1A1A1" stroke-width="2.4927"/>
<path d="M60.3571 48.7383C60.3571 50.0772 60.7344 51.5499 61.489 53.1565C62.268 54.7631 62.6575 56.248 62.6575 57.6112C62.6575 59.2665 61.9272 60.8732 60.4666 62.4311C59.0304 63.9647 58.0932 64.7315 57.655 64.7315L57.509 64.5854L57.7281 64.2933C58.5801 63.3926 59.0061 62.4433 59.0061 61.4452C59.0061 60.082 58.6774 58.5119 58.0202 56.7349C57.3629 54.9335 57.0343 53.4608 57.0343 52.3167C57.0343 51.0996 57.3386 49.8581 57.9471 48.5922L58.0932 48.2636C58.7748 47.1439 59.5416 46.2432 60.3936 45.5616C61.2699 44.88 61.7811 44.5392 61.9272 44.5392L62.1463 44.6852L61.9272 44.9043C60.9535 45.732 60.4301 46.8517 60.3571 48.2636V48.7383ZM57.9471 48.5922C56.2432 48.6896 54.5026 48.9574 52.7256 49.3956C52.7256 49.639 52.5431 49.7607 52.1779 49.7607C51.9588 49.7607 51.8128 49.6877 51.7397 49.5416L51.3746 49.6146C51.2772 49.9798 51.0703 50.1624 50.7539 50.1624C50.5104 50.1624 50.34 50.0285 50.2427 49.7607C50.1453 49.8094 50.0236 49.8337 49.8775 49.8337C49.8775 50.3449 49.4515 50.6005 48.5995 50.6005C48.2831 50.6005 47.8571 50.6979 47.3215 50.8926L47.2485 50.7466C47.2485 50.5518 47.3459 50.4058 47.5406 50.3084C47.7354 50.1867 47.8449 50.0528 47.8692 49.9068H46.5913C46.4939 50.1745 46.287 50.3084 45.9705 50.3084C45.7027 50.3084 45.508 50.1502 45.3863 49.8337L44.8021 49.7607C44.8021 49.9311 44.6438 50.0163 44.3274 50.0163C44.0353 50.0163 43.8892 49.8824 43.8892 49.6146C41.674 49.2008 39.8848 48.5314 38.5216 47.6064V48.0445C38.5216 50.3814 38.9355 52.5236 39.7631 54.471C41.5645 53.8868 43.4145 53.5947 45.3133 53.5947C48.3318 53.5947 50.8634 54.1059 52.9082 55.1283C54.9773 56.1263 56.4501 57.2826 57.3264 58.5971C58.2271 59.9116 58.6774 60.7393 58.6774 61.0801L58.5314 61.2261L58.3488 60.8975C56.1336 56.4184 51.9101 54.1789 45.6784 54.1789C43.731 54.1789 41.8931 54.5075 40.1648 55.1648C40.8464 56.3332 41.7105 57.4043 42.7573 58.378C43.4876 58.1833 44.2665 58.0859 45.0942 58.0859C46.7982 58.0859 48.3439 58.4267 49.7315 59.1083C51.119 59.7899 51.8128 60.2403 51.8128 60.4593L51.6667 60.6054L51.3381 60.4228C49.3907 59.1083 47.285 58.4511 45.0211 58.4511C44.5586 58.4511 43.9257 58.4997 43.1224 58.5971C46.0435 60.788 49.8897 61.8834 54.6609 61.8834L55.5007 61.9929L54.2592 62.1025C49.5367 62.1025 45.7027 60.9584 42.7573 58.6701C40.8342 59.1327 39.2884 60.009 38.12 61.2992C36.9759 62.565 36.4038 64.0134 36.4038 65.6443C36.4038 67.8109 37.3045 69.4296 39.1059 70.5007C39.2276 70.5738 39.4467 70.6711 39.7631 70.7928C40.5177 71.085 41.4184 71.231 42.4652 71.231C43.7797 71.231 45.0577 70.8172 46.2991 69.9895L46.6643 69.807L46.8834 69.88C46.8834 70.0747 46.3722 70.4399 45.3498 70.9754C44.3274 71.4866 43.3172 71.7422 42.3191 71.7422C41.2724 71.7422 40.2743 71.5475 39.3249 71.158L38.7407 70.9389C36.6472 69.7218 35.6005 67.9204 35.6005 65.5348C35.6005 63.9525 36.2212 62.5163 37.4627 61.2261C38.7042 59.936 40.3473 59.0109 42.3921 58.4511C41.2724 57.4287 40.396 56.3819 39.7631 55.3108C37.0611 56.3332 34.9432 57.8425 33.4097 59.8386C31.8761 61.8347 31.1093 64.0621 31.1093 66.5207C31.1093 69.3444 32.0465 71.6448 33.9209 73.4219C35.7952 75.1989 38.2904 76.0874 41.4062 76.0874C45.082 76.0874 48.3683 74.8337 51.2651 72.3264L51.5937 72.0708L51.6667 72.2169C51.6667 72.3629 51.2042 72.8255 50.2792 73.6044C49.3542 74.3834 48.064 75.0772 46.4087 75.6857C44.7534 76.3186 42.9398 76.6351 40.9681 76.6351C37.9983 76.6351 35.4423 75.637 33.3001 73.6409C31.1823 71.6448 30.1234 69.2471 30.1234 66.4477C30.1234 63.8186 30.951 61.4452 32.6063 59.3274C34.2616 57.2096 36.5255 55.6395 39.398 54.6171C38.4973 52.7427 38.0469 50.5518 38.0469 48.0445V47.3143C35.1988 45.2938 33.7748 42.251 33.7748 38.1857C33.7748 34.9725 35.2597 32.0635 38.2295 29.4588C41.1993 26.8542 44.5343 25.5518 48.2344 25.5518C49.9384 25.5518 51.4355 25.6979 52.7256 25.99C53.8211 24.0182 55.306 22.509 57.1804 21.4622C59.0791 20.3912 61.2091 19.8556 63.5703 19.8556C66.7592 19.8556 69.583 20.9511 72.0416 23.1419C74.5002 25.3084 75.7295 27.9009 75.7295 30.9194C75.7295 33.2076 74.9871 35.1064 73.5022 36.6156C79.028 40.7539 81.7909 45.5129 81.7909 50.8926C81.7909 55.4447 80.5737 59.656 78.1395 63.5265C79.9165 64.768 81.2918 66.3138 82.2656 68.1638C83.2636 69.9895 83.7626 71.9126 83.7626 73.9331C83.7626 77.974 81.9369 81.3576 78.2855 84.084C74.6584 86.8347 70.5202 88.2101 65.8707 88.2101C59.639 88.2101 54.9286 86.64 51.7397 83.4998C50.1575 84.1083 48.5387 84.4126 46.8834 84.4126C45.0333 84.4126 43.451 84.1205 42.1365 83.5363C40.822 82.9764 40.1648 82.5626 40.1648 82.2948L40.3108 82.1487L40.6029 82.2948C42.3313 83.2928 44.4247 83.7919 46.8834 83.7919C48.3683 83.7919 49.8654 83.5728 51.3746 83.1346C50.7904 82.4774 50.2427 81.601 49.7315 80.5056L49.8775 80.3595L50.0236 80.5786C50.5104 81.4793 51.0825 82.2826 51.7397 82.9886C54.2227 82.1366 56.0119 80.9803 57.1073 79.5197C56.2797 78.8381 55.8658 77.974 55.8658 76.9272C55.8658 75.8318 56.231 75.2841 56.9613 75.2841C57.3751 75.2841 57.7159 75.4788 57.9837 75.8683C58.2514 76.2578 58.3853 76.7568 58.3853 77.3654C58.3853 78.0226 58.1419 78.7164 57.655 79.4467C59.0669 80.4691 61.0387 81.102 63.5703 81.3454C63.619 81.1263 63.7894 81.0168 64.0815 81.0168C64.3249 81.0168 64.471 81.1263 64.5197 81.3454H64.8848C64.8848 80.9803 65.0917 80.7977 65.5056 80.7977C65.822 80.7977 66.0168 80.9559 66.0898 81.2724L66.7836 81.1994C66.4671 81.1263 66.3089 80.9438 66.3089 80.6517C66.3089 80.4326 66.5158 80.2743 66.9296 80.177C67.3678 80.1039 67.6477 80.0674 67.7694 80.0674C68.0616 80.0674 68.2076 80.1891 68.2076 80.4326C68.2806 80.6517 68.1954 80.7977 67.952 80.8707L68.5728 80.6517C68.5728 80.3109 68.7675 80.1405 69.157 80.1405C69.3761 80.1405 69.5586 80.2135 69.7047 80.3595L69.9968 80.2135C69.9968 79.9214 70.1672 79.7753 70.508 79.7753L70.8001 79.8483C74.0377 78.2417 75.6565 75.8926 75.6565 72.8011C75.6565 71.5596 75.2062 70.5007 74.3055 69.6244C73.4291 68.748 72.3581 68.3099 71.0922 68.3099C69.8994 68.3099 68.8405 68.7115 67.9155 69.5148C67.0148 70.3182 66.5645 71.2675 66.5645 72.3629C66.5645 73.1663 66.9296 73.5679 67.6599 73.5679C68.0737 73.5679 68.2806 73.7627 68.2806 74.1521C68.2806 74.4443 68.0494 74.5903 67.5869 74.5903C67.1974 74.5903 66.8688 74.3712 66.601 73.9331C66.3576 73.5192 66.2359 72.9959 66.2359 72.3629C66.2359 71.2432 66.7227 70.2208 67.6964 69.2958C68.6701 68.3464 69.8021 67.8717 71.0922 67.8717C72.5041 67.8717 73.6847 68.3464 74.6341 69.2958C75.5835 70.2451 76.0582 71.4136 76.0582 72.8011C76.0582 76.0387 74.3542 78.5095 70.9462 80.2135C70.9462 80.5056 70.7758 80.6517 70.435 80.6517C70.2889 80.6517 70.1672 80.603 70.0698 80.5056L69.7777 80.6517C69.7777 81.0655 69.5708 81.2724 69.157 81.2724C68.9379 81.2724 68.7675 81.1629 68.6458 80.9438C68.4024 80.9925 68.232 81.0411 68.1346 81.0898C68.3293 81.2115 68.4267 81.4063 68.4267 81.674C68.4267 81.8688 67.952 82.0514 67.0027 82.2218C66.6862 82.2218 66.528 82.0757 66.528 81.7836C66.528 81.5888 66.6132 81.4671 66.7836 81.4185L66.0898 81.4915C66.0168 81.7836 65.822 81.9296 65.5056 81.9296C65.2621 81.9296 65.0917 81.8323 64.9944 81.6375H64.5197C64.4467 81.8323 64.2763 81.9296 64.0085 81.9296C63.7651 81.9296 63.619 81.8323 63.5703 81.6375C61.063 81.4915 59.0182 80.8707 57.436 79.7753C56.2918 81.1872 54.5148 82.38 52.1049 83.3537C54.953 85.934 59.0913 87.2242 64.5197 87.2242C69.6073 87.2242 73.9647 85.9462 77.5917 83.3902C81.2432 80.8586 83.0689 77.5601 83.0689 73.4949C83.0689 71.7665 82.6185 70.0382 81.7178 68.3099C80.8415 66.5572 79.5757 65.0845 77.9204 63.8917C76.7032 65.6443 75.973 66.5207 75.7295 66.5207L75.5835 66.3746C76.4598 65.4009 77.1658 64.5246 77.7013 63.7456C76.2651 62.7719 74.5367 62.1025 72.5163 61.7373C71.4452 61.5426 70.6297 61.4452 70.0698 61.4452H69.7777C66.175 61.4452 62.8887 62.6867 59.9189 65.1697L59.6633 65.3157L59.5173 65.1697C61.5864 63.563 63.4243 62.4676 65.0309 61.8834C66.6619 61.2992 68.3902 61.0071 70.2159 61.0071C70.9705 61.0071 71.8469 61.1044 72.8449 61.2992C74.8167 61.6886 76.5085 62.4068 77.9204 63.4535C80.2086 59.656 81.3527 55.4691 81.3527 50.8926C81.3527 48.3853 80.6224 45.9145 79.1619 43.4803C77.7013 41.046 75.6443 38.9038 72.991 37.0538C71.7738 38.1005 70.3011 38.6239 68.5728 38.6239C66.6984 38.6239 65.1648 38.0884 63.972 37.0173C62.8035 35.9462 62.2193 34.5952 62.2193 32.9642C61.1726 32.7938 60.1258 32.7086 59.0791 32.7086C57.7159 32.7086 56.2432 32.8425 54.6609 33.1103C55.1477 33.7675 55.3912 34.4369 55.3912 35.1185C55.3912 36.36 54.8921 36.9808 53.8941 36.9808C53.3585 36.9808 52.8595 36.7008 52.397 36.1409C51.9345 35.581 51.5937 34.8142 51.3746 33.8405C47.5041 34.9846 44.3639 36.9077 41.954 39.6098L41.7349 39.9019C39.8118 42.1414 38.7407 44.5635 38.5216 47.1682C40.2256 48.2393 42.0392 48.9574 43.9622 49.3225C44.0353 49.1765 44.1813 49.1034 44.4004 49.1034C44.6438 49.1034 44.8021 49.2252 44.8751 49.4686C45.1185 49.4686 45.2889 49.4929 45.3863 49.5416C45.5567 49.2982 45.7514 49.1765 45.9705 49.1765C46.287 49.1765 46.4939 49.3225 46.5913 49.6146H47.8692C47.3094 49.3469 47.0294 49.1278 47.0294 48.9574L47.1025 48.8113C47.4676 48.933 47.7719 48.9939 48.0153 48.9939C48.137 48.9939 48.2952 48.9817 48.49 48.9574C48.7091 48.9087 48.9038 48.8844 49.0742 48.8844C49.5611 48.8844 49.8288 49.1034 49.8775 49.5416H50.1696C50.1696 49.2008 50.3644 49.0304 50.7539 49.0304C51.0216 49.0304 51.2042 49.1521 51.3016 49.3956L51.7397 49.3225C51.7397 49.0304 51.9101 48.8844 52.2509 48.8844C52.4944 48.8844 52.6526 48.9574 52.7256 49.1034C55.1356 48.6166 56.9248 48.3366 58.0932 48.2636C58.9939 48.2149 59.7485 48.2149 60.3571 48.2636C62.9374 48.507 65.0065 49.3469 66.5645 50.7831C68.1468 52.2193 68.9379 53.899 68.9379 55.822C68.9379 57.0392 68.6093 58.1103 67.952 59.0353C67.2948 59.936 66.5523 60.3863 65.7247 60.3863C65.3839 60.3863 65.0552 60.2889 64.7388 60.0942C64.4467 59.8995 64.3006 59.6804 64.3006 59.4369C64.3006 59.0231 64.471 58.8162 64.8118 58.8162C65.0309 58.8162 65.1404 58.9379 65.1404 59.1813C65.1404 59.7899 65.3839 60.0942 65.8707 60.0942C66.528 60.0942 67.1365 59.6925 67.6964 58.8892C68.2806 58.0859 68.5728 57.0392 68.5728 55.749C68.5728 53.8503 67.806 52.2315 66.2724 50.8926C64.7388 49.5538 62.767 48.787 60.3571 48.5922C59.6998 48.5436 58.8965 48.5436 57.9471 48.5922ZM40.9681 37.1268C40.9681 35.4715 41.7957 34.0231 43.451 32.7816C45.1307 31.5401 46.9929 30.9194 49.0377 30.9194C49.8654 30.9194 50.5956 30.9924 51.2285 31.1385C51.3503 29.4588 51.7641 27.8644 52.47 26.3551C51.1312 26.1117 49.768 25.99 48.3804 25.99C44.7047 25.99 41.4306 27.2558 38.5581 29.7875C35.6857 32.3191 34.2495 35.2646 34.2495 38.6239C34.2495 42.1536 35.5396 44.8921 38.12 46.8396C38.4121 44.1619 39.5075 41.6789 41.4062 39.3907L41.6618 39.1716C44.1692 36.2748 47.3581 34.1813 51.2285 32.8912V31.5401C50.693 31.3211 49.9871 31.2115 49.1107 31.2115C47.0903 31.2115 45.2767 31.8079 43.6701 33.0007C42.0635 34.1935 41.2602 35.5689 41.2602 37.1268L41.1141 37.711L40.9681 37.1268ZM72.5163 61.7373C71.5913 63.0762 70.1064 64.4637 68.0616 65.8999C66.0411 67.3118 62.5479 69.1132 57.582 71.304C55.7806 72.1073 54.5513 73.0324 53.8941 74.0791L53.748 74.2252L53.5289 74.0791C53.5289 73.8113 53.8332 73.3367 54.4418 72.6551C54.4418 72.3143 53.675 71.5961 52.1414 70.5007C50.6078 69.4053 48.7821 68.8576 46.6643 68.8576C43.7918 68.8576 41.4914 69.5027 39.7631 70.7928C39.5927 70.9146 39.4467 71.0363 39.3249 71.158C38.8868 71.5718 38.4121 72.1439 37.9009 72.8741L37.7548 72.7281C37.7548 72.3873 38.0835 71.7909 38.7407 70.9389L39.1059 70.5007C41.4184 67.5066 44.6803 66.0095 48.8916 66.0095C52.7378 66.0095 55.8172 67.3118 58.1297 69.9165L58.4583 70.2816C58.7018 70.2816 60.4423 69.4296 63.6799 67.7257C66.9418 66.0217 69.0718 63.9282 70.0698 61.4452L70.2159 61.0071C70.8488 59.4248 71.1653 57.4043 71.1653 54.9457C71.1653 51.5621 70.1794 48.7626 68.2076 46.5475C66.2359 44.3079 63.7651 43.1882 60.7953 43.1882C59.5294 43.1882 57.9715 43.4072 56.1214 43.8454C54.2714 44.2592 52.6648 44.4662 51.3016 44.4662C49.3055 44.4662 47.4067 44.0645 45.6054 43.2612C43.804 42.4335 42.5138 41.3138 41.7349 39.9019L41.4062 39.3907C41.1141 38.7091 40.9681 37.9545 40.9681 37.1268L41.1141 36.5426L41.2602 37.1268C41.2602 37.7597 41.3941 38.4413 41.6618 39.1716L41.954 39.6098C42.806 40.9973 44.4734 41.6911 46.9564 41.6911C48.3683 41.6911 50.5226 41.3259 53.4194 40.5957C56.3162 39.841 58.6774 39.4637 60.5031 39.4637C64.6657 39.4637 68.1102 40.8026 70.8366 43.4803C73.563 46.1336 74.9262 49.4564 74.9262 53.4486C74.9262 56.4428 74.2325 59.0596 72.8449 61.2992L72.5163 61.7373ZM57.3629 79.1546C57.7037 78.4486 57.8741 77.7792 57.8741 77.1463C57.8741 76.7812 57.7767 76.4647 57.582 76.1969C57.3873 75.9292 57.156 75.7953 56.8882 75.7953C56.7422 75.7953 56.6083 75.917 56.4866 76.1604C56.3649 76.4282 56.304 76.7325 56.304 77.0733C56.304 77.9253 56.657 78.619 57.3629 79.1546ZM73.2101 36.3965C74.6463 35.009 75.3644 33.1589 75.3644 30.8464C75.3644 28.12 74.2081 25.7587 71.8955 23.7626C69.6073 21.7665 66.7836 20.7685 63.4243 20.7685C61.1847 20.7685 59.1643 21.231 57.3629 22.156C55.5859 23.0567 54.1862 24.359 53.1638 26.063C55.6224 26.6229 57.4846 27.3897 58.7505 28.3634C60.0163 29.3128 60.6492 29.897 60.6492 30.1161L60.5031 30.1891L60.2475 29.97C58.2027 28.2417 55.7685 27.0611 52.9447 26.4282C52.2144 27.9861 51.8128 29.6171 51.7397 31.3211C52.5187 31.5401 53.1638 31.8323 53.675 32.1974C55.2086 31.8079 57.01 31.6132 59.0791 31.6132C60.2232 31.6132 61.2943 31.7105 62.2923 31.9053C62.5114 30.4691 63.0591 29.3006 63.9355 28.3999C64.8118 27.4993 65.8099 27.0489 66.9296 27.0489C67.7086 27.0489 68.3658 27.2923 68.9014 27.7792C69.4369 28.2417 69.7047 28.7894 69.7047 29.4223C69.7047 30.6151 69.1813 31.2115 68.1346 31.2115C67.4287 31.2115 67.0757 30.9438 67.0757 30.4082C67.0757 30.1161 67.2217 29.97 67.5139 29.97C67.806 29.97 67.9642 30.1283 67.9885 30.4447C68.0129 30.7612 68.1346 30.9194 68.3537 30.9194C69.0353 30.9194 69.3761 30.4326 69.3761 29.4588C69.3761 28.8746 69.1326 28.3878 68.6458 27.9983C68.1833 27.6088 67.5869 27.4141 66.8566 27.4141C65.8342 27.4141 64.9213 27.8401 64.118 28.692C63.3391 29.544 62.8522 30.6395 62.6575 31.9783C66.4306 32.6112 69.9481 34.084 73.2101 36.3965ZM53.0908 32.3435C52.7256 32.0513 52.2753 31.8323 51.7397 31.6862V32.7086C52.324 32.5139 52.7743 32.3921 53.0908 32.3435ZM72.6623 36.9077C69.5465 34.8386 66.1872 33.5484 62.5844 33.0372C62.6331 34.6195 63.2295 35.8853 64.3736 36.8347C65.5177 37.7841 66.9175 38.2587 68.5728 38.2587C70.082 38.2587 71.4452 37.8084 72.6623 36.9077ZM51.8128 33.6945C51.9832 34.6682 52.2631 35.4106 52.6526 35.9218C53.0421 36.433 53.4559 36.6886 53.8941 36.6886C54.1862 36.6886 54.4296 36.5548 54.6244 36.287C54.8434 36.0192 54.953 35.7271 54.953 35.4106C54.953 34.583 54.6609 33.8405 54.0767 33.1833C53.0786 33.378 52.324 33.5484 51.8128 33.6945Z" fill="#A1A1A1"/>
</svg>
