<svg width="109" height="84" viewBox="0 0 109 84" fill="none" xmlns="http://www.w3.org/2000/svg">
<path fill-rule="evenodd" clip-rule="evenodd" d="M66.7235 81.3639H73.9167V51.7192L66.7235 47.4497V81.3639ZM21.9425 11.446V42.9681L25.1411 41.0756V9.55351L28.3398 7.66098V39.1831L31.5384 37.2905V5.75329L34.737 3.86076V35.3829L37.9357 33.4903V1.96822L39.5276 1.01438L41.1196 0.0605469L61.9034 12.3847L63.4954 13.3386V15.2311V29.8566L61.9034 28.9028V14.2773L41.1196 1.95308V35.3677V81.3488H44.3182V37.2754L47.5169 39.1679V81.3639H50.7155V41.0756L53.9142 42.9681V81.3639H57.1128V44.8607L60.3114 46.7532V55.1561V81.3639H63.5101V45.5571V34.3836L84.2939 22.0594V81.3791H87.2714V40.6517L92.4748 43.7403V81.3791H108.011V83.1505H-0.00585938V81.3791H15.5305V46.7532L18.7291 44.8607V13.3386L21.9425 11.446Z" fill="#A1A1A1"/>
</svg>
