<svg width="159" height="128" viewBox="0 0 159 128" fill="none" xmlns="http://www.w3.org/2000/svg">
<path fill-rule="evenodd" clip-rule="evenodd" d="M39.5449 83.3263V62.6768L48.122 57.793V83.3263H39.5449Z" fill="#A1A1A1"/>
<path fill-rule="evenodd" clip-rule="evenodd" d="M86.9435 54.5144V23.2615L67.5332 12.1992V83.3255H77.2384V48.9751L86.9435 54.5144Z" fill="#A1A1A1"/>
<path fill-rule="evenodd" clip-rule="evenodd" d="M86.9414 83.3267V54.5156L99.0687 61.4316V83.3267H86.9414Z" fill="#A1A1A1"/>
<path fill-rule="evenodd" clip-rule="evenodd" d="M65.0927 26.9492V83.3258H56.6981V62.6762L48.1211 57.7925V36.6185L65.0927 26.9492Z" fill="#A1A1A1"/>
<path fill-rule="evenodd" clip-rule="evenodd" d="M78.4473 12.0033L99.0687 0.236328V58.6451L89.3801 53.1222V21.8856L78.4473 15.6579V12.0033Z" fill="#A1A1A1"/>
<path fill-rule="evenodd" clip-rule="evenodd" d="M101.508 43.0286L118.479 33.3594V83.328H101.508V43.0286Z" fill="#A1A1A1"/>
<path d="M12.1636 93.8769C13.2282 93.8769 14.3144 93.9764 15.4223 94.1755C16.5302 94.3659 17.6077 94.6602 18.655 95.0583C19.7023 95.4565 20.689 95.9585 21.6151 96.5643C22.5412 97.1616 23.3505 97.8626 24.0429 98.6676C24.7353 99.4725 25.2806 100.381 25.6787 101.394C26.0855 102.407 26.2889 103.527 26.2889 104.756C26.2889 105.986 26.0725 107.124 25.6398 108.171C25.207 109.218 24.6011 110.123 23.8222 110.884C23.0432 111.646 22.1128 112.243 21.0309 112.676C19.949 113.109 18.7589 113.325 17.4606 113.325C16.8461 113.325 16.2099 113.278 15.5521 113.182C14.8943 113.096 14.2365 112.957 13.5787 112.767C12.921 112.576 12.2718 112.343 11.6313 112.066C10.9995 111.78 10.3936 111.443 9.81373 111.053C9.12997 111.728 8.33802 112.256 7.43788 112.637C6.5464 113.009 5.60298 113.195 4.60763 113.195C4.07101 113.195 3.56901 113.135 3.10163 113.014C2.63424 112.892 2.22745 112.719 1.88124 112.494C1.54369 112.269 1.27538 111.997 1.07631 111.676C0.885894 111.356 0.790687 111.001 0.790687 110.612C0.790687 110.274 0.872911 109.958 1.03736 109.664C1.21046 109.37 1.44848 109.11 1.75141 108.885C2.063 108.66 2.43085 108.483 2.85495 108.353C3.28771 108.223 3.75942 108.158 4.27008 108.158C5.77608 108.158 7.55905 108.712 9.61899 109.82C9.99982 109.344 10.3114 108.807 10.5538 108.21C10.8221 107.543 11.0298 106.86 11.1769 106.159C11.3327 105.449 11.4669 104.744 11.5794 104.042C11.7006 103.341 11.8217 102.658 11.9429 101.991C12.0727 101.325 12.2458 100.697 12.4622 100.109C12.6873 99.5201 12.9772 98.9835 13.3321 98.4988C13.6956 98.0054 14.1673 97.5857 14.7472 97.2395C14.8338 97.1962 14.9116 97.1745 14.9809 97.1745C15.1021 97.1745 15.2146 97.2178 15.3184 97.3044C15.431 97.3909 15.4872 97.5121 15.4872 97.6679C15.4872 97.8496 15.405 97.9881 15.2405 98.0833C14.7818 98.3516 14.4053 98.6892 14.111 99.096C13.8254 99.4941 13.5874 99.9442 13.397 100.446C13.2066 100.948 13.0551 101.489 12.9426 102.069C12.8301 102.649 12.7219 103.255 12.618 103.887C12.5315 104.406 12.4363 104.951 12.3324 105.522C12.2285 106.085 12.0987 106.648 11.9429 107.21C11.7871 107.764 11.5881 108.309 11.3457 108.846C11.112 109.374 10.8221 109.863 10.4759 110.313C10.4932 110.322 10.5018 110.33 10.5018 110.339C10.5105 110.339 10.5235 110.343 10.5408 110.352C11.64 111.01 12.7825 111.508 13.9682 111.845C15.154 112.183 16.3138 112.351 17.4476 112.351C18.6767 112.351 19.7759 112.148 20.7453 111.741C21.7233 111.334 22.5499 110.789 23.225 110.105C23.9001 109.413 24.4151 108.608 24.7699 107.691C25.1248 106.773 25.3022 105.804 25.3022 104.782C25.3022 103.744 25.1291 102.779 24.7829 101.887C24.4367 100.987 23.9607 100.169 23.3548 99.4335C22.7576 98.6979 22.0435 98.0444 21.2126 97.4731C20.3904 96.9019 19.4989 96.4259 18.5382 96.045C17.5861 95.6556 16.5821 95.3613 15.5262 95.1622C14.4789 94.9545 13.4273 94.8506 12.3713 94.8506C10.9519 94.8506 9.65361 94.9718 8.47651 95.2141C7.30805 95.4478 6.29972 95.794 5.45151 96.2528C4.61196 96.7115 3.95849 97.2741 3.49111 97.9405C3.02373 98.607 2.79004 99.3643 2.79004 100.213C2.79004 100.697 2.85928 101.126 2.99776 101.498C3.1449 101.87 3.32666 102.195 3.54304 102.472C3.76808 102.74 4.01042 102.969 4.27008 103.16C4.52973 103.35 4.77208 103.506 4.99711 103.627C5.22215 103.74 5.41256 103.822 5.56836 103.874C5.73281 103.926 5.82801 103.956 5.85398 103.965C5.9665 103.991 6.05305 104.051 6.11364 104.146C6.18288 104.233 6.2175 104.332 6.2175 104.445C6.2175 104.592 6.16557 104.705 6.0617 104.782C5.95784 104.86 5.84532 104.899 5.72415 104.899C5.55105 104.899 5.33467 104.86 5.07501 104.782C4.81536 104.696 4.53839 104.57 4.24411 104.406C3.95849 104.233 3.66854 104.021 3.37426 103.77C3.08864 103.51 2.82899 103.207 2.5953 102.861C2.36161 102.515 2.17119 102.121 2.02405 101.68C1.88557 101.238 1.81633 100.749 1.81633 100.213C1.81633 99.2345 2.063 98.356 2.55635 97.577C3.05835 96.7894 3.76375 96.1229 4.67254 95.5777C5.58134 95.0324 6.66757 94.6126 7.93123 94.3183C9.20354 94.024 10.6143 93.8769 12.1636 93.8769ZM8.91792 110.56C8.01778 110.084 7.18255 109.725 6.41224 109.482C5.64193 109.24 4.93653 109.119 4.29604 109.119C3.93252 109.119 3.59497 109.162 3.28338 109.249C2.98045 109.326 2.71647 109.435 2.49143 109.573C2.2664 109.712 2.08897 109.872 1.95914 110.053C1.82931 110.235 1.7644 110.426 1.7644 110.625C1.7644 110.815 1.82066 111.006 1.93317 111.196C2.05435 111.386 2.23178 111.555 2.46547 111.702C2.70781 111.849 3.00642 111.971 3.36128 112.066C3.71614 112.161 4.13159 112.209 4.60763 112.209C5.42122 112.209 6.19586 112.066 6.93155 111.78C7.6759 111.486 8.33802 111.079 8.91792 110.56ZM30.6371 107.639C30.6025 107.872 30.5592 108.093 30.5073 108.301C30.4554 108.5 30.4034 108.677 30.3515 108.833C30.3082 108.98 30.2693 109.101 30.2346 109.197C30.2 109.292 30.1784 109.344 30.1697 109.352C30.0832 109.551 29.9317 109.651 29.7153 109.651C29.5942 109.651 29.4816 109.608 29.3778 109.521C29.2739 109.426 29.222 109.309 29.222 109.171C29.222 109.119 29.2306 109.08 29.2479 109.054C29.2653 109.028 29.2912 108.976 29.3258 108.898C29.3605 108.82 29.4037 108.69 29.4557 108.509C29.5076 108.327 29.5725 108.045 29.6504 107.665C29.5033 107.665 29.3518 107.66 29.196 107.652C29.0402 107.643 28.8974 107.613 28.7676 107.561C28.6291 107.509 28.5166 107.427 28.43 107.314C28.3435 107.202 28.3002 107.046 28.3002 106.847C28.3002 106.7 28.3435 106.501 28.43 106.25C28.5079 105.999 28.6161 105.752 28.7546 105.509C28.8931 105.267 29.0489 105.059 29.222 104.886C29.3951 104.705 29.5682 104.614 29.7413 104.614C29.9404 104.614 30.1005 104.687 30.2217 104.834C30.3515 104.982 30.451 105.163 30.5203 105.38C30.5895 105.587 30.6371 105.808 30.6631 106.042C30.6977 106.275 30.715 106.479 30.715 106.652C30.8621 106.652 31.005 106.652 31.1434 106.652C31.2906 106.643 31.4291 106.639 31.5589 106.639C32.0522 106.639 32.4287 106.747 32.6884 106.964C32.948 107.18 33.0779 107.535 33.0779 108.028C33.0779 108.227 33.0649 108.435 33.0389 108.651C33.013 108.868 32.9827 109.093 32.948 109.326C32.9134 109.551 32.8831 109.777 32.8572 110.002C32.8312 110.227 32.8182 110.447 32.8182 110.664C32.8182 110.975 32.8615 111.235 32.948 111.443C33.0346 111.642 33.1428 111.802 33.2726 111.923C33.4024 112.044 33.5409 112.131 33.6881 112.183C33.8352 112.226 33.9694 112.248 34.0905 112.248C34.4627 112.248 34.8132 112.126 35.1421 111.884C35.471 111.642 35.774 111.352 36.0509 111.014C36.3279 110.668 36.5746 110.304 36.791 109.924C37.016 109.543 37.2021 109.21 37.3492 108.924C37.3925 108.846 37.4531 108.785 37.531 108.742C37.6089 108.699 37.6911 108.677 37.7777 108.677C37.9334 108.677 38.0546 108.729 38.1412 108.833C38.2277 108.928 38.271 109.036 38.271 109.158C38.271 109.244 38.2537 109.322 38.2191 109.391C38.02 109.746 37.7863 110.149 37.518 110.599C37.2583 111.04 36.9597 111.456 36.6222 111.845C36.2846 112.235 35.9038 112.563 35.4797 112.832C35.0642 113.1 34.6055 113.234 34.1035 113.234C33.7919 113.234 33.4977 113.174 33.2207 113.053C32.9437 112.94 32.7014 112.776 32.4937 112.559C32.2946 112.334 32.1345 112.061 32.0133 111.741C31.8921 111.412 31.8315 111.044 31.8315 110.638C31.8315 110.205 31.8748 109.777 31.9614 109.352C32.0479 108.92 32.0912 108.509 32.0912 108.119C32.0912 107.955 32.0522 107.833 31.9743 107.756C31.9051 107.669 31.745 107.626 31.494 107.626C31.3728 107.626 31.2386 107.626 31.0915 107.626C30.953 107.626 30.8016 107.63 30.6371 107.639ZM29.7673 106.678C29.7673 106.617 29.7629 106.539 29.7543 106.444C29.7543 106.34 29.7456 106.241 29.7283 106.146C29.7197 106.05 29.7023 105.968 29.6764 105.899C29.6591 105.83 29.6374 105.795 29.6115 105.795C29.5855 105.795 29.5509 105.83 29.5076 105.899C29.473 105.96 29.434 106.037 29.3908 106.133C29.3475 106.219 29.3085 106.314 29.2739 106.418C29.2393 106.522 29.2133 106.609 29.196 106.678H29.7673ZM48.4485 109.352C48.4139 109.422 48.3403 109.569 48.2278 109.794C48.1239 110.01 47.9854 110.261 47.8123 110.547C47.6479 110.832 47.4531 111.131 47.2281 111.443C47.0031 111.754 46.7521 112.04 46.4751 112.3C46.1981 112.559 45.8995 112.776 45.5793 112.949C45.259 113.113 44.9215 113.195 44.5666 113.195C44.0646 113.195 43.6405 113.035 43.2943 112.715C42.9567 112.395 42.7101 111.992 42.5543 111.508C42.26 112.001 41.9095 112.395 41.5027 112.689C41.0959 112.975 40.6891 113.117 40.2823 113.117C39.962 113.117 39.6721 113.061 39.4124 112.949C39.1528 112.827 38.9321 112.663 38.7503 112.455C38.5686 112.239 38.4258 111.988 38.3219 111.702C38.2267 111.417 38.1791 111.105 38.1791 110.768C38.1791 110.092 38.2916 109.5 38.5166 108.989C38.7503 108.47 39.0446 108.037 39.3995 107.691C39.7543 107.344 40.1438 107.085 40.5679 106.912C41.0007 106.739 41.4161 106.652 41.8143 106.652C42.0826 106.652 42.3292 106.691 42.5543 106.769C42.7793 106.838 42.9697 106.916 43.1255 107.003C43.29 107.089 43.4155 107.171 43.502 107.249C43.5886 107.318 43.6362 107.357 43.6448 107.366C43.74 107.479 43.7876 107.595 43.7876 107.717C43.7876 107.846 43.74 107.963 43.6448 108.067C43.5496 108.162 43.4371 108.21 43.3073 108.21C43.1688 108.21 43.052 108.162 42.9567 108.067C42.9394 108.05 42.9005 108.02 42.8399 107.976C42.7793 107.924 42.6971 107.872 42.5932 107.82C42.4894 107.769 42.3639 107.725 42.2167 107.691C42.0782 107.647 41.9181 107.626 41.7364 107.626C41.4681 107.626 41.1824 107.686 40.8795 107.807C40.5766 107.929 40.2996 108.119 40.0486 108.379C39.7976 108.63 39.5855 108.95 39.4124 109.339C39.248 109.72 39.1658 110.175 39.1658 110.703C39.1658 110.867 39.1831 111.036 39.2177 111.209C39.2523 111.373 39.3129 111.525 39.3995 111.663C39.486 111.802 39.6029 111.914 39.75 112.001C39.8971 112.087 40.0789 112.131 40.2953 112.131C40.4511 112.131 40.6285 112.079 40.8276 111.975C41.0353 111.871 41.23 111.711 41.4118 111.495C41.6022 111.278 41.771 111.006 41.9181 110.677C42.0739 110.348 42.1821 109.958 42.2427 109.508C42.26 109.387 42.3163 109.287 42.4115 109.21C42.5067 109.123 42.6192 109.08 42.749 109.08C42.8702 109.08 42.9741 109.127 43.0606 109.223C43.1558 109.318 43.2077 109.426 43.2164 109.547C43.2251 109.712 43.2424 109.945 43.2683 110.248C43.2943 110.542 43.3506 110.837 43.4371 111.131C43.5323 111.425 43.6708 111.681 43.8526 111.897C44.0343 112.113 44.2853 112.222 44.6056 112.222C44.8133 112.222 45.0167 112.165 45.2158 112.053C45.4235 111.94 45.6226 111.793 45.813 111.611C46.012 111.421 46.1981 111.209 46.3712 110.975C46.553 110.733 46.7174 110.491 46.8646 110.248C47.0117 110.006 47.1415 109.772 47.2541 109.547C47.3666 109.322 47.4618 109.127 47.5397 108.963C47.583 108.868 47.6435 108.794 47.7214 108.742C47.808 108.69 47.8989 108.664 47.9941 108.664C48.1412 108.664 48.2581 108.721 48.3446 108.833C48.4398 108.937 48.4874 109.049 48.4874 109.171C48.4874 109.231 48.4744 109.292 48.4485 109.352ZM49.6289 113.611C50.2694 113.325 50.8493 112.996 51.3686 112.624C51.8965 112.252 52.3639 111.862 52.7707 111.456C53.1862 111.04 53.5367 110.62 53.8223 110.196C54.1166 109.764 54.3503 109.352 54.5234 108.963C54.6013 108.773 54.7484 108.677 54.9648 108.677C55.1119 108.677 55.2288 108.729 55.3153 108.833C55.4105 108.928 55.4582 109.036 55.4582 109.158C55.4582 109.227 55.4452 109.292 55.4192 109.352C55.2288 109.777 54.9864 110.218 54.6922 110.677C54.3979 111.127 54.0387 111.572 53.6146 112.014C53.1991 112.447 52.7101 112.866 52.1475 113.273C51.5849 113.68 50.9401 114.052 50.2131 114.39C50.6805 114.874 51.0873 115.411 51.4335 116C51.7797 116.597 52.0653 117.216 52.2903 117.856C52.524 118.497 52.6971 119.141 52.8097 119.791C52.9308 120.448 52.9914 121.076 52.9914 121.673C52.9914 122.218 52.9395 122.729 52.8356 123.205C52.7404 123.69 52.5933 124.11 52.3942 124.464C52.2038 124.819 51.9701 125.096 51.6931 125.295C51.4162 125.503 51.1003 125.607 50.7454 125.607C50.2261 125.607 49.8236 125.412 49.538 125.023C49.2524 124.642 49.0403 124.11 48.9018 123.426C48.772 122.751 48.6941 121.95 48.6681 121.024C48.6508 120.106 48.6422 119.107 48.6422 118.025C48.6422 117.488 48.6422 116.861 48.6422 116.142C48.6422 115.433 48.6422 114.667 48.6422 113.844C48.6508 113.031 48.6552 112.178 48.6552 111.287C48.6638 110.387 48.6725 109.487 48.6811 108.586C48.6898 107.686 48.6984 106.803 48.7071 105.938C48.7157 105.064 48.7287 104.237 48.746 103.458C48.772 101.97 48.8239 100.641 48.9018 99.4725C48.9797 98.304 49.1052 97.3174 49.2783 96.5124C49.4514 95.7075 49.6851 95.0973 49.9794 94.6818C50.2823 94.2577 50.6632 94.0457 51.1219 94.0457C51.4854 94.0457 51.7927 94.1495 52.0437 94.3573C52.2947 94.5563 52.4981 94.829 52.6539 95.1752C52.8097 95.5127 52.9222 95.9109 52.9914 96.3696C53.0607 96.8283 53.0953 97.3087 53.0953 97.8107C53.0953 98.8666 53.0044 99.8879 52.8226 100.875C52.6409 101.861 52.3942 102.818 52.0826 103.744C51.771 104.67 51.4032 105.574 50.9791 106.457C50.5636 107.34 50.1179 108.21 49.6419 109.067C49.6419 109.422 49.6419 109.807 49.6419 110.222C49.6419 110.629 49.6419 111.04 49.6419 111.456C49.6419 111.862 49.6375 112.256 49.6289 112.637C49.6289 113.009 49.6289 113.334 49.6289 113.611ZM49.6678 107.067C50.0227 106.401 50.3473 105.7 50.6415 104.964C50.9445 104.22 51.2041 103.454 51.4205 102.666C51.6369 101.879 51.8057 101.074 51.9268 100.251C52.048 99.4292 52.1086 98.6026 52.1086 97.7717C52.1086 97.3563 52.0869 96.9798 52.0437 96.6422C52.0091 96.3047 51.9485 96.0191 51.8619 95.7854C51.784 95.543 51.6802 95.3569 51.5503 95.2271C51.4292 95.0886 51.2863 95.0194 51.1219 95.0194C50.9488 95.0194 50.7973 95.1233 50.6675 95.331C50.5377 95.5387 50.4252 95.8157 50.3299 96.1619C50.2347 96.5081 50.1525 96.9062 50.0833 97.3563C50.0227 97.8064 49.9708 98.2781 49.9275 98.7714C49.8842 99.2561 49.8496 99.7451 49.8236 100.238C49.7976 100.723 49.776 101.182 49.7587 101.615C49.75 102.039 49.7414 102.415 49.7327 102.744C49.7327 103.073 49.7327 103.32 49.7327 103.484C49.7241 103.83 49.7154 104.138 49.7068 104.406C49.7068 104.674 49.7024 104.938 49.6938 105.198C49.6851 105.458 49.6765 105.735 49.6678 106.029C49.6678 106.323 49.6678 106.669 49.6678 107.067ZM49.6289 115.208C49.6289 115.753 49.6245 116.259 49.6159 116.727C49.6159 117.203 49.6159 117.635 49.6159 118.025C49.6159 118.83 49.6202 119.626 49.6289 120.414C49.6375 121.201 49.6765 121.907 49.7457 122.53C49.8236 123.162 49.9361 123.668 50.0833 124.049C50.2391 124.438 50.4598 124.633 50.7454 124.633C51.005 124.633 51.2171 124.516 51.3816 124.283C51.546 124.049 51.6715 123.772 51.7581 123.452C51.8533 123.131 51.9182 122.803 51.9528 122.465C51.9874 122.136 52.0047 121.868 52.0047 121.66C52.0047 121.132 51.9528 120.578 51.8489 119.998C51.7537 119.418 51.6023 118.843 51.3945 118.272C51.1955 117.709 50.9488 117.164 50.6545 116.636C50.3602 116.108 50.0184 115.632 49.6289 115.208ZM66.116 99.9788C66.116 100.117 66.0684 100.23 65.9732 100.316C65.878 100.394 65.7611 100.433 65.6226 100.433H59.0404V100.576C59.0404 101.104 59.0014 101.667 58.9235 102.264C58.8456 102.861 58.7374 103.458 58.5989 104.055C58.4691 104.644 58.3177 105.22 58.1446 105.782C57.9801 106.345 57.807 106.864 57.6252 107.34C57.4521 107.816 57.279 108.232 57.1059 108.586C56.9328 108.933 56.777 109.192 56.6385 109.365C56.7511 109.764 56.8852 110.136 57.041 110.482C57.1968 110.819 57.3699 111.118 57.5603 111.378C57.7594 111.629 57.9714 111.828 58.1965 111.975C58.4215 112.122 58.6639 112.196 58.9235 112.196C59.2265 112.196 59.5251 112.07 59.8193 111.819C60.1223 111.559 60.3992 111.257 60.6502 110.91C60.9099 110.555 61.1349 110.201 61.3253 109.846C61.5244 109.482 61.6672 109.192 61.7538 108.976C61.8403 108.768 61.9918 108.664 62.2082 108.664C62.3553 108.664 62.4722 108.716 62.5587 108.82C62.6539 108.924 62.7015 109.036 62.7015 109.158C62.7015 109.218 62.6885 109.279 62.6626 109.339C62.6366 109.4 62.5717 109.538 62.4678 109.755C62.3726 109.971 62.2428 110.222 62.0783 110.508C61.9225 110.793 61.7365 111.096 61.5201 111.417C61.3124 111.728 61.0743 112.014 60.806 112.274C60.5464 112.533 60.2651 112.75 59.9621 112.923C59.6592 113.096 59.339 113.182 59.0014 113.182C58.4042 113.182 57.8676 112.988 57.3915 112.598C56.9155 112.209 56.5087 111.663 56.1712 110.962C55.8423 110.261 55.5913 109.43 55.4182 108.47C55.2451 107.509 55.1585 106.457 55.1585 105.315C55.1585 105.029 55.1628 104.696 55.1715 104.315C55.1801 103.926 55.1975 103.519 55.2234 103.095C55.2494 102.662 55.2883 102.221 55.3403 101.77C55.3922 101.312 55.4614 100.866 55.548 100.433H50.8872C50.7487 100.433 50.6318 100.394 50.5366 100.316C50.4414 100.23 50.3938 100.117 50.3938 99.9788C50.3938 99.8403 50.4414 99.7322 50.5366 99.6543C50.6318 99.5677 50.7487 99.5244 50.8872 99.5244H55.7687C55.8552 99.2128 55.9548 98.9272 56.0673 98.6676C56.1885 98.4079 56.3226 98.1829 56.4698 97.9925C56.6256 97.802 56.7943 97.6549 56.9761 97.551C57.1665 97.4385 57.3742 97.3823 57.5993 97.3823C57.8157 97.3823 58.0017 97.4385 58.1575 97.551C58.322 97.6549 58.4605 97.802 58.573 97.9925C58.6855 98.1829 58.7721 98.4079 58.8326 98.6676C58.9019 98.9272 58.9538 99.2128 58.9884 99.5244H65.6226C65.7611 99.5244 65.878 99.5677 65.9732 99.6543C66.0684 99.7322 66.116 99.8403 66.116 99.9788ZM56.3399 108.067C56.5996 107.496 56.8333 106.881 57.041 106.224C57.2574 105.557 57.4392 104.886 57.5863 104.211C57.7421 103.536 57.8589 102.874 57.9368 102.225C58.0234 101.576 58.0667 100.979 58.0667 100.433H56.5347C56.4135 100.97 56.314 101.636 56.2361 102.433C56.1668 103.22 56.1322 104.181 56.1322 105.315C56.1322 105.947 56.1495 106.479 56.1841 106.912C56.2188 107.336 56.2707 107.721 56.3399 108.067ZM57.5473 98.356C57.4694 98.356 57.3569 98.4425 57.2098 98.6156C57.0627 98.7801 56.9155 99.083 56.7684 99.5244H58.0147C57.9714 99.1609 57.9065 98.8753 57.82 98.6676C57.7421 98.4598 57.6512 98.356 57.5473 98.356ZM56.5477 109.002V109.015V109.002ZM64.9854 102.783C64.9854 103.112 64.8686 103.393 64.6349 103.627C64.4099 103.852 64.1329 103.965 63.804 103.965C63.4751 103.965 63.1938 103.852 62.9601 103.627C62.7351 103.393 62.6226 103.112 62.6226 102.783C62.6226 102.619 62.6529 102.467 62.7135 102.329C62.774 102.182 62.8563 102.056 62.9601 101.952C63.0726 101.84 63.1981 101.753 63.3366 101.693C63.4838 101.632 63.6396 101.602 63.804 101.602C63.9685 101.602 64.1199 101.632 64.2584 101.693C64.4055 101.753 64.531 101.84 64.6349 101.952C64.7474 102.056 64.834 102.182 64.8946 102.329C64.9552 102.467 64.9854 102.619 64.9854 102.783ZM62.8822 110.391C62.8822 109.145 62.9601 107.903 63.1159 106.665C63.1332 106.544 63.1852 106.44 63.2717 106.353C63.3669 106.258 63.4881 106.211 63.6352 106.211C63.7651 106.211 63.8733 106.263 63.9598 106.366C64.0464 106.462 64.0896 106.574 64.0896 106.704C64.0896 106.756 64.0767 106.912 64.0507 107.171C64.0334 107.431 64.0074 107.743 63.9728 108.106C63.9468 108.461 63.9209 108.842 63.8949 109.249C63.8776 109.647 63.8689 110.015 63.8689 110.352C63.8689 110.811 63.9122 111.183 63.9988 111.469C64.094 111.746 64.2108 111.962 64.3493 112.118C64.4964 112.274 64.6479 112.377 64.8037 112.429C64.9681 112.481 65.1239 112.507 65.2711 112.507C65.5134 112.507 65.7644 112.421 66.0241 112.248C66.2837 112.074 66.5477 111.832 66.816 111.521C67.093 111.209 67.37 110.837 67.6469 110.404C67.9239 109.963 68.1965 109.474 68.4648 108.937C68.5081 108.85 68.5687 108.785 68.6466 108.742C68.7245 108.69 68.811 108.664 68.9063 108.664C69.0447 108.664 69.1573 108.716 69.2438 108.82C69.339 108.924 69.3866 109.036 69.3866 109.158C69.3866 109.244 69.3693 109.318 69.3347 109.378C69.2308 109.577 69.101 109.82 68.9452 110.105C68.7894 110.391 68.612 110.685 68.4129 110.988C68.2138 111.291 67.9931 111.594 67.7508 111.897C67.5171 112.191 67.2661 112.46 66.9978 112.702C66.7295 112.936 66.4482 113.126 66.1539 113.273C65.8596 113.42 65.561 113.494 65.2581 113.494C64.8686 113.494 64.5267 113.412 64.2324 113.247C63.9382 113.083 63.6872 112.862 63.4794 112.585C63.2804 112.308 63.1289 111.984 63.025 111.611C62.9298 111.231 62.8822 110.824 62.8822 110.391ZM64.2584 102.783C64.2584 102.662 64.2108 102.558 64.1156 102.472C64.029 102.376 63.9252 102.329 63.804 102.329C63.6828 102.329 63.579 102.376 63.4924 102.472C63.4059 102.558 63.3626 102.662 63.3626 102.783C63.3626 102.904 63.4059 103.008 63.4924 103.095C63.579 103.181 63.6828 103.225 63.804 103.225C63.9252 103.225 64.029 103.181 64.1156 103.095C64.2108 103.008 64.2584 102.904 64.2584 102.783ZM72.3976 111.806C72.5361 111.521 72.6962 111.209 72.878 110.871C73.0597 110.525 73.2545 110.179 73.4622 109.833C73.6699 109.478 73.8863 109.127 74.1113 108.781C74.345 108.435 74.5874 108.106 74.8384 107.794C75.0894 107.492 75.3404 107.275 75.5914 107.145C75.851 107.007 76.0934 106.938 76.3184 106.938C76.7685 106.938 77.1017 107.102 77.3181 107.431C77.5345 107.76 77.6426 108.167 77.6426 108.651C77.6426 108.764 77.634 108.902 77.6167 109.067C77.608 109.223 77.595 109.391 77.5777 109.573C77.5691 109.755 77.5561 109.941 77.5388 110.131C77.5301 110.313 77.5258 110.486 77.5258 110.651C77.5258 110.858 77.5345 111.057 77.5518 111.248C77.5777 111.438 77.621 111.607 77.6816 111.754C77.7422 111.893 77.8287 112.005 77.9412 112.092C78.0538 112.17 78.2009 112.209 78.3827 112.209C78.7116 112.209 79.0318 112.083 79.3434 111.832C79.655 111.572 79.9406 111.27 80.2003 110.923C80.4686 110.568 80.6979 110.209 80.8883 109.846C81.0874 109.482 81.2346 109.188 81.3298 108.963C81.373 108.868 81.4336 108.794 81.5115 108.742C81.5981 108.69 81.689 108.664 81.7842 108.664C81.9313 108.664 82.0481 108.721 82.1347 108.833C82.2299 108.937 82.2775 109.049 82.2775 109.171C82.2775 109.231 82.2645 109.292 82.2386 109.352C82.2039 109.422 82.1347 109.564 82.0308 109.781C81.927 109.997 81.7885 110.248 81.6154 110.534C81.4509 110.811 81.2562 111.109 81.0312 111.43C80.8061 111.741 80.5551 112.027 80.2782 112.287C80.0098 112.546 79.7156 112.763 79.3953 112.936C79.0837 113.109 78.7548 113.195 78.4086 113.195C78.0191 113.195 77.7032 113.122 77.4609 112.975C77.2185 112.819 77.0281 112.62 76.8896 112.377C76.7512 112.126 76.656 111.854 76.604 111.559C76.5607 111.257 76.5391 110.954 76.5391 110.651C76.5391 110.521 76.5434 110.374 76.5521 110.209C76.5694 110.045 76.5867 109.872 76.604 109.69C76.63 109.508 76.6473 109.326 76.656 109.145C76.6733 108.963 76.6819 108.79 76.6819 108.625C76.6819 108.348 76.6386 108.162 76.5521 108.067C76.4655 107.963 76.3876 107.911 76.3184 107.911C76.1799 107.911 76.0198 107.994 75.838 108.158C75.6649 108.314 75.4788 108.522 75.2798 108.781C75.0894 109.041 74.8903 109.335 74.6826 109.664C74.4835 109.984 74.2931 110.304 74.1113 110.625C73.9382 110.945 73.7738 111.252 73.618 111.547C73.4708 111.832 73.354 112.07 73.2674 112.261C73.0943 112.624 72.9212 112.866 72.7481 112.988C72.575 113.117 72.3976 113.182 72.2158 113.182C71.9648 113.182 71.7614 113.109 71.6056 112.962C71.4585 112.806 71.3849 112.589 71.3849 112.312C71.3849 112.252 71.3936 112.135 71.4109 111.962C71.4282 111.78 71.4498 111.568 71.4758 111.326C71.5018 111.075 71.5277 110.806 71.5537 110.521C71.5797 110.235 71.6056 109.954 71.6316 109.677C71.6576 109.391 71.6792 109.127 71.6965 108.885C71.7138 108.643 71.7225 108.439 71.7225 108.275C71.7225 108.058 71.7138 107.851 71.6965 107.652C71.6792 107.453 71.6446 107.331 71.5927 107.288C71.5148 107.314 71.3763 107.479 71.1772 107.781C70.9781 108.076 70.7228 108.599 70.4112 109.352C70.3679 109.448 70.303 109.521 70.2165 109.573C70.1299 109.625 70.0391 109.651 69.9438 109.651C69.7967 109.651 69.6799 109.603 69.5933 109.508C69.5068 109.404 69.4635 109.287 69.4635 109.158C69.4635 109.097 69.4765 109.032 69.5024 108.963C69.8919 108.037 70.2554 107.357 70.593 106.925C70.9392 106.483 71.2811 106.263 71.6186 106.263C71.8177 106.263 71.9865 106.314 72.125 106.418C72.2634 106.514 72.3716 106.643 72.4495 106.808C72.5361 106.972 72.5967 107.154 72.6313 107.353C72.6746 107.552 72.6962 107.756 72.6962 107.963C72.6962 108.119 72.6832 108.361 72.6572 108.69C72.6399 109.019 72.614 109.374 72.5794 109.755C72.5447 110.127 72.5101 110.499 72.4755 110.871C72.4495 111.244 72.4236 111.555 72.3976 111.806ZM87.119 114.247C88.7462 112.126 89.8757 110.365 90.5076 108.963C90.5508 108.868 90.6071 108.798 90.6763 108.755C90.7542 108.703 90.8408 108.677 90.936 108.677C91.0831 108.677 91.2043 108.729 91.2995 108.833C91.3947 108.928 91.4423 109.041 91.4423 109.171C91.4423 109.231 91.4293 109.292 91.4034 109.352C91.0225 110.218 90.4816 111.183 89.7805 112.248C89.0794 113.312 88.1923 114.515 87.119 115.857C87.119 116.402 87.1234 116.947 87.132 117.493C87.1407 118.038 87.145 118.635 87.145 119.284C87.145 119.933 87.1277 120.574 87.0931 121.206C87.0671 121.846 87.0152 122.452 86.9373 123.023C86.8594 123.603 86.7512 124.135 86.6127 124.62C86.4829 125.114 86.3098 125.538 86.0934 125.892C85.8857 126.256 85.6304 126.537 85.3274 126.736C85.0331 126.944 84.6826 127.048 84.2758 127.048C83.6959 127.048 83.2502 126.827 82.9386 126.386C82.627 125.944 82.4712 125.317 82.4712 124.503C82.4712 124.071 82.5102 123.599 82.588 123.088C82.6746 122.586 82.7958 122.067 82.9516 121.53C83.1074 120.994 83.2934 120.448 83.5098 119.894C83.7349 119.349 83.9815 118.817 84.2498 118.298C84.5182 117.778 84.8081 117.281 85.1197 116.805C85.4399 116.328 85.7775 115.896 86.1324 115.506C86.141 114.9 86.1453 114.299 86.1453 113.702C86.154 113.104 86.167 112.555 86.1843 112.053C85.9246 112.382 85.613 112.641 85.2495 112.832C84.8947 113.022 84.5398 113.117 84.1849 113.117C83.882 113.117 83.605 113.061 83.354 112.949C83.1117 112.827 82.904 112.663 82.7309 112.455C82.5578 112.239 82.4236 111.988 82.3284 111.702C82.2332 111.417 82.1856 111.105 82.1856 110.768C82.1856 110.092 82.2981 109.5 82.5231 108.989C82.7568 108.47 83.0511 108.037 83.406 107.691C83.7608 107.344 84.1503 107.085 84.5744 106.912C85.0072 106.739 85.4226 106.652 85.8208 106.652C86.0891 106.652 86.3358 106.687 86.5608 106.756C86.7858 106.825 86.9762 106.903 87.132 106.99C87.2965 107.076 87.422 107.158 87.5085 107.236C87.5951 107.314 87.6427 107.357 87.6513 107.366C87.7465 107.47 87.7942 107.587 87.7942 107.717C87.7942 107.846 87.7465 107.963 87.6513 108.067C87.5561 108.162 87.4436 108.21 87.3138 108.21C87.1926 108.21 87.0758 108.162 86.9633 108.067C86.9286 108.041 86.881 108.007 86.8204 107.963C86.7685 107.911 86.6949 107.859 86.5997 107.807C86.5132 107.756 86.405 107.712 86.2752 107.678C86.154 107.643 86.0069 107.626 85.8337 107.626C85.5741 107.626 85.2885 107.686 84.9769 107.807C84.6653 107.92 84.3753 108.102 84.107 108.353C83.8387 108.604 83.6137 108.928 83.4319 109.326C83.2502 109.716 83.1593 110.188 83.1593 110.742C83.1593 111.157 83.2502 111.495 83.4319 111.754C83.6137 112.005 83.895 112.131 84.2758 112.131C84.4576 112.131 84.648 112.079 84.8471 111.975C85.0548 111.871 85.2539 111.711 85.4443 111.495C85.6347 111.278 85.7991 111.006 85.9376 110.677C86.0848 110.348 86.1886 109.958 86.2492 109.508C86.2665 109.387 86.3228 109.287 86.418 109.21C86.5132 109.123 86.6257 109.08 86.7555 109.08C86.9027 109.08 87.0152 109.132 87.0931 109.236C87.1796 109.339 87.2229 109.456 87.2229 109.586C87.2229 109.595 87.2186 109.729 87.2099 109.989C87.2013 110.24 87.1926 110.577 87.184 111.001C87.1753 111.425 87.1623 111.919 87.145 112.481C87.1364 113.035 87.1277 113.624 87.119 114.247ZM86.1324 117.09C85.7256 117.653 85.3577 118.263 85.0288 118.921C84.6999 119.587 84.4186 120.258 84.1849 120.933C83.9512 121.608 83.7695 122.262 83.6397 122.893C83.5185 123.534 83.4579 124.105 83.4579 124.607C83.4579 124.927 83.4839 125.183 83.5358 125.373C83.5964 125.564 83.6656 125.711 83.7435 125.815C83.8301 125.918 83.921 125.988 84.0162 126.022C84.12 126.057 84.2152 126.074 84.3018 126.074C84.5701 126.074 84.8038 125.966 85.0029 125.75C85.2019 125.533 85.3707 125.243 85.5092 124.88C85.6477 124.525 85.7602 124.114 85.8467 123.646C85.9333 123.179 85.9982 122.694 86.0415 122.192C86.0848 121.699 86.115 121.206 86.1324 120.712C86.1497 120.219 86.1583 119.765 86.1583 119.349C86.1583 118.977 86.1583 118.605 86.1583 118.233C86.1583 117.86 86.1497 117.48 86.1324 117.09ZM120.703 94.9025C120.825 94.9025 120.937 94.9502 121.041 95.0454C121.154 95.1319 121.21 95.2488 121.21 95.3959C121.21 95.5777 121.128 95.7161 120.963 95.8113C120.954 95.82 120.833 95.9022 120.6 96.058C120.375 96.2138 120.106 96.4562 119.795 96.7851C120.444 96.863 121.106 96.9019 121.781 96.9019C122.439 96.9019 123.036 96.8586 123.573 96.7721C124.118 96.6769 124.603 96.5514 125.027 96.3956C125.46 96.2311 125.832 96.0407 126.143 95.8243C126.464 95.6079 126.727 95.3699 126.935 95.1103C126.987 95.0497 127.048 95.0021 127.117 94.9675C127.186 94.9242 127.26 94.9025 127.338 94.9025C127.476 94.9025 127.589 94.9545 127.675 95.0583C127.77 95.1622 127.818 95.2747 127.818 95.3959C127.818 95.5171 127.788 95.6123 127.727 95.6815C127.519 95.9585 127.242 96.2311 126.896 96.4994C126.55 96.7591 126.13 96.9928 125.637 97.2005C125.144 97.4082 124.577 97.577 123.936 97.7068C123.296 97.828 122.582 97.8886 121.794 97.8886C121.344 97.8886 120.894 97.8713 120.444 97.8367C119.994 97.7934 119.544 97.7371 119.094 97.6679C118.895 97.9535 118.708 98.2738 118.535 98.6286C118.371 98.9835 118.237 99.373 118.133 99.7971C117.951 100.524 117.847 101.294 117.821 102.108C117.804 102.922 117.787 103.752 117.769 104.601C117.761 105.44 117.722 106.28 117.653 107.119C117.583 107.95 117.419 108.755 117.159 109.534C116.96 110.123 116.692 110.668 116.354 111.17C116.025 111.672 115.619 112.109 115.134 112.481C114.658 112.845 114.108 113.13 113.485 113.338C112.871 113.555 112.178 113.663 111.408 113.663C110.144 113.663 109.002 113.412 107.98 112.91C106.959 112.408 106.072 111.616 105.319 110.534C105.293 110.491 105.258 110.43 105.215 110.352C105.172 110.274 105.15 110.196 105.15 110.118C105.15 109.997 105.193 109.88 105.28 109.768C105.366 109.655 105.488 109.599 105.643 109.599C105.739 109.599 105.825 109.625 105.903 109.677C105.981 109.72 106.042 109.777 106.085 109.846C106.717 110.815 107.457 111.534 108.305 112.001C109.153 112.46 110.183 112.689 111.395 112.689C112.035 112.689 112.611 112.611 113.122 112.455C113.632 112.291 114.082 112.061 114.472 111.767C114.87 111.464 115.212 111.096 115.497 110.664C115.783 110.231 116.021 109.738 116.211 109.184C116.419 108.578 116.549 107.881 116.601 107.093C116.662 106.297 116.7 105.471 116.718 104.614C116.735 103.748 116.765 102.883 116.809 102.017C116.861 101.152 116.982 100.334 117.172 99.5634C117.267 99.1566 117.393 98.7801 117.549 98.4339C117.704 98.0877 117.869 97.7674 118.042 97.4731C116.882 97.2395 115.727 96.9452 114.576 96.5903C113.433 96.2268 112.312 95.8806 111.213 95.5517C110.122 95.2141 109.067 94.9242 108.045 94.6818C107.033 94.4395 106.076 94.3183 105.176 94.3183C104.354 94.3183 103.592 94.4352 102.891 94.6689C102.199 94.9025 101.597 95.2314 101.086 95.6556C100.584 96.0797 100.191 96.5903 99.905 97.1875C99.6281 97.7847 99.4896 98.4469 99.4896 99.1739C99.4896 99.7019 99.5805 100.187 99.7622 100.628C99.9526 101.069 100.212 101.455 100.541 101.783C100.87 102.104 101.26 102.355 101.71 102.536C102.16 102.718 102.653 102.809 103.19 102.809C103.752 102.809 104.254 102.727 104.696 102.562C105.137 102.389 105.527 102.177 105.864 101.926C106.202 101.675 106.487 101.403 106.721 101.108C106.963 100.814 107.158 100.541 107.305 100.29C107.461 100.031 107.574 99.8187 107.643 99.6543C107.721 99.4812 107.76 99.3946 107.76 99.3946C107.794 99.2994 107.855 99.2215 107.941 99.1609C108.028 99.1003 108.123 99.07 108.227 99.07C108.374 99.07 108.491 99.122 108.578 99.2258C108.673 99.321 108.72 99.4335 108.72 99.5634C108.72 99.5893 108.716 99.6153 108.707 99.6413C108.707 99.6586 108.703 99.6802 108.694 99.7062C108.686 99.7235 108.638 99.8403 108.552 100.057C108.465 100.264 108.331 100.52 108.149 100.823C107.967 101.117 107.734 101.437 107.448 101.783C107.162 102.13 106.816 102.454 106.409 102.757C106.003 103.051 105.531 103.298 104.994 103.497C104.466 103.688 103.86 103.783 103.177 103.783C102.519 103.783 101.904 103.666 101.333 103.432C100.771 103.199 100.277 102.878 99.8531 102.472C99.4377 102.065 99.1088 101.58 98.8664 101.017C98.6327 100.455 98.5159 99.8403 98.5159 99.1739C98.5159 98.2911 98.6846 97.4948 99.0222 96.7851C99.3598 96.0667 99.8271 95.4522 100.424 94.9415C101.022 94.4308 101.727 94.037 102.541 93.7601C103.354 93.4831 104.237 93.3446 105.189 93.3446C105.881 93.3446 106.578 93.4052 107.279 93.5264C107.98 93.6475 108.69 93.8077 109.408 94.0067C110.135 94.2058 110.871 94.4265 111.616 94.6689C112.36 94.9112 113.113 95.1579 113.875 95.4089C114.645 95.6512 115.424 95.8806 116.211 96.097C117.008 96.3133 117.817 96.4908 118.639 96.6293C118.856 96.361 119.068 96.1229 119.275 95.9152C119.492 95.7075 119.682 95.5387 119.847 95.4089C120.02 95.2704 120.163 95.1665 120.275 95.0973C120.388 95.0194 120.452 94.9761 120.47 94.9675C120.556 94.9242 120.634 94.9025 120.703 94.9025ZM132.023 109.352C131.989 109.422 131.915 109.569 131.803 109.794C131.699 110.01 131.56 110.261 131.387 110.547C131.223 110.832 131.028 111.131 130.803 111.443C130.578 111.754 130.327 112.04 130.05 112.3C129.773 112.559 129.474 112.776 129.154 112.949C128.834 113.113 128.496 113.195 128.142 113.195C127.64 113.195 127.215 113.035 126.869 112.715C126.532 112.395 126.285 111.992 126.129 111.508C125.835 112.001 125.484 112.395 125.078 112.689C124.671 112.975 124.264 113.117 123.857 113.117C123.537 113.117 123.247 113.061 122.987 112.949C122.728 112.827 122.507 112.663 122.325 112.455C122.144 112.239 122.001 111.988 121.897 111.702C121.802 111.417 121.754 111.105 121.754 110.768C121.754 110.092 121.867 109.5 122.092 108.989C122.325 108.47 122.62 108.037 122.974 107.691C123.329 107.344 123.719 107.085 124.143 106.912C124.576 106.739 124.991 106.652 125.389 106.652C125.658 106.652 125.904 106.691 126.129 106.769C126.354 106.838 126.545 106.916 126.7 107.003C126.865 107.089 126.99 107.171 127.077 107.249C127.164 107.318 127.211 107.357 127.22 107.366C127.315 107.479 127.363 107.595 127.363 107.717C127.363 107.846 127.315 107.963 127.22 108.067C127.125 108.162 127.012 108.21 126.882 108.21C126.744 108.21 126.627 108.162 126.532 108.067C126.514 108.05 126.475 108.02 126.415 107.976C126.354 107.924 126.272 107.872 126.168 107.82C126.064 107.769 125.939 107.725 125.792 107.691C125.653 107.647 125.493 107.626 125.311 107.626C125.043 107.626 124.757 107.686 124.454 107.807C124.152 107.929 123.875 108.119 123.624 108.379C123.373 108.63 123.161 108.95 122.987 109.339C122.823 109.72 122.741 110.175 122.741 110.703C122.741 110.867 122.758 111.036 122.793 111.209C122.827 111.373 122.888 111.525 122.974 111.663C123.061 111.802 123.178 111.914 123.325 112.001C123.472 112.087 123.654 112.131 123.87 112.131C124.026 112.131 124.203 112.079 124.403 111.975C124.61 111.871 124.805 111.711 124.987 111.495C125.177 111.278 125.346 111.006 125.493 110.677C125.649 110.348 125.757 109.958 125.818 109.508C125.835 109.387 125.891 109.287 125.986 109.21C126.082 109.123 126.194 109.08 126.324 109.08C126.445 109.08 126.549 109.127 126.636 109.223C126.731 109.318 126.783 109.426 126.791 109.547C126.8 109.712 126.817 109.945 126.843 110.248C126.869 110.542 126.926 110.837 127.012 111.131C127.107 111.425 127.246 111.681 127.428 111.897C127.609 112.113 127.86 112.222 128.181 112.222C128.388 112.222 128.592 112.165 128.791 112.053C128.998 111.94 129.198 111.793 129.388 111.611C129.587 111.421 129.773 111.209 129.946 110.975C130.128 110.733 130.292 110.491 130.44 110.248C130.587 110.006 130.717 109.772 130.829 109.547C130.942 109.322 131.037 109.127 131.115 108.963C131.158 108.868 131.219 108.794 131.296 108.742C131.383 108.69 131.474 108.664 131.569 108.664C131.716 108.664 131.833 108.721 131.92 108.833C132.015 108.937 132.062 109.049 132.062 109.171C132.062 109.231 132.049 109.292 132.023 109.352ZM143.136 109.378C143.11 109.43 143.053 109.538 142.967 109.703C142.88 109.859 142.768 110.045 142.629 110.261C142.491 110.469 142.326 110.694 142.136 110.936C141.946 111.17 141.738 111.386 141.513 111.585C141.288 111.785 141.045 111.949 140.786 112.079C140.526 112.209 140.258 112.274 139.981 112.274C139.531 112.274 139.15 112.196 138.838 112.04C138.527 111.875 138.271 111.694 138.072 111.495C137.934 111.798 137.765 112.074 137.566 112.325C137.367 112.576 137.146 112.793 136.904 112.975C136.662 113.165 136.402 113.312 136.125 113.416C135.857 113.52 135.58 113.572 135.294 113.572C134.766 113.572 134.316 113.416 133.944 113.104C133.572 112.793 133.26 112.377 133.009 111.858C132.767 111.33 132.576 110.72 132.438 110.028C132.299 109.335 132.191 108.608 132.113 107.846C132.044 107.085 132.001 106.314 131.983 105.535C131.966 104.756 131.957 104.016 131.957 103.315C131.957 101.974 131.996 100.814 132.074 99.836C132.152 98.8493 132.256 98.0141 132.386 97.3303C132.524 96.6379 132.68 96.0797 132.853 95.6556C133.035 95.2228 133.225 94.8896 133.425 94.6559C133.624 94.4135 133.827 94.2491 134.035 94.1625C134.242 94.076 134.446 94.0327 134.645 94.0327C134.965 94.0327 135.246 94.1279 135.489 94.3183C135.74 94.5087 135.948 94.777 136.112 95.1233C136.285 95.4608 136.415 95.8719 136.501 96.3566C136.588 96.8413 136.631 97.3736 136.631 97.9535C136.631 98.8796 136.532 99.836 136.333 100.823C136.134 101.809 135.874 102.796 135.554 103.783C135.242 104.761 134.892 105.726 134.502 106.678C134.113 107.621 133.727 108.517 133.347 109.365C133.399 109.789 133.476 110.196 133.58 110.586C133.684 110.967 133.818 111.308 133.983 111.611C134.147 111.906 134.342 112.144 134.567 112.325C134.792 112.499 135.052 112.585 135.346 112.585C135.64 112.585 135.917 112.503 136.177 112.338C136.437 112.165 136.662 111.945 136.852 111.676C137.042 111.399 137.19 111.088 137.293 110.742C137.406 110.395 137.462 110.04 137.462 109.677C137.462 109.435 137.436 109.192 137.384 108.95C137.341 108.699 137.267 108.478 137.164 108.288C137.068 108.089 136.947 107.929 136.8 107.807C136.653 107.686 136.476 107.626 136.268 107.626C136.112 107.626 135.991 107.66 135.904 107.73C135.818 107.79 135.753 107.864 135.71 107.95C135.666 108.028 135.64 108.106 135.632 108.184C135.623 108.262 135.619 108.314 135.619 108.34C135.619 108.461 135.645 108.582 135.697 108.703C135.748 108.824 135.848 108.933 135.995 109.028C136.142 109.132 136.216 109.275 136.216 109.456C136.216 109.603 136.164 109.72 136.06 109.807C135.965 109.893 135.857 109.937 135.735 109.937C135.562 109.937 135.407 109.885 135.268 109.781C135.138 109.677 135.026 109.547 134.931 109.391C134.835 109.227 134.762 109.054 134.71 108.872C134.658 108.69 134.632 108.522 134.632 108.366C134.632 108.115 134.675 107.885 134.762 107.678C134.848 107.461 134.965 107.279 135.112 107.132C135.268 106.977 135.441 106.86 135.632 106.782C135.831 106.695 136.038 106.652 136.255 106.652C136.627 106.652 136.947 106.739 137.216 106.912C137.492 107.085 137.722 107.314 137.904 107.6C138.085 107.885 138.22 108.21 138.306 108.573C138.393 108.937 138.436 109.305 138.436 109.677C138.436 109.893 138.423 110.105 138.397 110.313C138.432 110.382 138.488 110.473 138.566 110.586C138.644 110.698 138.747 110.806 138.877 110.91C139.007 111.014 139.163 111.105 139.345 111.183C139.526 111.261 139.739 111.3 139.981 111.3C140.189 111.3 140.401 111.222 140.617 111.066C140.842 110.902 141.054 110.703 141.253 110.469C141.461 110.227 141.651 109.971 141.824 109.703C141.998 109.426 142.14 109.171 142.253 108.937C142.296 108.85 142.357 108.785 142.435 108.742C142.513 108.69 142.599 108.664 142.694 108.664C142.841 108.664 142.958 108.716 143.045 108.82C143.14 108.924 143.188 109.041 143.188 109.171C143.188 109.223 143.17 109.292 143.136 109.378ZM133.1 107.704C133.394 106.977 133.693 106.215 133.996 105.419C134.299 104.614 134.571 103.796 134.814 102.965C135.056 102.134 135.255 101.294 135.411 100.446C135.567 99.598 135.645 98.7628 135.645 97.9405C135.645 97.6289 135.627 97.3044 135.593 96.9668C135.567 96.6206 135.515 96.3047 135.437 96.0191C135.359 95.7334 135.251 95.4954 135.112 95.305C134.982 95.1146 134.814 95.0194 134.606 95.0194C134.537 95.0194 134.446 95.067 134.333 95.1622C134.229 95.2488 134.117 95.4089 133.996 95.6426C133.875 95.8676 133.753 96.1835 133.632 96.5903C133.511 96.9971 133.399 97.5164 133.295 98.1483C133.2 98.7714 133.117 99.5244 133.048 100.407C132.987 101.29 132.957 102.329 132.957 103.523C132.957 103.921 132.961 104.328 132.97 104.744C132.979 105.15 132.987 105.54 132.996 105.912C133.013 106.284 133.031 106.626 133.048 106.938C133.065 107.249 133.083 107.505 133.1 107.704ZM150.717 109.378C150.621 109.577 150.5 109.815 150.353 110.092C150.215 110.361 150.054 110.642 149.873 110.936C149.691 111.231 149.488 111.525 149.263 111.819C149.037 112.105 148.791 112.364 148.523 112.598C148.263 112.823 147.982 113.005 147.679 113.143C147.384 113.291 147.068 113.364 146.731 113.364C146.212 113.364 145.766 113.204 145.394 112.884C145.021 112.563 144.706 112.144 144.446 111.624C144.186 111.105 143.974 110.517 143.81 109.859C143.654 109.192 143.533 108.517 143.446 107.833C143.36 107.141 143.299 106.47 143.264 105.821C143.239 105.172 143.226 104.596 143.226 104.094C143.226 103.367 143.247 102.614 143.29 101.835C143.342 101.056 143.42 100.295 143.524 99.5504C143.628 98.806 143.758 98.1006 143.914 97.4342C144.078 96.7677 144.268 96.1835 144.485 95.6815C144.71 95.1795 144.965 94.7814 145.251 94.4871C145.536 94.1928 145.861 94.0457 146.225 94.0457C146.51 94.0457 146.766 94.1149 146.991 94.2534C147.224 94.3832 147.419 94.5996 147.575 94.9025C147.731 95.2055 147.852 95.5993 147.938 96.084C148.025 96.5687 148.068 97.1616 148.068 97.8626C148.068 98.7281 147.977 99.624 147.795 100.55C147.614 101.468 147.367 102.394 147.055 103.328C146.744 104.263 146.376 105.198 145.952 106.133C145.528 107.059 145.073 107.963 144.589 108.846C144.805 109.945 145.095 110.811 145.459 111.443C145.822 112.066 146.259 112.377 146.77 112.377C147.116 112.377 147.449 112.243 147.77 111.975C148.09 111.698 148.384 111.373 148.652 111.001C148.921 110.629 149.154 110.253 149.353 109.872C149.561 109.482 149.721 109.171 149.834 108.937C149.877 108.85 149.938 108.785 150.016 108.742C150.093 108.69 150.18 108.664 150.275 108.664C150.422 108.664 150.539 108.716 150.626 108.82C150.721 108.924 150.769 109.041 150.769 109.171C150.769 109.223 150.751 109.292 150.717 109.378ZM144.212 104.159C144.212 104.713 144.225 105.246 144.251 105.756C144.277 106.267 144.312 106.756 144.355 107.223C144.719 106.522 145.065 105.778 145.394 104.99C145.723 104.194 146.013 103.393 146.264 102.588C146.515 101.775 146.714 100.97 146.861 100.174C147.017 99.3686 147.094 98.6026 147.094 97.8756C147.094 96.8543 147.012 96.1229 146.848 95.6815C146.683 95.2401 146.463 95.0194 146.186 95.0194C146.004 95.0194 145.826 95.1449 145.653 95.3959C145.489 95.6469 145.333 95.9888 145.186 96.4215C145.039 96.8543 144.905 97.365 144.783 97.9535C144.662 98.5421 144.558 99.1739 144.472 99.849C144.394 100.524 144.329 101.23 144.277 101.965C144.234 102.701 144.212 103.432 144.212 104.159ZM152.468 111.547C152.65 111.798 152.884 112.001 153.169 112.157C153.455 112.304 153.805 112.377 154.221 112.377C154.645 112.377 155.03 112.278 155.376 112.079C155.723 111.871 156.039 111.603 156.324 111.274C156.61 110.945 156.865 110.577 157.09 110.17C157.315 109.764 157.519 109.357 157.7 108.95C157.744 108.855 157.804 108.785 157.882 108.742C157.96 108.69 158.047 108.664 158.142 108.664C158.289 108.664 158.406 108.716 158.492 108.82C158.587 108.924 158.635 109.036 158.635 109.158C158.635 109.201 158.631 109.24 158.622 109.275C158.613 109.3 158.6 109.331 158.583 109.365C157.986 110.681 157.332 111.672 156.623 112.338C155.922 113.005 155.125 113.347 154.234 113.364C153.663 113.364 153.169 113.252 152.754 113.027C152.338 112.81 151.997 112.529 151.728 112.183C151.46 111.828 151.261 111.43 151.131 110.988C151.001 110.547 150.936 110.105 150.936 109.664C150.936 109.223 150.988 108.816 151.092 108.444C151.205 108.071 151.36 107.747 151.559 107.47C151.767 107.193 152.01 106.977 152.286 106.821C152.572 106.665 152.884 106.587 153.221 106.587C153.42 106.587 153.615 106.63 153.805 106.717C154.005 106.795 154.182 106.912 154.338 107.067C154.494 107.215 154.619 107.396 154.714 107.613C154.809 107.829 154.857 108.076 154.857 108.353C154.857 108.708 154.796 109.041 154.675 109.352C154.554 109.664 154.385 109.954 154.169 110.222C153.961 110.491 153.71 110.737 153.416 110.962C153.122 111.187 152.806 111.382 152.468 111.547ZM152.079 110.703C152.347 110.59 152.589 110.447 152.806 110.274C153.031 110.101 153.221 109.911 153.377 109.703C153.533 109.495 153.654 109.279 153.741 109.054C153.827 108.82 153.87 108.586 153.87 108.353C153.87 108.093 153.805 107.898 153.676 107.769C153.546 107.63 153.394 107.561 153.221 107.561C152.988 107.561 152.788 107.626 152.624 107.756C152.46 107.885 152.325 108.054 152.222 108.262C152.118 108.47 152.04 108.703 151.988 108.963C151.945 109.214 151.923 109.465 151.923 109.716C151.923 109.872 151.936 110.036 151.962 110.209C151.997 110.382 152.035 110.547 152.079 110.703Z" fill="#A1A1A1"/>
</svg>
