<svg width="55" height="55" viewBox="0 0 55 55" fill="none" xmlns="http://www.w3.org/2000/svg">
<path d="M27.4994 4.58398L26.8582 4.59279C14.5043 4.93269 4.58269 15.0651 4.58269 27.5007C4.58269 40.1277 14.8493 50.4173 27.4994 50.4173C40.1264 50.4173 50.416 40.1277 50.416 27.5007C50.416 14.8507 40.1264 4.58398 27.4994 4.58398ZM22.9619 18.334C23.6494 17.6465 24.7264 17.6465 25.391 18.334L33.3889 26.2861C33.7098 26.6069 33.8931 27.0423 33.8931 27.5007C33.8931 27.959 33.7098 28.3944 33.3889 28.7152L25.391 36.6673C25.0702 37.0111 24.6348 37.1715 24.1994 37.1715C23.741 37.1715 23.3056 37.0111 22.9619 36.6673C22.2973 35.9798 22.2973 34.9027 22.9848 34.2382L29.7452 27.5007L22.9848 20.7632C22.2973 20.0986 22.2973 18.9986 22.9619 18.334Z" fill="white"/>
</svg>
