<svg width="132" height="64" viewBox="0 0 132 64" fill="none" xmlns="http://www.w3.org/2000/svg">
<path d="M117.459 9.61H115.879C114.815 9.61124 113.764 9.84545 112.8 10.2962C111.836 10.7469 110.982 11.4032 110.299 12.2189C109.616 13.0347 109.119 13.9902 108.845 15.0183C108.57 16.0464 108.524 17.1221 108.709 18.17L109.419 22.17C109.009 23.9 107.229 25.17 98.6091 25.17H93.5091C94.0804 24.3756 94.4666 23.4632 94.6391 22.5L95.399 18.22C95.5846 17.1713 95.5381 16.0947 95.2628 15.0659C94.9876 14.0371 94.4903 13.0811 93.8059 12.2651C93.1215 11.4492 92.2666 10.7931 91.3014 10.343C90.3362 9.89291 89.284 9.65978 88.2191 9.66H86.6391C84.8232 9.66228 83.0736 10.3422 81.7326 11.5666C80.3917 12.791 79.556 14.4718 79.3891 16.28L82.0991 16.95C82.1017 15.7494 82.5798 14.5987 83.4288 13.7497C84.2777 12.9008 85.4284 12.4226 86.6291 12.42H88.2091C88.8708 12.4201 89.5245 12.5651 90.1241 12.845C90.7238 13.1248 91.2548 13.5326 91.68 14.0397C92.1051 14.5468 92.414 15.1409 92.5848 15.7802C92.7557 16.4195 92.7845 17.0884 92.6691 17.74L91.9091 22.02C91.7536 22.9064 91.2901 23.7095 90.6004 24.2876C89.9107 24.8657 89.039 25.1818 88.1391 25.18H69.4091C69.9786 24.3819 70.3613 23.466 70.5291 22.5L71.2891 18.22C71.4744 17.1721 71.4282 16.0964 71.1535 15.0683C70.8788 14.0402 70.3824 13.0847 69.6991 12.2689C69.0158 11.4532 68.1621 10.7969 67.1982 10.3462C66.2342 9.89545 65.1832 9.66124 64.119 9.66H62.5391C58.6191 9.66 55.2091 13.29 52.9891 16.41V1.17L50.2291 0.5V21.3L52.8491 21.91C54.1691 19.26 58.4791 12.37 62.5391 12.37H64.119C64.7808 12.3701 65.4345 12.5151 66.0341 12.795C66.6338 13.0748 67.1648 13.4826 67.5899 13.9897C68.0151 14.4968 68.3239 15.0909 68.4948 15.7302C68.6657 16.3695 68.6945 17.0384 68.5791 17.69L67.8191 21.97C67.6596 22.8564 67.1936 23.6585 66.5027 24.2361C65.8117 24.8138 64.9397 25.1302 64.0391 25.13H25.649C24.6341 25.1274 23.6614 24.723 22.9438 24.0053C22.2261 23.2876 21.8217 22.315 21.8191 21.3V1.19L19.0391 0.5V21.3C19.0417 23.047 19.7368 24.7216 20.9721 25.9569C22.2074 27.1922 23.8821 27.8874 25.6291 27.89H98.6291C105.479 27.89 108.969 26.89 110.709 25.26C111.321 26.0769 112.115 26.7399 113.028 27.1964C113.941 27.6529 114.948 27.8904 115.969 27.89H118.179C119.926 27.8874 121.601 27.1922 122.836 25.9569C124.071 24.7216 124.766 23.047 124.769 21.3V16.9C124.768 15.9413 124.578 14.9923 124.21 14.1072C123.841 13.222 123.303 12.418 122.624 11.741C121.945 11.0641 121.14 10.5275 120.253 10.1619C119.367 9.79621 118.418 9.60869 117.459 9.61ZM122.039 21.3C122.036 22.315 121.632 23.2876 120.914 24.0053C120.197 24.723 119.224 25.1274 118.209 25.13H115.999C115.1 25.1298 114.229 24.813 113.54 24.2353C112.85 23.6575 112.386 22.8556 112.229 21.97L111.469 17.69C111.354 17.0384 111.382 16.3695 111.553 15.7302C111.724 15.0909 112.033 14.4968 112.458 13.9897C112.883 13.4826 113.414 13.0748 114.014 12.795C114.614 12.5151 115.267 12.3701 115.929 12.37H117.509C118.71 12.37 119.863 12.8473 120.712 13.6968C121.562 14.5463 122.039 15.6986 122.039 16.9V21.3Z" fill="#04243E"/>
<path d="M6.91992 12.29H10.7799V21.21C10.7773 22.2267 10.3715 23.2008 9.65167 23.9188C8.93182 24.6368 7.95661 25.04 6.93991 25.04V27.8C8.68688 27.7974 10.3615 27.1022 11.5968 25.8669C12.8321 24.6316 13.5273 22.957 13.5299 21.21V12.29H16.7399V9.5H6.91992V12.29Z" fill="#04243E"/>
<path d="M2.12 17.5798C3.29084 17.5798 4.24002 16.6307 4.24002 15.4598C4.24002 14.289 3.29084 13.3398 2.12 13.3398C0.949151 13.3398 0 14.289 0 15.4598C0 16.6307 0.949151 17.5798 2.12 17.5798Z" fill="#AA915E"/>
<path d="M2.12 23.7595C3.29084 23.7595 4.24002 22.8104 4.24002 21.6395C4.24002 20.4687 3.29084 19.5195 2.12 19.5195C0.949151 19.5195 0 20.4687 0 21.6395C0 22.8104 0.949151 23.7595 2.12 23.7595Z" fill="#AA915E"/>
<path d="M129.45 53.2107C130.621 53.2107 131.57 52.2615 131.57 51.0907C131.57 49.9199 130.621 48.9707 129.45 48.9707C128.279 48.9707 127.33 49.9199 127.33 51.0907C127.33 52.2615 128.279 53.2107 129.45 53.2107Z" fill="#AA915E"/>
<path d="M129.45 59.3806C130.621 59.3806 131.57 58.4315 131.57 57.2606C131.57 56.0898 130.621 55.1406 129.45 55.1406C128.279 55.1406 127.33 56.0898 127.33 57.2606C127.33 58.4315 128.279 59.3806 129.45 59.3806Z" fill="#AA915E"/>
<path d="M85.6406 48.1291H88.8506V57.0491C88.8506 58.7969 89.5449 60.4731 90.7808 61.709C92.0167 62.9448 93.6928 63.6391 95.4406 63.6391V60.8791C94.4248 60.8791 93.4507 60.4756 92.7324 59.7574C92.0141 59.0391 91.6106 58.0649 91.6106 57.0491V48.1291H95.4606V45.3691H85.6406V48.1291Z" fill="#04243E"/>
<path d="M124.65 48.1291V45.3691H114.83V48.1291H118.04V57.0491C118.04 58.7952 118.733 60.4699 119.967 61.7054C121.2 62.941 122.874 63.6365 124.62 63.6391V60.8791C123.604 60.8791 122.63 60.4756 121.912 59.7574C121.194 59.0391 120.79 58.0649 120.79 57.0491V48.1291H124.65Z" fill="#04243E"/>
<path d="M44.5299 57.9697L45.2399 53.9697C45.4225 52.9208 45.3731 51.8446 45.0952 50.8169C44.8173 49.7891 44.3176 48.8347 43.6314 48.0207C42.9451 47.2067 42.0889 46.553 41.1229 46.1053C40.1569 45.6577 39.1046 45.4271 38.0399 45.4297H36.4599C34.529 45.4323 32.6778 46.1999 31.3116 47.5643C29.9453 48.9287 29.1752 50.7788 29.1699 52.7097V57.1197C29.1726 58.8667 29.8677 60.5413 31.103 61.7766C32.3383 63.0119 34.013 63.7071 35.7599 63.7097H38.0399C39.026 63.7097 39.9996 63.4887 40.8891 63.063C41.7786 62.6373 42.5614 62.0177 43.1799 61.2497C43.7985 62.0177 44.5813 62.6373 45.4708 63.063C46.3602 63.4887 47.3338 63.7097 48.3199 63.7097V60.9497C47.4424 60.9624 46.5871 60.6733 45.8972 60.1309C45.2073 59.5884 44.7246 58.8255 44.5299 57.9697ZM42.5299 53.5097L41.7699 57.7897C41.612 58.6677 41.1534 59.4633 40.4727 60.0399C39.7921 60.6166 38.9319 60.9382 38.0399 60.9497H35.8399C34.8249 60.9471 33.8523 60.5427 33.1346 59.825C32.4169 59.1073 32.0126 58.1347 32.0099 57.1197V52.7097C32.0126 51.51 32.491 50.3604 33.3402 49.513C34.1895 48.6656 35.3402 48.1897 36.5399 48.1897H38.0399C38.7032 48.1857 39.3592 48.3273 39.9617 48.6046C40.5642 48.882 41.0984 49.2882 41.5267 49.7947C41.955 50.3011 42.2668 50.8955 42.4401 51.5357C42.6135 52.1759 42.6441 52.8464 42.5299 53.4997V53.5097Z" fill="#04243E"/>
<path d="M83.3191 57.9702L84.0291 53.9702C84.2144 52.9223 84.1682 51.8465 83.8935 50.8184C83.6188 49.7904 83.1224 48.8349 82.4391 48.0191C81.7558 47.2033 80.9022 46.547 79.9382 46.0963C78.9742 45.6456 77.9232 45.4114 76.8591 45.4102H75.2691C73.3443 45.426 71.504 46.2024 70.1495 47.57C68.795 48.9376 68.0364 50.7853 68.0391 52.7102V57.1202C68.0417 58.8671 68.7369 60.5418 69.9721 61.7771C71.2074 63.0124 72.8821 63.7075 74.6291 63.7102H76.8291C77.8152 63.7101 78.7887 63.4892 79.6782 63.0635C80.5677 62.6378 81.3505 62.0181 81.9691 61.2502C82.5783 62.0111 83.3494 62.6268 84.2264 63.0523C85.1035 63.4778 86.0643 63.7026 87.0391 63.7102V60.9502C86.173 60.9487 85.3332 60.653 84.6573 60.1115C83.9814 59.5701 83.5095 58.815 83.3191 57.9702ZM81.3191 53.5102L80.5591 57.7902C80.4036 58.6766 79.9401 59.4796 79.2504 60.0578C78.5607 60.6359 77.689 60.9519 76.7891 60.9502H74.5891C73.5733 60.9502 72.5991 60.5466 71.8808 59.8284C71.1626 59.1101 70.7591 58.1359 70.7591 57.1202V52.7102C70.7617 51.5122 71.2388 50.364 72.0859 49.517C72.9329 48.6699 74.0811 48.1928 75.2791 48.1902H76.8691C77.5286 48.1917 78.1799 48.3375 78.7771 48.6175C79.3744 48.8975 79.9031 49.3047 80.3262 49.8107C80.7493 50.3167 81.0565 50.9092 81.2263 51.5466C81.3961 52.1839 81.4243 52.8507 81.3091 53.5002L81.3191 53.5102Z" fill="#04243E"/>
<path d="M112.56 57.9702L113.27 53.9702C113.456 52.9215 113.409 51.8448 113.134 50.816C112.859 49.7872 112.362 48.8312 111.677 48.0153C110.993 47.1993 110.138 46.5432 109.173 46.0931C108.208 45.6431 107.155 45.4099 106.09 45.4102H104.51C102.581 45.4128 100.73 46.1806 99.3657 47.5453C98.001 48.91 97.2331 50.7602 97.2305 52.6902V57.1002C97.2305 58.8462 97.9234 60.5209 99.1571 61.7565C100.391 62.992 102.064 63.6875 103.81 63.6902H106.04C107.027 63.6901 108 63.4692 108.89 63.0435C109.779 62.6178 110.562 61.9981 111.18 61.2302C111.796 61.999 112.577 62.6194 113.465 63.0452C114.353 63.4711 115.326 63.6915 116.31 63.6902V60.9502C115.439 60.9555 114.592 60.6629 113.91 60.1209C113.228 59.5789 112.752 58.82 112.56 57.9702ZM110.56 53.5102L109.8 57.7902C109.645 58.6749 109.183 59.4766 108.496 60.0545C107.808 60.6324 106.939 60.9496 106.04 60.9502H103.83C102.816 60.9475 101.843 60.5432 101.125 59.8255C100.407 59.1078 100.003 58.1351 100 57.1202V52.7102C100.003 51.5105 100.482 50.3608 101.331 49.5134C102.18 48.666 103.331 48.1902 104.53 48.1902H106.11C106.77 48.1934 107.42 48.3404 108.016 48.6209C108.613 48.9014 109.141 49.3087 109.563 49.8143C109.986 50.3199 110.293 50.9116 110.464 51.5482C110.634 52.1848 110.664 52.851 110.55 53.5002L110.56 53.5102Z" fill="#04243E"/>
<path d="M27.4392 61.0006V63.7606C25.6932 63.758 24.0196 63.0625 22.7859 61.8269C21.5522 60.5913 20.8592 58.9167 20.8592 57.1706V56.8806V41.3106L16.3792 47.1706H14.1892L9.70923 41.3106V63.8006L6.94922 63.1406V37.2306L9.41922 36.3906L15.2792 44.0706L21.1392 36.3906L23.6192 37.2306V53.5006V57.1606C23.6192 58.1756 24.021 59.1493 24.7368 59.8689C25.4527 60.5884 26.4242 60.9953 27.4392 61.0006Z" fill="#04243E"/>
<path d="M66.1804 54.1109L64.4504 63.6609L61.7804 63.0209L63.4804 53.6209C63.5955 52.9709 63.5672 52.3037 63.3975 51.6658C63.2277 51.028 62.9207 50.435 62.4977 49.9282C62.0748 49.4215 61.5463 49.0132 60.9491 48.7322C60.3519 48.4511 59.7004 48.3039 59.0404 48.3009H57.4604C56.5269 48.2973 55.6153 48.5841 54.8521 49.1216C54.0888 49.6591 53.5116 50.4207 53.2004 51.3009L52.9004 63.7209L50.1504 63.0709L50.8004 36.3809L53.5404 37.0309L53.3004 46.8309C54.5209 45.9811 55.9732 45.5273 57.4604 45.5309H59.0404C60.1059 45.5289 61.1589 45.7609 62.125 46.2104C63.0911 46.6599 63.9467 47.316 64.6315 48.1324C65.3163 48.9488 65.8135 49.9055 66.088 50.9351C66.3626 51.9646 66.4077 53.0419 66.2204 54.0909L66.1804 54.1109Z" fill="#04243E"/>
</svg>
