<svg width="170" height="169" viewBox="0 0 170 169" fill="none" xmlns="http://www.w3.org/2000/svg">
<rect x="0.625" width="169" height="169" rx="8" fill="#AA915E"/>
<path d="M95.5671 64.7834C94.5227 62.96 93.0134 61.4461 91.1931 60.3962C89.3728 59.3463 87.3067 58.7979 85.2054 58.8068H85.1855C83.0878 58.7952 81.0245 59.3391 79.2051 60.3833C77.3858 61.4274 75.8753 62.9347 74.8273 64.7517L58.6542 92.4314C57.5899 94.2543 57.0254 96.3257 57.0177 98.4365C57.0099 100.547 57.5592 102.623 58.61 104.454C59.6609 106.284 61.1761 107.805 63.0027 108.863C64.8294 109.921 66.9028 110.478 69.0136 110.478H101.24C103.347 110.477 105.416 109.921 107.24 108.866C109.063 107.811 110.577 106.295 111.629 104.47C112.68 102.645 113.233 100.575 113.231 98.4679C113.229 96.3612 112.672 94.2922 111.617 92.4689L95.5671 64.7834ZM107.572 102.133C106.937 103.252 106.015 104.181 104.902 104.824C103.789 105.468 102.524 105.803 101.238 105.795H69.0112C67.7247 105.796 66.4608 105.456 65.3474 104.811C64.234 104.167 63.3105 103.24 62.6702 102.124C62.0298 101.008 61.6953 99.7426 61.7005 98.456C61.7056 97.1695 62.0503 95.907 62.6995 94.7963L78.8714 67.1142C79.51 66.007 80.4304 65.0885 81.539 64.4523C82.6476 63.8161 83.9049 63.4847 85.1831 63.492H85.1948C86.4753 63.4866 87.7343 63.8211 88.8433 64.4611C89.9523 65.1012 90.8718 66.024 91.5077 67.1353L107.561 94.8127C108.214 95.9217 108.559 97.1847 108.561 98.4716C108.563 99.7585 108.221 101.023 107.572 102.133ZM87.4683 71.6096V90.3596C87.4683 90.9812 87.2214 91.5773 86.7818 92.0168C86.3423 92.4564 85.7461 92.7033 85.1245 92.7033C84.5029 92.7033 83.9068 92.4564 83.4672 92.0168C83.0277 91.5773 82.7808 90.9812 82.7808 90.3596V71.6096C82.7808 70.988 83.0277 70.3918 83.4672 69.9523C83.9068 69.5127 84.5029 69.2658 85.1245 69.2658C85.7461 69.2658 86.3423 69.5127 86.7818 69.9523C87.2214 70.3918 87.4683 70.988 87.4683 71.6096ZM87.4683 99.7346C87.4683 100.198 87.3308 100.651 87.0733 101.037C86.8158 101.422 86.4497 101.723 86.0214 101.9C85.5932 102.077 85.1219 102.124 84.6673 102.033C84.2126 101.943 83.795 101.72 83.4672 101.392C83.1395 101.064 82.9162 100.646 82.8258 100.192C82.7354 99.7372 82.7818 99.2659 82.9592 98.8376C83.1366 98.4094 83.437 98.0433 83.8224 97.7858C84.2078 97.5283 84.661 97.3908 85.1245 97.3908C85.7461 97.3908 86.3423 97.6377 86.7818 98.0773C87.2214 98.5168 87.4683 99.113 87.4683 99.7346Z" fill="white"/>
</svg>
