<svg width="178" height="153" viewBox="0 0 178 153" fill="none" xmlns="http://www.w3.org/2000/svg">
<path opacity="0.1" d="M28.5395 149.91V20.0409L0.957547 36.6308V19.8374L28.5395 3.34928H43.7045V149.91H28.5395ZM130.145 152.964C121.12 152.964 112.978 150.86 105.718 146.653C98.5254 142.446 92.8258 136.747 88.6189 129.554C84.4121 122.294 82.3087 114.152 82.3087 105.128V48.1318C82.3087 39.1074 84.4121 30.9991 88.6189 23.8067C92.8258 16.5465 98.5254 10.813 105.718 6.60618C112.978 2.39935 121.12 0.295933 130.145 0.295933C139.169 0.295933 147.277 2.39935 154.47 6.60618C161.73 10.813 167.463 16.5465 171.67 23.8067C175.877 30.9991 177.98 39.1074 177.98 48.1318V105.128C177.98 114.152 175.877 122.294 171.67 129.554C167.463 136.747 161.73 142.446 154.47 146.653C147.277 150.86 139.169 152.964 130.145 152.964ZM130.145 138.511C136.183 138.511 141.679 137.052 146.633 134.135C151.586 131.149 155.521 127.18 158.439 122.226C161.357 117.273 162.815 111.811 162.815 105.84V47.4193C162.815 41.3805 161.357 35.8844 158.439 30.9312C155.521 25.978 151.586 22.0426 146.633 19.1249C141.679 16.1394 136.183 14.6467 130.145 14.6467C124.106 14.6467 118.61 16.1394 113.656 19.1249C108.703 22.0426 104.768 25.978 101.85 30.9312C98.9325 35.8844 97.4737 41.3805 97.4737 47.4193V105.84C97.4737 111.811 98.9325 117.273 101.85 122.226C104.768 127.18 108.703 131.149 113.656 134.135C118.61 137.052 124.106 138.511 130.145 138.511Z" fill="#AA915E"/>
</svg>
