<svg width="218" height="153" viewBox="0 0 218 153" fill="none" xmlns="http://www.w3.org/2000/svg">
<path opacity="0.1" d="M48.0848 152.921C39.0605 152.921 30.9182 150.817 23.658 146.61C16.4657 142.403 10.7661 136.704 6.55923 129.512C2.35239 122.251 0.248973 114.109 0.248973 105.085V48.0888C0.248973 39.0645 2.35239 30.9561 6.55923 23.7638C10.7661 16.5036 16.4657 10.7701 23.658 6.56322C30.9182 2.35638 39.0605 0.252964 48.0848 0.252964C57.1092 0.252964 65.2175 2.35638 72.4098 6.56322C79.67 10.7701 85.4036 16.5036 89.6104 23.7638C93.8172 30.9561 95.9207 39.0645 95.9207 48.0888V105.085C95.9207 114.109 93.8172 122.251 89.6104 129.512C85.4036 136.704 79.67 142.403 72.4098 146.61C65.2175 150.817 57.1092 152.921 48.0848 152.921ZM48.0848 138.468C54.1237 138.468 59.6197 137.009 64.5729 134.092C69.5261 131.106 73.4616 127.137 76.3792 122.183C79.2969 117.23 80.7557 111.768 80.7557 105.797V47.3763C80.7557 41.3375 79.2969 35.8415 76.3792 30.8883C73.4616 25.935 69.5261 21.9996 64.5729 19.082C59.6197 16.0965 54.1237 14.6037 48.0848 14.6037C42.046 14.6037 36.5499 16.0965 31.5967 19.082C26.6435 21.9996 22.7081 25.935 19.7904 30.8883C16.8728 35.8415 15.414 41.3375 15.414 47.3763V105.797C15.414 111.768 16.8728 117.23 19.7904 122.183C22.7081 127.137 26.6435 131.106 31.5967 134.092C36.5499 137.009 42.046 138.468 48.0848 138.468ZM167.746 152.921C160.147 152.921 153.124 151.36 146.678 148.239C140.232 145.118 134.736 140.809 130.19 135.313C125.644 129.817 122.387 123.507 120.419 116.382L134.77 112.515C136.059 117.807 138.4 122.387 141.792 126.255C145.185 130.054 149.154 133.006 153.701 135.109C158.315 137.213 163.132 138.264 168.153 138.264C174.667 138.264 180.502 136.704 185.659 133.583C190.884 130.394 195.023 126.187 198.076 120.962C201.129 115.738 202.656 110.004 202.656 103.762C202.656 97.3156 201.061 91.5142 197.872 86.3575C194.683 81.1329 190.476 76.9939 185.252 73.9405C180.027 70.8872 174.328 69.3605 168.153 69.3605C161.232 69.3605 155.261 70.8872 150.24 73.9405C145.219 76.926 141.216 80.6918 138.23 85.2379L124.592 79.5383L129.07 3.30631H207.338V17.6571H135.686L143.116 10.6344L139.146 75.6707L135.38 70.6836C139.587 65.8661 144.676 62.1003 150.647 59.3862C156.618 56.6721 162.895 55.3151 169.476 55.3151C178.501 55.3151 186.643 57.4863 193.903 61.8289C201.163 66.1036 206.931 71.9049 211.205 79.233C215.48 86.561 217.617 94.7372 217.617 103.762C217.617 112.718 215.344 120.928 210.798 128.392C206.252 135.788 200.213 141.725 192.682 146.203C185.15 150.681 176.838 152.921 167.746 152.921Z" fill="#AA915E"/>
</svg>
