<svg width="211" height="154" viewBox="0 0 211 154" fill="none" xmlns="http://www.w3.org/2000/svg">
<path opacity="0.1" d="M48.0848 153.581C39.0605 153.581 30.9182 151.477 23.658 147.27C16.4657 143.064 10.7661 137.364 6.55923 130.172C2.35239 122.911 0.248973 114.769 0.248973 105.745V48.749C0.248973 39.7246 2.35239 31.6163 6.55923 24.4239C10.7661 17.1637 16.4657 11.4302 23.658 7.22337C30.9182 3.01654 39.0605 0.91312 48.0848 0.91312C57.1092 0.91312 65.2175 3.01654 72.4098 7.22337C79.67 11.4302 85.4036 17.1637 89.6104 24.4239C93.8172 31.6163 95.9207 39.7246 95.9207 48.749V105.745C95.9207 114.769 93.8172 122.911 89.6104 130.172C85.4036 137.364 79.67 143.064 72.4098 147.27C65.2175 151.477 57.1092 153.581 48.0848 153.581ZM48.0848 139.128C54.1237 139.128 59.6197 137.669 64.5729 134.752C69.5261 131.766 73.4616 127.797 76.3792 122.844C79.2969 117.89 80.7557 112.428 80.7557 106.457V48.0365C80.7557 41.9977 79.2969 36.5016 76.3792 31.5484C73.4616 26.5952 69.5261 22.6598 64.5729 19.7421C59.6197 16.7566 54.1237 15.2639 48.0848 15.2639C42.046 15.2639 36.5499 16.7566 31.5967 19.7421C26.6435 22.6598 22.7081 26.5952 19.7904 31.5484C16.8728 36.5016 15.414 41.9977 15.414 48.0365V106.457C15.414 112.428 16.8728 117.89 19.7904 122.844C22.7081 127.797 26.6435 131.766 31.5967 134.752C36.5499 137.669 42.046 139.128 48.0848 139.128ZM163.878 153.479C156.618 153.479 149.935 152.19 143.828 149.611C137.721 147.033 132.463 143.369 128.052 138.619C123.642 133.802 120.419 128.068 118.383 121.419L132.632 117.144C135.075 124.404 139.078 129.9 144.642 133.632C150.274 137.364 156.618 139.162 163.675 139.026C170.189 138.891 175.786 137.432 180.468 134.65C185.218 131.868 188.848 128 191.359 123.047C193.869 118.094 195.124 112.36 195.124 105.847C195.124 95.8724 192.207 87.8658 186.371 81.8269C180.604 75.7202 172.971 72.6669 163.471 72.6669C160.825 72.6669 158.043 73.0401 155.125 73.7864C152.208 74.465 149.494 75.4488 146.983 76.738L139.452 64.8299L196.447 12.2105L198.89 18.3172H124.185V3.96647H208.864V18.5208L159.197 65.9495L158.993 60.0464C169.171 58.7572 178.127 59.9107 185.863 63.5068C193.598 67.103 199.637 72.599 203.979 79.9949C208.389 87.323 210.595 95.9402 210.595 105.847C210.595 115.21 208.559 123.488 204.488 130.681C200.485 137.805 194.955 143.403 187.898 147.474C180.841 151.477 172.835 153.479 163.878 153.479Z" fill="#AA915E"/>
</svg>
