<svg width="224" height="154" viewBox="0 0 224 154" fill="none" xmlns="http://www.w3.org/2000/svg">
<path opacity="0.1" d="M47.829 153.284C38.8046 153.284 30.6623 151.18 23.4021 146.974C16.2098 142.767 10.5102 137.067 6.30337 129.875C2.09653 122.615 -0.00688593 114.472 -0.00688593 105.448V48.4521C-0.00688593 39.4277 2.09653 31.3194 6.30337 24.127C10.5102 16.8669 16.2098 11.1333 23.4021 6.9265C30.6623 2.71966 38.8046 0.616245 47.829 0.616245C56.8533 0.616245 64.9617 2.71966 72.154 6.9265C79.4142 11.1333 85.1477 16.8669 89.3545 24.127C93.5614 31.3194 95.6648 39.4277 95.6648 48.4521V105.448C95.6648 114.472 93.5614 122.615 89.3545 129.875C85.1477 137.067 79.4142 142.767 72.154 146.974C64.9617 151.18 56.8533 153.284 47.829 153.284ZM47.829 138.831C53.8678 138.831 59.3638 137.372 64.3171 134.455C69.2703 131.469 73.2057 127.5 76.1234 122.547C79.041 117.594 80.4998 112.131 80.4998 106.16V47.7396C80.4998 41.7008 79.041 36.2047 76.1234 31.2515C73.2057 26.2983 69.2703 22.3629 64.3171 19.4452C59.3638 16.4597 53.8678 14.967 47.829 14.967C41.7901 14.967 36.2941 16.4597 31.3409 19.4452C26.3876 22.3629 22.4522 26.2983 19.5346 31.2515C16.6169 36.2047 15.1581 41.7008 15.1581 47.7396V106.16C15.1581 112.131 16.6169 117.594 19.5346 122.547C22.4522 127.5 26.3876 131.469 31.3409 134.455C36.2941 137.372 41.7901 138.831 47.829 138.831ZM173.8 153.284C164.64 153.284 156.294 151.079 148.763 146.668C141.299 142.19 135.328 136.151 130.85 128.552C126.44 120.884 124.234 112.267 124.234 102.7V51.9126C124.234 42.074 126.44 33.321 130.85 25.6537C135.26 17.9186 141.265 11.8458 148.865 7.43539C156.532 2.95714 165.217 0.718016 174.92 0.718016C183.266 0.718016 191.001 2.55003 198.125 6.21405C205.318 9.87807 211.187 15.0009 215.733 21.5826L204.232 31.048C201.111 26.1626 196.972 22.2611 191.815 19.3435C186.658 16.4258 181.027 14.967 174.92 14.967C168.067 14.967 161.96 16.6294 156.6 19.9541C151.24 23.2789 147.033 27.6554 143.979 33.0835C140.926 38.4439 139.399 44.2792 139.399 50.5894V82.5478L135.633 78.2732C139.908 71.5558 145.506 66.1276 152.427 61.9886C159.416 57.8496 167.015 55.7801 175.225 55.7801C184.317 55.7801 192.494 57.9514 199.754 62.2939C207.014 66.5686 212.781 72.37 217.056 79.698C221.331 87.0261 223.468 95.2362 223.468 104.328C223.468 113.353 221.195 121.563 216.649 128.959C212.171 136.355 206.166 142.258 198.634 146.668C191.171 151.079 182.893 153.284 173.8 153.284ZM173.8 138.73C180.178 138.73 185.98 137.203 191.204 134.149C196.497 131.096 200.67 126.957 203.723 121.733C206.844 116.508 208.405 110.707 208.405 104.328C208.405 97.9503 206.844 92.1489 203.723 86.9243C200.67 81.6318 196.531 77.4589 191.306 74.4056C186.082 71.2844 180.28 69.7238 173.902 69.7238C167.524 69.7238 161.723 71.2844 156.498 74.4056C151.273 77.4589 147.101 81.6318 143.979 86.9243C140.926 92.1489 139.399 97.9503 139.399 104.328C139.399 110.639 140.926 116.406 143.979 121.631C147.033 126.855 151.172 131.028 156.396 134.149C161.621 137.203 167.422 138.73 173.8 138.73Z" fill="#AA915E"/>
</svg>
