<svg width="22" height="21" viewBox="0 0 22 21" fill="none" xmlns="http://www.w3.org/2000/svg">
<path d="M20.6038 1.10739C20.0952 0.585376 19.3425 0.390901 18.6406 0.595612L2.27346 5.35514C1.53292 5.56088 1.00803 6.15147 0.866638 6.90173C0.722192 7.6653 1.22673 8.63461 1.8859 9.03994L7.00355 12.1853C7.52843 12.5077 8.2059 12.4269 8.64026 11.9888L14.5005 6.0921C14.7955 5.78503 15.2837 5.78503 15.5787 6.0921C15.8737 6.38893 15.8737 6.87 15.5787 7.17707L9.70834 13.0748C9.27297 13.5118 9.19159 14.1925 9.51202 14.7207L12.639 19.8896C13.0052 20.5038 13.6358 20.8518 14.3276 20.8518C14.4089 20.8518 14.5005 20.8518 14.5819 20.8415C15.3753 20.7392 16.006 20.1967 16.2399 19.429L21.0921 3.08285C21.3057 2.38683 21.1124 1.6294 20.6038 1.10739Z" fill="white"/>
</svg>
