<svg width="174" height="39" viewBox="0 0 174 39" fill="none" xmlns="http://www.w3.org/2000/svg">
<path d="M21.5261 26.1913L27.8098 7.83359C28.0348 7.15849 28.1474 6.53531 28.1474 5.96407C28.1474 5.39282 28.0175 4.98603 27.7579 4.74368C27.4982 4.48403 27.1866 4.31092 26.8231 4.22437C26.4596 4.12051 26.0788 4.04261 25.6806 3.99068C25.2825 3.92144 24.9449 3.75699 24.668 3.49734V1.47202H35.4177V3.41944C35.1235 3.62716 34.8032 3.79161 34.457 3.91279C34.1108 4.01665 33.7646 4.14648 33.4184 4.30227C32.5875 4.71772 32.0335 5.34955 31.7566 6.19776L23.136 30.8132L21.5261 26.1913ZM22.4349 32.7346L20.4356 38.3691H15.9435L4.46673 6.14583C4.03397 4.9341 3.11652 4.16379 1.71438 3.83489C1.35086 3.74834 1.00465 3.60985 0.675754 3.41944V1.47202H17.1899V3.36751C16.7917 3.5233 16.3763 3.65313 15.9435 3.75699C15.5108 3.86085 15.104 3.99068 14.7231 4.14648C13.8576 4.49268 13.4249 5.03796 13.4249 5.78231C13.4249 6.21507 13.6672 7.13252 14.1519 8.53466L22.4349 32.7346ZM48.4005 35.6428C51.8799 35.4696 54.2168 33.5482 55.4112 29.8784L57.8001 30.9689C56.5018 35.7293 53.3686 38.3259 48.4005 38.7586V35.6428ZM47.6216 11.7544C51.1875 12.0141 53.862 13.4335 55.6449 16.0128C57.2375 18.2977 58.0338 21.353 58.0338 25.1786H44.6615V22.5301H50.0364C50.0364 20.3144 49.8633 18.566 49.5171 17.2851C49.1882 15.9868 48.5563 15.1819 47.6216 14.8703V11.7544ZM46.0896 38.7586C42.3332 38.4643 39.3039 37.0016 37.0016 34.3704C34.8551 31.9297 33.7819 28.9263 33.7819 25.3604C33.7819 21.6213 34.8638 18.4795 37.0276 15.9349C39.1741 13.3902 41.9351 11.9967 45.3106 11.7544V14.8703C44.1681 15.2684 43.3632 16.3417 42.8958 18.09C42.4458 19.8384 42.2207 21.8117 42.2207 24.0102C42.2207 26.1913 42.2726 27.8271 42.3765 28.9177C42.4977 29.9909 42.7054 30.9603 42.9997 31.8258C43.6056 33.6434 44.6355 34.9157 46.0896 35.6428V38.7586ZM77.2224 16.7917C76.4261 16.7917 75.6125 17.6832 74.7816 19.4662L74.6258 14.5068C76.0452 12.6718 77.8628 11.7544 80.0786 11.7544C81.3768 11.7544 82.4847 12.2304 83.4022 13.1825C84.2677 14.0826 84.7004 15.1299 84.7004 16.3243C84.7004 17.588 84.3369 18.6526 83.6099 19.5181C82.8482 20.4356 81.8788 20.8943 80.7017 20.8943C79.5073 20.8943 78.5985 20.4529 77.9754 19.57C77.4734 18.8257 77.2224 17.8996 77.2224 16.7917ZM72.0812 12.2737C72.4447 16.359 72.6264 20.9549 72.6264 26.0614V33.7473C72.6264 34.6647 73.0505 35.3139 73.8988 35.6947C74.2796 35.8678 74.695 36.0236 75.1451 36.1621C75.6125 36.3005 76.0712 36.4823 76.5213 36.7073V38.3691H61.4872V36.7073C61.8161 36.4823 62.1796 36.3179 62.5778 36.214C62.9759 36.1101 63.3481 35.989 63.6943 35.8505C64.5079 35.5216 64.9147 34.9071 64.9147 34.0069V16.7917C64.9147 15.8397 64.5079 15.2078 63.6943 14.8962C63.3481 14.7751 62.9759 14.6712 62.5778 14.5846C62.1796 14.4981 61.8161 14.3336 61.4872 14.0913V12.2737H72.0812ZM96.8523 3.4454V38.7586H96.6446C94.1 38.7586 92.2045 38.2739 90.9582 37.3046C89.7291 36.3352 89.1146 34.7599 89.1146 32.5788V15.1299H85.6612V13.0527C85.9208 12.7757 86.2497 12.568 86.6479 12.4295C87.0633 12.291 87.4788 12.1439 87.8942 11.9881C88.9155 11.6073 89.5647 10.9841 89.8416 10.1186C90.7591 7.59125 91.4775 5.97272 91.9968 5.263C92.5161 4.53596 92.9748 3.94741 93.373 3.49734L96.8523 3.4454ZM99.1633 35.6428C100.565 35.6428 101.552 35.1927 102.123 34.2925C102.366 33.8944 102.556 33.4443 102.695 32.9423C102.833 32.423 102.989 31.9037 103.162 31.3844L105.265 32.2153C104.832 34.2233 104.296 35.6081 103.655 36.3698C103.015 37.1141 102.348 37.6594 101.656 38.0056C100.981 38.3518 100.15 38.6028 99.1633 38.7586V35.6428ZM99.1633 12.2737H103.837V15.1299H99.1633V12.2737ZM121.572 16.7917C120.775 16.7917 119.962 17.6832 119.131 19.4662L118.975 14.5068C120.394 12.6718 122.212 11.7544 124.428 11.7544C125.726 11.7544 126.834 12.2304 127.751 13.1825C128.617 14.0826 129.05 15.1299 129.05 16.3243C129.05 17.588 128.686 18.6526 127.959 19.5181C127.197 20.4356 126.228 20.8943 125.051 20.8943C123.857 20.8943 122.948 20.4529 122.325 19.57C121.823 18.8257 121.572 17.8996 121.572 16.7917ZM116.43 12.2737C116.794 16.359 116.976 20.9549 116.976 26.0614V33.7473C116.976 34.6647 117.4 35.3139 118.248 35.6947C118.629 35.8678 119.044 36.0236 119.494 36.1621C119.962 36.3005 120.42 36.4823 120.871 36.7073V38.3691H105.836V36.7073C106.165 36.4823 106.529 36.3179 106.927 36.214C107.325 36.1101 107.697 35.989 108.044 35.8505C108.857 35.5216 109.264 34.9071 109.264 34.0069V16.7917C109.264 15.8397 108.857 15.2078 108.044 14.8962C107.697 14.7751 107.325 14.6712 106.927 14.5846C106.529 14.4981 106.165 14.3336 105.836 14.0913V12.2737H116.43ZM141.383 34.0069C141.383 34.9071 141.799 35.5216 142.63 35.8505C142.976 35.989 143.348 36.1101 143.746 36.214C144.144 36.3179 144.517 36.4823 144.863 36.7073V38.3691H130.244V36.7073C130.573 36.4823 130.937 36.3179 131.335 36.214C131.733 36.1101 132.105 35.989 132.451 35.8505C133.265 35.5216 133.672 34.9071 133.672 34.0069V16.7917C133.672 15.857 133.265 15.2424 132.451 14.9482C132.105 14.8097 131.733 14.6972 131.335 14.6106C130.937 14.5068 130.573 14.3336 130.244 14.0913V12.2737H141.383V34.0069ZM137.073 9.1838C136.415 9.1838 135.818 9.06263 135.281 8.82028C134.745 8.57794 134.286 8.24904 133.905 7.83359C133.109 6.96807 132.711 5.91214 132.711 4.66579C132.711 3.45406 133.109 2.39813 133.905 1.49798C134.736 0.580533 135.792 0.121807 137.073 0.121807C138.371 0.121807 139.436 0.580533 140.267 1.49798C141.063 2.39813 141.461 3.45406 141.461 4.66579C141.461 5.91214 141.063 6.96807 140.267 7.83359C139.436 8.73373 138.371 9.1838 137.073 9.1838ZM159.403 14.8703C157.309 15.6319 156.262 19.1027 156.262 25.2825C156.262 28.3291 156.495 30.7093 156.963 32.423C157.447 34.1194 158.261 35.1927 159.403 35.6428V38.7586C155.959 38.4817 153.12 37.0968 150.887 34.6041C148.636 32.0941 147.511 29.0129 147.511 25.3604C147.511 21.7771 148.636 18.6872 150.887 16.0907C153.189 13.4768 156.028 12.0314 159.403 11.7544V14.8703ZM164.882 25.2825C164.882 19.1027 163.826 15.6319 161.714 14.8703V11.7544C165.142 12.0314 167.981 13.4768 170.231 16.0907C172.481 18.6872 173.607 21.7771 173.607 25.3604C173.607 29.0129 172.481 32.0941 170.231 34.6041C167.998 37.0968 165.159 38.4817 161.714 38.7586V35.6428C162.857 35.21 163.67 34.1454 164.155 32.449C164.64 30.7353 164.882 28.3464 164.882 25.2825Z" fill="#A1A1A1"/>
</svg>
