<svg width="33" height="34" viewBox="0 0 33 34" fill="none" xmlns="http://www.w3.org/2000/svg">
<ellipse cx="16.3414" cy="16.8955" rx="16.2301" ry="16.1376" fill="#04243E" fill-opacity="0.07"/>
<path d="M22.1088 13.6453C21.6896 13.8264 21.246 13.9458 20.792 13.9995C21.2691 13.7218 21.6278 13.2805 21.801 12.7585C21.35 13.0207 20.8574 13.2047 20.3442 13.3026C20.1282 13.0774 19.8683 12.8983 19.5804 12.7761C19.2926 12.6539 18.9827 12.5912 18.6698 12.5918C17.4025 12.5918 16.377 13.5967 16.377 14.8353C16.3761 15.0076 16.396 15.1794 16.4362 15.347C15.5275 15.3047 14.6377 15.0742 13.8237 14.6703C13.0098 14.2665 12.2896 13.6981 11.7092 13.0016C11.5055 13.3429 11.3979 13.7323 11.3974 14.1292C11.3974 14.9071 11.8056 15.5948 12.4219 15.9976C12.0567 15.989 11.699 15.8929 11.3792 15.7175V15.7453C11.3792 16.8335 12.1709 17.7388 13.2188 17.9448C13.0217 17.9971 12.8187 18.0235 12.6147 18.0235C12.47 18.0238 12.3257 18.0098 12.1837 17.9819C12.475 18.8733 13.3229 19.5216 14.3272 19.5401C13.5111 20.1654 12.5092 20.5034 11.4789 20.5009C11.296 20.5007 11.1133 20.4898 10.9316 20.4685C11.9798 21.134 13.1982 21.486 14.4417 21.4826C18.6649 21.4826 20.972 18.0629 20.972 15.097C20.972 14.9997 20.9695 14.9025 20.9648 14.8076C21.4126 14.4908 21.8 14.0972 22.1088 13.6453Z" fill="url(#paint0_linear_356_1218)"/>
<defs>
<linearGradient id="paint0_linear_356_1218" x1="16.5377" y1="7.47955" x2="8.29237" y2="19.8484" gradientUnits="userSpaceOnUse">
<stop stop-color="#2E7CBB"/>
<stop stop-color="#172D5A"/>
<stop offset="1" stop-color="#367FBA"/>
</linearGradient>
</defs>
</svg>
