<svg width="108" height="52" viewBox="0 0 108 52" fill="none" xmlns="http://www.w3.org/2000/svg">
<path d="M96.4175 7.47799H95.1205C94.247 7.47901 93.3843 7.67126 92.593 8.04123C91.8018 8.4112 91.1011 8.94992 90.5402 9.61955C89.9793 10.2892 89.5718 11.0735 89.3463 11.9174C89.1208 12.7613 89.0828 13.6444 89.235 14.5045L89.8178 17.7879C89.4813 19.208 88.0201 20.2505 80.9444 20.2505H76.758C77.227 19.5984 77.544 18.8495 77.6856 18.0588L78.3094 14.5456C78.4617 13.6847 78.4235 12.801 78.1976 11.9565C77.9717 11.112 77.5634 10.3272 77.0016 9.65745C76.4398 8.98767 75.7381 8.44912 74.9458 8.07967C74.1535 7.71022 73.2899 7.51886 72.4157 7.51904H71.1187C69.6282 7.52091 68.192 8.079 67.0912 9.08407C65.9905 10.0892 65.3045 11.4688 65.1675 12.9531L67.392 13.5031C67.3942 12.5175 67.7867 11.573 68.4835 10.8761C69.1804 10.1792 70.125 9.78676 71.1105 9.7846H72.4075C72.9507 9.78467 73.4872 9.90374 73.9795 10.1334C74.4717 10.3631 74.9076 10.6979 75.2566 11.1141C75.6055 11.5304 75.8591 12.0181 75.9994 12.5428C76.1396 13.0676 76.1632 13.6167 76.0685 14.1515L75.4446 17.6648C75.317 18.3924 74.9366 19.0516 74.3704 19.5262C73.8043 20.0007 73.0887 20.2602 72.35 20.2587H56.9754C57.4429 19.6036 57.7571 18.8518 57.8947 18.0588L58.5186 14.5456C58.6708 13.6854 58.6328 12.8024 58.4073 11.9585C58.1819 11.1145 57.7744 10.3302 57.2135 9.6606C56.6526 8.99096 55.9518 8.45224 55.1606 8.08227C54.3693 7.7123 53.5066 7.52006 52.6331 7.51904H51.3361C48.1184 7.51904 45.3193 10.4987 43.497 13.0598V0.549973L41.2314 0V17.0738L43.382 17.5745C44.4656 15.3992 48.0034 9.74355 51.3361 9.74355H52.6331C53.1762 9.74362 53.7128 9.8627 54.2051 10.0924C54.6973 10.3221 55.1332 10.6568 55.4822 11.0731C55.8311 11.4894 56.0847 11.977 56.2249 12.5018C56.3652 13.0265 56.3888 13.5756 56.2941 14.1105L55.6702 17.6238C55.5393 18.3514 55.1568 19.0098 54.5897 19.4839C54.0225 19.9581 53.3067 20.2178 52.5674 20.2177H21.0547C20.2216 20.2155 19.4232 19.8836 18.8341 19.2945C18.245 18.7053 17.913 17.9069 17.9109 17.0738V0.56639L15.6289 0V17.0738C15.6311 18.5078 16.2017 19.8824 17.2157 20.8964C18.2297 21.9104 19.6043 22.4811 21.0383 22.4832H80.9608C86.5836 22.4832 89.4484 21.6624 90.8767 20.3244C91.3792 20.9949 92.0311 21.5391 92.7805 21.9139C93.53 22.2886 94.3565 22.4835 95.1944 22.4832H97.0085C98.4425 22.4811 99.8172 21.9104 100.831 20.8964C101.845 19.8824 102.416 18.5078 102.418 17.0738V13.462C102.417 12.6751 102.261 11.8961 101.959 11.1695C101.657 10.4429 101.214 9.78294 100.657 9.22727C100.1 8.67161 99.4387 8.23112 98.7113 7.93098C97.9838 7.63084 97.2044 7.47691 96.4175 7.47799ZM100.177 17.0738C100.175 17.9069 99.8429 18.7053 99.2538 19.2945C98.6647 19.8836 97.8663 20.2155 97.0331 20.2177H95.219C94.4807 20.2175 93.7661 19.9575 93.2002 19.4832C92.6344 19.0089 92.2536 18.3507 92.1244 17.6238L91.5006 14.1105C91.4058 13.5756 91.4295 13.0265 91.5697 12.5018C91.71 11.977 91.9635 11.4894 92.3125 11.0731C92.6615 10.6568 93.0974 10.3221 93.5896 10.0924C94.0818 9.8627 94.6184 9.74362 95.1616 9.74355H96.4585C97.4447 9.74355 98.3905 10.1353 99.0879 10.8327C99.7852 11.53 100.177 12.4758 100.177 13.462V17.0738Z" fill="white"/>
<path d="M5.67969 9.67886H8.84818V17.0009C8.846 17.8354 8.51295 18.6351 7.92206 19.2244C7.33116 19.8138 6.53066 20.1448 5.6961 20.1448V22.4103C7.1301 22.4082 8.50476 21.8375 9.51875 20.8235C10.5328 19.8095 11.1034 18.4349 11.1055 17.0009V9.67886H13.7405V7.38867H5.67969V9.67886Z" fill="white"/>
<path d="M1.74021 14.0195C2.7013 14.0195 3.48044 13.2404 3.48044 12.2793C3.48044 11.3182 2.7013 10.5391 1.74021 10.5391C0.779116 10.5391 0 11.3182 0 12.2793C0 13.2404 0.779116 14.0195 1.74021 14.0195Z" fill="#AA915E"/>
<path d="M1.74021 19.0918C2.7013 19.0918 3.48044 18.3126 3.48044 17.3515C3.48044 16.3904 2.7013 15.6113 1.74021 15.6113C0.779116 15.6113 0 16.3904 0 17.3515C0 18.3126 0.779116 19.0918 1.74021 19.0918Z" fill="#AA915E"/>
<path d="M106.26 43.2675C107.221 43.2675 108 42.4884 108 41.5273C108 40.5662 107.221 39.7871 106.26 39.7871C105.299 39.7871 104.52 40.5662 104.52 41.5273C104.52 42.4884 105.299 43.2675 106.26 43.2675Z" fill="#AA915E"/>
<path d="M106.26 48.332C107.221 48.332 108 47.5529 108 46.5918C108 45.6307 107.221 44.8516 106.26 44.8516C105.299 44.8516 104.52 45.6307 104.52 46.5918C104.52 47.5529 105.299 48.332 106.26 48.332Z" fill="#AA915E"/>
<path d="M70.2988 39.0976H72.9338V46.4196C72.9338 47.8543 73.5037 49.2302 74.5182 50.2447C75.5326 51.2591 76.9085 51.8291 78.3432 51.8291V49.5635C77.5094 49.5635 76.7097 49.2323 76.1201 48.6427C75.5306 48.0531 75.1993 47.2534 75.1993 46.4196V39.0976H78.3596V36.832H70.2988V39.0976Z" fill="white"/>
<path d="M102.321 39.0976V36.832H94.2598V39.0976H96.8947V46.4196C96.8947 47.8529 97.4635 49.2275 98.4762 50.2418C99.4889 51.256 100.863 51.8269 102.296 51.8291V49.5635C101.462 49.5635 100.662 49.2323 100.073 48.6427C99.4833 48.0531 99.1521 47.2534 99.1521 46.4196V39.0976H102.321Z" fill="white"/>
<path d="M36.5517 47.1744L37.1345 43.891C37.2844 43.03 37.2438 42.1466 37.0157 41.303C36.7876 40.4593 36.3774 39.6759 35.8141 39.0077C35.2508 38.3396 34.548 37.8029 33.755 37.4355C32.9621 37.068 32.0983 36.8787 31.2243 36.8809H29.9274C28.3424 36.883 26.8228 37.5131 25.7013 38.6331C24.5798 39.753 23.9477 41.2717 23.9434 42.8567V46.4767C23.9455 47.9107 24.5161 49.2853 25.5301 50.2993C26.5441 51.3133 27.9188 51.8839 29.3528 51.8861H31.2243C32.0338 51.8861 32.833 51.7047 33.5631 51.3553C34.2932 51.0058 34.9358 50.4972 35.4436 49.8668C35.9513 50.4972 36.5939 51.0058 37.324 51.3553C38.0541 51.7047 38.8533 51.8861 39.6627 51.8861V49.6206C38.9424 49.631 38.2403 49.3937 37.674 48.9484C37.1077 48.5031 36.7115 47.8769 36.5517 47.1744ZM34.91 43.5134L34.2861 47.0267C34.1565 47.7473 33.78 48.4004 33.2213 48.8738C32.6626 49.3471 31.9565 49.6111 31.2243 49.6206H29.4185C28.5853 49.6184 27.7869 49.2865 27.1978 48.6973C26.6087 48.1082 26.2768 47.3098 26.2746 46.4767V42.8567C26.2768 41.8719 26.6695 40.9282 27.3666 40.2326C28.0637 39.5371 29.0083 39.1464 29.9931 39.1464H31.2243C31.7688 39.1431 32.3073 39.2594 32.8018 39.487C33.2964 39.7147 33.735 40.0481 34.0865 40.4639C34.438 40.8796 34.694 41.3675 34.8363 41.893C34.9786 42.4185 35.0037 42.9689 34.91 43.5052V43.5134Z" fill="white"/>
<path d="M68.3923 47.1752L68.9751 43.8918C69.1273 43.0316 69.0893 42.1486 68.8638 41.3047C68.6383 40.4607 68.2309 39.6764 67.67 39.0068C67.1091 38.3372 66.4084 37.7984 65.6171 37.4285C64.8258 37.0585 63.9631 36.8663 63.0896 36.8652H61.7844C60.2045 36.8782 58.6938 37.5156 57.582 38.6382C56.4701 39.7607 55.8474 41.2775 55.8496 42.8575V46.4775C55.8518 47.9115 56.4224 49.2861 57.4364 50.3001C58.4504 51.3141 59.825 51.8847 61.259 51.8869H63.0649C63.8744 51.8869 64.6735 51.7055 65.4037 51.356C66.1338 51.0066 66.7764 50.498 67.2841 49.8676C67.7842 50.4922 68.4172 50.9976 69.1371 51.3469C69.857 51.6962 70.6457 51.8807 71.4459 51.8869V49.6213C70.735 49.6201 70.0456 49.3774 69.4908 48.9329C68.936 48.4885 68.5486 47.8687 68.3923 47.1752ZM66.7506 43.5142L66.1267 47.0274C65.9991 47.755 65.6187 48.4142 65.0525 48.8888C64.4863 49.3633 63.7708 49.6228 63.0321 49.6213H61.2262C60.3924 49.6213 59.5927 49.2901 59.0031 48.7005C58.4136 48.1109 58.0823 47.3113 58.0823 46.4775V42.8575C58.0845 41.8741 58.4761 40.9317 59.1714 40.2363C59.8668 39.541 60.8092 39.1494 61.7926 39.1472H63.0978C63.6392 39.1485 64.1738 39.2682 64.664 39.498C65.1543 39.7278 65.5883 40.0621 65.9356 40.4775C66.2829 40.8928 66.535 41.3792 66.6744 41.9023C66.8138 42.4255 66.837 42.9729 66.7424 43.506L66.7506 43.5142Z" fill="white"/>
<path d="M92.3962 47.1752L92.979 43.8918C93.1313 43.0309 93.0931 42.1472 92.8672 41.3027C92.6413 40.4582 92.233 39.6734 91.6712 39.0037C91.1094 38.3339 90.4077 37.7953 89.6154 37.4259C88.8231 37.0564 87.9595 36.8651 87.0853 36.8652H85.7883C84.2041 36.8674 82.6854 37.4977 81.5652 38.6179C80.445 39.7381 79.8147 41.2568 79.8125 42.8411V46.461C79.8125 47.8943 80.3813 49.269 81.394 50.2832C82.4067 51.2974 83.7805 51.8683 85.2137 51.8705H87.0442C87.8537 51.8705 88.6529 51.6891 89.383 51.3396C90.1131 50.9902 90.7557 50.4816 91.2634 49.8512C91.7687 50.4823 92.4096 50.9915 93.1386 51.3411C93.8676 51.6907 94.6659 51.8716 95.4744 51.8705V49.6213C94.7593 49.6257 94.0642 49.3855 93.5043 48.9406C92.9444 48.4957 92.5534 47.8728 92.3962 47.1752ZM90.7545 43.5142L90.1307 47.0274C90.0033 47.7537 89.624 48.4118 89.0596 48.8862C88.4951 49.3605 87.7816 49.6208 87.0442 49.6213H85.2302C84.397 49.6192 83.5986 49.2872 83.0095 48.6981C82.4204 48.109 82.0884 47.3106 82.0863 46.4775V42.8575C82.0884 41.8727 82.4812 40.929 83.1783 40.2334C83.8754 39.5378 84.82 39.1472 85.8047 39.1472H87.1017C87.6427 39.1499 88.1766 39.2706 88.6661 39.5008C89.1556 39.7311 89.589 40.0654 89.936 40.4804C90.283 40.8954 90.5353 41.3811 90.6753 41.9037C90.8152 42.4263 90.8395 42.9731 90.7463 43.506L90.7545 43.5142Z" fill="white"/>
<path d="M22.5244 49.6622V51.9278C21.0911 51.9256 19.7174 51.3547 18.7047 50.3405C17.692 49.3262 17.1232 47.9516 17.1232 46.5183V46.2803V33.4995L13.4457 38.3098H11.6481L7.97065 33.4995V51.9606L5.70508 51.4188V30.1505L7.73259 29.4609L12.5428 35.7651L17.353 29.4609L19.3887 30.1505V43.5058V46.5101C19.3887 47.3433 19.7186 48.1425 20.3061 48.7332C20.8937 49.3238 21.6913 49.6579 22.5244 49.6622Z" fill="white"/>
<path d="M54.3244 44.0069L52.9043 51.8461L50.7126 51.3207L52.108 43.6047C52.2025 43.0712 52.1793 42.5235 52.0399 41.9999C51.9006 41.4763 51.6486 40.9895 51.3014 40.5735C50.9542 40.1576 50.5204 39.8225 50.0302 39.5917C49.54 39.361 49.0052 39.2402 48.4634 39.2377H47.1665C46.4002 39.2348 45.6519 39.4702 45.0254 39.9114C44.3989 40.3527 43.9251 40.9778 43.6696 41.7003L43.4234 51.8953L41.166 51.3618L41.6996 29.4531L43.9487 29.9867L43.7517 38.0311C44.7536 37.3335 45.9457 36.961 47.1665 36.9639H48.4634C49.3381 36.9623 50.2024 37.1527 50.9954 37.5217C51.7885 37.8907 52.4908 38.4293 53.0529 39.0994C53.615 39.7696 54.0231 40.5549 54.2485 41.4C54.4739 42.2452 54.511 43.1294 54.3572 43.9905L54.3244 44.0069Z" fill="white"/>
</svg>
